<svg width="1861" height="1861" viewBox="0 0 1861 1861" fill="none" xmlns="http://www.w3.org/2000/svg">
<rect width="1861" height="1861" rx="10%" fill="white"/>
<path d="M919.335 805H909.79L914.861 774.455H924.585C927.548 774.455 929.989 775.076 931.908 776.319C933.837 777.562 935.18 779.337 935.935 781.643C936.701 783.95 936.815 786.705 936.278 789.906C935.761 793.048 934.757 795.748 933.266 798.005C931.784 800.252 929.865 801.982 927.509 803.195C925.162 804.398 922.438 805 919.335 805ZM914.04 801.719H919.455C921.98 801.719 924.158 801.222 925.987 800.227C927.827 799.233 929.308 797.816 930.432 795.977C931.565 794.137 932.341 791.955 932.759 789.429C933.176 787.003 933.136 784.92 932.639 783.18C932.152 781.43 931.192 780.087 929.761 779.153C928.339 778.208 926.435 777.736 924.048 777.736H918.008L914.04 801.719ZM971.449 795.634L973.716 782.091H977.236L973.417 805H969.897L970.554 801.122H970.315C969.599 802.286 968.6 803.275 967.317 804.09C966.035 804.896 964.528 805.298 962.798 805.298C961.366 805.298 960.143 804.985 959.129 804.359C958.125 803.722 957.409 802.768 956.981 801.495C956.564 800.212 956.514 798.597 956.832 796.648L959.278 782.091H962.798L960.412 796.409C960.143 798.08 960.397 799.412 961.172 800.406C961.948 801.401 963.067 801.898 964.528 801.898C965.403 801.898 966.328 801.674 967.302 801.227C968.287 800.779 969.162 800.093 969.927 799.168C970.703 798.244 971.21 797.065 971.449 795.634ZM1002.51 805.537C1001.05 805.537 999.782 805.263 998.688 804.717C997.594 804.16 996.784 803.359 996.257 802.315C995.73 801.261 995.586 799.989 995.824 798.497C996.053 797.185 996.495 796.121 997.152 795.305C997.808 794.48 998.603 793.834 999.538 793.366C1000.48 792.889 1001.5 792.536 1002.58 792.308C1003.67 792.069 1004.76 791.885 1005.85 791.756C1007.26 791.577 1008.41 791.437 1009.29 791.338C1010.18 791.239 1010.84 791.075 1011.29 790.846C1011.74 790.617 1012.01 790.224 1012.11 789.668V789.548C1012.35 788.087 1012.16 786.948 1011.53 786.133C1010.9 785.308 1009.78 784.895 1008.17 784.895C1006.5 784.895 1005.11 785.263 1003.98 785.999C1002.86 786.734 1002.03 787.52 1001.49 788.355L998.39 787.162C999.205 785.77 1000.18 784.686 1001.31 783.911C1002.45 783.125 1003.63 782.578 1004.88 782.27C1006.12 781.952 1007.32 781.793 1008.47 781.793C1009.21 781.793 1010.04 781.882 1010.96 782.061C1011.89 782.23 1012.75 782.583 1013.56 783.12C1014.37 783.657 1014.98 784.467 1015.39 785.551C1015.81 786.635 1015.87 788.087 1015.57 789.906L1013.07 805H1009.55L1010.08 801.898H1009.9C1009.59 802.395 1009.1 802.927 1008.44 803.494C1007.8 804.06 1006.98 804.543 1005.98 804.94C1005 805.338 1003.84 805.537 1002.51 805.537ZM1003.52 802.375C1004.91 802.375 1006.13 802.102 1007.17 801.555C1008.23 801.008 1009.07 800.302 1009.71 799.437C1010.36 798.572 1010.76 797.662 1010.92 796.707L1011.45 793.486C1011.28 793.665 1010.92 793.829 1010.4 793.978C1009.87 794.117 1009.27 794.241 1008.61 794.351C1007.95 794.45 1007.31 794.54 1006.68 794.619C1006.07 794.689 1005.57 794.749 1005.19 794.798C1004.26 794.918 1003.37 795.112 1002.52 795.38C1001.69 795.638 1000.98 796.031 1000.4 796.558C999.836 797.075 999.483 797.781 999.344 798.676C999.135 799.899 999.429 800.824 1000.22 801.45C1001.02 802.067 1002.12 802.375 1003.52 802.375ZM1044.7 805.477C1042.54 805.477 1040.77 804.97 1039.39 803.956C1038.02 802.942 1037.06 801.545 1036.52 799.765C1035.99 797.985 1035.91 795.952 1036.29 793.665C1036.66 791.338 1037.43 789.285 1038.58 787.505C1039.74 785.715 1041.17 784.318 1042.89 783.314C1044.61 782.3 1046.51 781.793 1048.58 781.793C1050.19 781.793 1051.59 782.091 1052.78 782.688C1053.97 783.284 1054.89 784.119 1055.54 785.193C1056.19 786.267 1056.49 787.52 1056.45 788.952H1052.93C1052.83 787.908 1052.38 786.983 1051.59 786.178C1050.8 785.362 1049.64 784.955 1048.1 784.955C1046.73 784.955 1045.46 785.312 1044.31 786.028C1043.16 786.734 1042.19 787.734 1041.4 789.026C1040.62 790.309 1040.08 791.815 1039.81 793.545C1039.51 795.315 1039.53 796.857 1039.88 798.169C1040.23 799.482 1040.86 800.501 1041.77 801.227C1042.69 801.952 1043.84 802.315 1045.23 802.315C1046.15 802.315 1047 802.156 1047.8 801.838C1048.6 801.52 1049.3 801.062 1049.92 800.466C1050.53 799.869 1051.02 799.153 1051.38 798.318H1054.9C1054.46 799.67 1053.76 800.888 1052.8 801.972C1051.83 803.046 1050.66 803.901 1049.29 804.538C1047.92 805.164 1046.39 805.477 1044.7 805.477ZM1081.55 805.537C1080.1 805.537 1078.83 805.263 1077.73 804.717C1076.64 804.16 1075.83 803.359 1075.3 802.315C1074.78 801.261 1074.63 799.989 1074.87 798.497C1075.1 797.185 1075.54 796.121 1076.2 795.305C1076.85 794.48 1077.65 793.834 1078.59 793.366C1079.53 792.889 1080.54 792.536 1081.63 792.308C1082.72 792.069 1083.81 791.885 1084.89 791.756C1086.31 791.577 1087.45 791.437 1088.34 791.338C1089.22 791.239 1089.89 791.075 1090.34 790.846C1090.79 790.617 1091.06 790.224 1091.16 789.668V789.548C1091.4 788.087 1091.2 786.948 1090.58 786.133C1089.95 785.308 1088.83 784.895 1087.22 784.895C1085.55 784.895 1084.15 785.263 1083.03 785.999C1081.91 786.734 1081.08 787.52 1080.54 788.355L1077.44 787.162C1078.25 785.77 1079.23 784.686 1080.36 783.911C1081.49 783.125 1082.68 782.578 1083.92 782.27C1085.17 781.952 1086.37 781.793 1087.52 781.793C1088.25 781.793 1089.09 781.882 1090.01 782.061C1090.93 782.23 1091.8 782.583 1092.6 783.12C1093.42 783.657 1094.03 784.467 1094.44 785.551C1094.86 786.635 1094.92 788.087 1094.62 789.906L1092.11 805H1088.59L1089.13 801.898H1088.95C1088.63 802.395 1088.15 802.927 1087.49 803.494C1086.84 804.06 1086.02 804.543 1085.03 804.94C1084.04 805.338 1082.89 805.537 1081.55 805.537ZM1082.57 802.375C1083.96 802.375 1085.18 802.102 1086.22 801.555C1087.28 801.008 1088.12 800.302 1088.76 799.437C1089.4 798.572 1089.81 797.662 1089.96 796.707L1090.5 793.486C1090.32 793.665 1089.97 793.829 1089.44 793.978C1088.92 794.117 1088.32 794.241 1087.65 794.351C1087 794.45 1086.36 794.54 1085.73 794.619C1085.11 794.689 1084.62 794.749 1084.24 794.798C1083.3 794.918 1082.41 795.112 1081.57 795.38C1080.73 795.638 1080.03 796.031 1079.45 796.558C1078.88 797.075 1078.53 797.781 1078.39 798.676C1078.18 799.899 1078.48 800.824 1079.27 801.45C1080.07 802.067 1081.17 802.375 1082.57 802.375ZM1114.5 805L1118.32 782.091H1121.72L1121.12 785.551H1121.36C1121.95 784.418 1122.86 783.498 1124.09 782.792C1125.31 782.086 1126.61 781.733 1127.98 781.733C1128.25 781.733 1128.57 781.738 1128.95 781.748C1129.33 781.748 1129.62 781.763 1129.83 781.793L1129.23 785.372C1129.11 785.342 1128.85 785.298 1128.43 785.238C1128.01 785.168 1127.56 785.134 1127.09 785.134C1125.97 785.134 1124.94 785.367 1124 785.835C1123.05 786.292 1122.26 786.928 1121.63 787.744C1120.99 788.549 1120.58 789.469 1120.4 790.503L1118.02 805H1114.5ZM1155.01 805.477C1152.82 805.477 1151 804.99 1149.57 804.016C1148.14 803.031 1147.14 801.659 1146.57 799.899C1146.01 798.129 1145.92 796.071 1146.3 793.724C1146.69 791.378 1147.46 789.31 1148.62 787.52C1149.77 785.72 1151.21 784.318 1152.93 783.314C1154.65 782.3 1156.54 781.793 1158.59 781.793C1159.79 781.793 1160.94 781.991 1162.04 782.389C1163.14 782.787 1164.1 783.433 1164.9 784.328C1165.71 785.213 1166.27 786.386 1166.59 787.848C1166.91 789.31 1166.89 791.109 1166.53 793.247L1166.29 794.739H1148.63L1149.11 791.696H1163.19C1163.42 790.403 1163.36 789.25 1163.01 788.236C1162.67 787.222 1162.08 786.421 1161.23 785.835C1160.4 785.248 1159.34 784.955 1158.06 784.955C1156.73 784.955 1155.5 785.312 1154.36 786.028C1153.21 786.734 1152.26 787.629 1151.49 788.713C1150.73 789.787 1150.25 790.881 1150.06 791.994L1149.65 794.619C1149.35 796.518 1149.39 798.03 1149.78 799.153C1150.18 800.277 1150.87 801.087 1151.85 801.585C1152.84 802.072 1154.07 802.315 1155.55 802.315C1156.5 802.315 1157.37 802.186 1158.16 801.928C1158.96 801.659 1159.67 801.261 1160.29 800.734C1160.92 800.197 1161.45 799.531 1161.88 798.736L1165.1 799.69C1164.55 800.844 1163.78 801.858 1162.79 802.733C1161.8 803.598 1160.65 804.274 1159.32 804.761C1158.01 805.239 1156.58 805.477 1155.01 805.477ZM1238.55 784C1238.4 782.996 1238.14 782.096 1237.77 781.3C1237.41 780.495 1236.94 779.814 1236.34 779.257C1235.74 778.69 1235.02 778.258 1234.18 777.96C1233.34 777.651 1232.37 777.497 1231.27 777.497C1229.46 777.497 1227.71 777.964 1226.02 778.899C1224.34 779.834 1222.88 781.211 1221.65 783.031C1220.43 784.85 1219.6 787.082 1219.16 789.727C1218.72 792.372 1218.77 794.604 1219.29 796.424C1219.83 798.244 1220.75 799.621 1222.05 800.555C1223.36 801.49 1224.96 801.957 1226.85 801.957C1228.6 801.957 1230.23 801.585 1231.75 800.839C1233.26 800.083 1234.52 799.019 1235.55 797.647C1236.57 796.265 1237.23 794.639 1237.53 792.77L1238.61 793.009H1229.42L1230.02 789.727H1241.65L1241.05 793.009C1240.65 795.534 1239.77 797.727 1238.4 799.586C1237.03 801.445 1235.32 802.882 1233.27 803.896C1231.22 804.911 1228.98 805.418 1226.56 805.418C1223.85 805.418 1221.58 804.781 1219.75 803.509C1217.92 802.236 1216.64 800.426 1215.89 798.08C1215.15 795.733 1215.04 792.949 1215.58 789.727C1215.97 787.311 1216.64 785.138 1217.61 783.21C1218.58 781.271 1219.77 779.62 1221.19 778.258C1222.61 776.896 1224.19 775.852 1225.94 775.126C1227.7 774.4 1229.56 774.037 1231.51 774.037C1233.12 774.037 1234.58 774.281 1235.89 774.768C1237.21 775.245 1238.35 775.926 1239.31 776.811C1240.26 777.686 1241 778.735 1241.53 779.958C1242.06 781.171 1242.34 782.518 1242.37 784H1238.55ZM1270.36 805.477C1268.25 805.477 1266.48 804.975 1265.06 803.971C1263.64 802.967 1262.64 801.56 1262.05 799.75C1261.47 797.94 1261.38 795.832 1261.77 793.426C1262.14 791.08 1262.9 789.036 1264.02 787.296C1265.15 785.546 1266.56 784.194 1268.24 783.239C1269.93 782.275 1271.79 781.793 1273.82 781.793C1275.93 781.793 1277.69 782.3 1279.1 783.314C1280.52 784.318 1281.52 785.73 1282.11 787.55C1282.7 789.359 1282.8 791.477 1282.41 793.903C1282.03 796.23 1281.27 798.263 1280.13 800.004C1278.99 801.734 1277.59 803.081 1275.91 804.045C1274.24 805 1272.39 805.477 1270.36 805.477ZM1270.42 802.315C1272.03 802.315 1273.43 801.903 1274.61 801.077C1275.8 800.252 1276.77 799.163 1277.5 797.811C1278.25 796.459 1278.75 794.997 1279.01 793.426C1279.25 791.935 1279.24 790.548 1278.98 789.265C1278.72 787.972 1278.17 786.933 1277.32 786.148C1276.48 785.352 1275.29 784.955 1273.76 784.955C1272.15 784.955 1270.74 785.372 1269.54 786.207C1268.34 787.043 1267.38 788.141 1266.64 789.504C1265.91 790.866 1265.42 792.332 1265.17 793.903C1264.93 795.395 1264.93 796.782 1265.18 798.065C1265.44 799.337 1265.99 800.366 1266.84 801.152C1267.69 801.928 1268.89 802.315 1270.42 802.315ZM1311.47 805.477C1309.27 805.477 1307.46 804.99 1306.02 804.016C1304.59 803.031 1303.59 801.659 1303.03 799.899C1302.46 798.129 1302.37 796.071 1302.76 793.724C1303.15 791.378 1303.92 789.31 1305.07 787.52C1306.22 785.72 1307.66 784.318 1309.38 783.314C1311.1 782.3 1312.99 781.793 1315.05 781.793C1316.24 781.793 1317.39 781.991 1318.49 782.389C1319.6 782.787 1320.55 783.433 1321.36 784.328C1322.16 785.213 1322.72 786.386 1323.04 787.848C1323.36 789.31 1323.34 791.109 1322.98 793.247L1322.74 794.739H1305.08L1305.56 791.696H1319.64C1319.87 790.403 1319.81 789.25 1319.46 788.236C1319.12 787.222 1318.53 786.421 1317.69 785.835C1316.85 785.248 1315.79 784.955 1314.51 784.955C1313.19 784.955 1311.95 785.312 1310.81 786.028C1309.67 786.734 1308.71 787.629 1307.95 788.713C1307.18 789.787 1306.7 790.881 1306.52 791.994L1306.1 794.619C1305.8 796.518 1305.84 798.03 1306.23 799.153C1306.63 800.277 1307.32 801.087 1308.31 801.585C1309.29 802.072 1310.52 802.315 1312 802.315C1312.95 802.315 1313.82 802.186 1314.61 801.928C1315.41 801.659 1316.12 801.261 1316.75 800.734C1317.37 800.197 1317.9 799.531 1318.33 798.736L1321.55 799.69C1321 800.844 1320.23 801.858 1319.24 802.733C1318.25 803.598 1317.1 804.274 1315.78 804.761C1314.47 805.239 1313.03 805.477 1311.47 805.477ZM1361.62 787.222L1358.28 788.116C1358.16 787.58 1357.95 787.062 1357.65 786.565C1357.36 786.058 1356.92 785.646 1356.31 785.327C1355.71 784.999 1354.9 784.835 1353.86 784.835C1352.46 784.835 1351.24 785.158 1350.21 785.805C1349.18 786.441 1348.58 787.251 1348.44 788.236C1348.29 789.101 1348.48 789.792 1349.03 790.309C1349.58 790.826 1350.49 791.249 1351.78 791.577L1355.06 792.412C1357.03 792.919 1358.43 793.68 1359.26 794.694C1360.11 795.698 1360.4 797.006 1360.13 798.616C1359.91 799.929 1359.34 801.102 1358.41 802.136C1357.49 803.17 1356.31 803.986 1354.86 804.582C1353.42 805.179 1351.82 805.477 1350.05 805.477C1347.69 805.477 1345.83 804.97 1344.47 803.956C1343.11 802.932 1342.38 801.45 1342.29 799.511L1345.81 798.676C1345.9 799.899 1346.34 800.824 1347.12 801.45C1347.92 802.067 1349.03 802.375 1350.46 802.375C1352.1 802.375 1353.47 802.027 1354.57 801.331C1355.66 800.625 1356.28 799.78 1356.43 798.795C1356.58 797.99 1356.42 797.319 1355.95 796.782C1355.49 796.245 1354.7 795.842 1353.57 795.574L1349.93 794.679C1347.9 794.172 1346.48 793.396 1345.66 792.352C1344.86 791.308 1344.59 789.996 1344.86 788.415C1345.07 787.122 1345.63 785.979 1346.53 784.984C1347.43 783.99 1348.56 783.21 1349.93 782.643C1351.3 782.076 1352.79 781.793 1354.4 781.793C1356.67 781.793 1358.36 782.29 1359.49 783.284C1360.61 784.268 1361.32 785.581 1361.62 787.222ZM1411.43 777.736L1411.96 774.455H1434.87L1434.34 777.736H1424.73L1420.2 805H1416.5L1421.03 777.736H1411.43ZM1457.13 805.477C1455.02 805.477 1453.25 804.975 1451.83 803.971C1450.41 802.967 1449.41 801.56 1448.82 799.75C1448.24 797.94 1448.15 795.832 1448.54 793.426C1448.91 791.08 1449.66 789.036 1450.79 787.296C1451.92 785.546 1453.33 784.194 1455.01 783.239C1456.7 782.275 1458.56 781.793 1460.59 781.793C1462.69 781.793 1464.45 782.3 1465.87 783.314C1467.29 784.318 1468.29 785.73 1468.88 787.55C1469.47 789.359 1469.57 791.477 1469.18 793.903C1468.8 796.23 1468.04 798.263 1466.9 800.004C1465.76 801.734 1464.36 803.081 1462.67 804.045C1461 805 1459.15 805.477 1457.13 805.477ZM1457.19 802.315C1458.8 802.315 1460.19 801.903 1461.38 801.077C1462.57 800.252 1463.53 799.163 1464.27 797.811C1465.02 796.459 1465.52 794.997 1465.78 793.426C1466.02 791.935 1466.01 790.548 1465.75 789.265C1465.49 787.972 1464.94 786.933 1464.09 786.148C1463.25 785.352 1462.06 784.955 1460.53 784.955C1458.92 784.955 1457.51 785.372 1456.31 786.207C1455.11 787.043 1454.15 788.141 1453.41 789.504C1452.68 790.866 1452.18 792.332 1451.94 793.903C1451.7 795.395 1451.7 796.782 1451.95 798.065C1452.21 799.337 1452.76 800.366 1453.61 801.152C1454.46 801.928 1455.65 802.315 1457.19 802.315ZM1537.4 782.33C1537.4 780.689 1536.86 779.446 1535.78 778.601C1534.69 777.746 1533.23 777.318 1531.38 777.318C1530.03 777.318 1528.81 777.537 1527.72 777.974C1526.64 778.412 1525.76 779.013 1525.07 779.779C1524.38 780.545 1523.96 781.415 1523.8 782.389C1523.67 783.205 1523.76 783.906 1524.06 784.492C1524.35 785.069 1524.78 785.551 1525.32 785.939C1525.88 786.317 1526.48 786.63 1527.11 786.879C1527.75 787.117 1528.34 787.311 1528.87 787.46L1531.86 788.295C1532.6 788.504 1533.43 788.793 1534.35 789.161C1535.26 789.528 1536.12 790.031 1536.91 790.667C1537.71 791.293 1538.31 792.099 1538.73 793.083C1539.16 794.067 1539.25 795.276 1539.01 796.707C1538.74 798.358 1538.06 799.849 1536.97 801.182C1535.9 802.514 1534.48 803.573 1532.71 804.359C1530.95 805.144 1528.89 805.537 1526.55 805.537C1524.36 805.537 1522.52 805.184 1521.03 804.478C1519.55 803.772 1518.45 802.788 1517.75 801.525C1517.05 800.262 1516.78 798.795 1516.94 797.125H1520.76C1520.66 798.278 1520.89 799.233 1521.45 799.989C1522 800.734 1522.78 801.291 1523.77 801.659C1524.77 802.017 1525.87 802.196 1527.08 802.196C1528.49 802.196 1529.8 801.967 1530.99 801.51C1532.19 801.043 1533.19 800.396 1533.97 799.571C1534.77 798.736 1535.26 797.761 1535.44 796.648C1535.61 795.634 1535.47 794.808 1535.02 794.172C1534.56 793.536 1533.9 793.018 1533.03 792.621C1532.17 792.223 1531.22 791.875 1530.19 791.577L1526.61 790.503C1524.34 789.817 1522.61 788.837 1521.43 787.565C1520.26 786.292 1519.83 784.626 1520.16 782.568C1520.46 780.858 1521.18 779.366 1522.33 778.094C1523.47 776.811 1524.89 775.817 1526.58 775.111C1528.27 774.395 1530.09 774.037 1532.03 774.037C1534 774.037 1535.69 774.395 1537.09 775.111C1538.49 775.817 1539.54 776.796 1540.22 778.049C1540.91 779.292 1541.16 780.719 1540.98 782.33H1537.4ZM1568.45 805.477C1566.3 805.477 1564.53 804.97 1563.14 803.956C1561.77 802.942 1560.82 801.545 1560.28 799.765C1559.74 797.985 1559.66 795.952 1560.04 793.665C1560.42 791.338 1561.19 789.285 1562.34 787.505C1563.49 785.715 1564.93 784.318 1566.65 783.314C1568.37 782.3 1570.26 781.793 1572.33 781.793C1573.94 781.793 1575.34 782.091 1576.54 782.688C1577.73 783.284 1578.65 784.119 1579.3 785.193C1579.94 786.267 1580.25 787.52 1580.21 788.952H1576.69C1576.59 787.908 1576.14 786.983 1575.34 786.178C1574.56 785.362 1573.4 784.955 1571.85 784.955C1570.48 784.955 1569.22 785.312 1568.07 786.028C1566.91 786.734 1565.94 787.734 1565.16 789.026C1564.37 790.309 1563.84 791.815 1563.56 793.545C1563.26 795.315 1563.29 796.857 1563.64 798.169C1563.98 799.482 1564.62 800.501 1565.53 801.227C1566.45 801.952 1567.6 802.315 1568.99 802.315C1569.91 802.315 1570.76 802.156 1571.56 801.838C1572.35 801.52 1573.06 801.062 1573.67 800.466C1574.29 799.869 1574.78 799.153 1575.14 798.318H1578.66C1578.22 799.67 1577.52 800.888 1576.55 801.972C1575.59 803.046 1574.42 803.901 1573.05 804.538C1571.68 805.164 1570.14 805.477 1568.45 805.477ZM1604.41 791.219L1602.15 805H1598.63L1603.7 774.455H1607.22L1605.37 785.67H1605.67C1606.38 784.477 1607.34 783.533 1608.53 782.837C1609.73 782.141 1611.25 781.793 1613.07 781.793C1614.62 781.793 1615.92 782.106 1616.99 782.732C1618.06 783.349 1618.82 784.298 1619.25 785.581C1619.7 786.854 1619.77 788.474 1619.45 790.443L1617 805H1613.48L1615.87 790.682C1616.17 788.862 1615.92 787.455 1615.14 786.461C1614.36 785.457 1613.15 784.955 1611.51 784.955C1610.36 784.955 1609.29 785.198 1608.29 785.685C1607.31 786.173 1606.47 786.884 1605.79 787.818C1605.11 788.753 1604.65 789.886 1604.41 791.219ZM1648.86 805.477C1646.75 805.477 1644.99 804.975 1643.56 803.971C1642.14 802.967 1641.14 801.56 1640.55 799.75C1639.97 797.94 1639.88 795.832 1640.27 793.426C1640.64 791.08 1641.4 789.036 1642.52 787.296C1643.65 785.546 1645.06 784.194 1646.74 783.239C1648.43 782.275 1650.29 781.793 1652.32 781.793C1654.43 781.793 1656.19 782.3 1657.6 783.314C1659.02 784.318 1660.02 785.73 1660.61 787.55C1661.2 789.359 1661.3 791.477 1660.91 793.903C1660.53 796.23 1659.77 798.263 1658.63 800.004C1657.49 801.734 1656.09 803.081 1654.41 804.045C1652.74 805 1650.89 805.477 1648.86 805.477ZM1648.92 802.315C1650.53 802.315 1651.93 801.903 1653.11 801.077C1654.3 800.252 1655.27 799.163 1656 797.811C1656.75 796.459 1657.25 794.997 1657.51 793.426C1657.75 791.935 1657.74 790.548 1657.48 789.265C1657.22 787.972 1656.67 786.933 1655.82 786.148C1654.98 785.352 1653.79 784.955 1652.26 784.955C1650.65 784.955 1649.24 785.372 1648.04 786.207C1646.84 787.043 1645.88 788.141 1645.14 789.504C1644.41 790.866 1643.92 792.332 1643.67 793.903C1643.43 795.395 1643.43 796.782 1643.68 798.065C1643.94 799.337 1644.49 800.366 1645.34 801.152C1646.19 801.928 1647.39 802.315 1648.92 802.315ZM1689.88 805.477C1687.77 805.477 1686.01 804.975 1684.58 803.971C1683.16 802.967 1682.16 801.56 1681.57 799.75C1680.99 797.94 1680.9 795.832 1681.29 793.426C1681.67 791.08 1682.42 789.036 1683.54 787.296C1684.67 785.546 1686.08 784.194 1687.76 783.239C1689.45 782.275 1691.31 781.793 1693.34 781.793C1695.45 781.793 1697.21 782.3 1698.62 783.314C1700.04 784.318 1701.04 785.73 1701.63 787.55C1702.22 789.359 1702.32 791.477 1701.93 793.903C1701.55 796.23 1700.79 798.263 1699.65 800.004C1698.51 801.734 1697.11 803.081 1695.43 804.045C1693.76 805 1691.91 805.477 1689.88 805.477ZM1689.94 802.315C1691.55 802.315 1692.95 801.903 1694.13 801.077C1695.32 800.252 1696.29 799.163 1697.02 797.811C1697.77 796.459 1698.27 794.997 1698.53 793.426C1698.77 791.935 1698.76 790.548 1698.5 789.265C1698.24 787.972 1697.69 786.933 1696.84 786.148C1696 785.352 1694.81 784.955 1693.28 784.955C1691.67 784.955 1690.26 785.372 1689.06 786.207C1687.87 787.043 1686.9 788.141 1686.16 789.504C1685.43 790.866 1684.94 792.332 1684.69 793.903C1684.45 795.395 1684.45 796.782 1684.7 798.065C1684.96 799.337 1685.51 800.366 1686.36 801.152C1687.21 801.928 1688.41 802.315 1689.94 802.315ZM1730.03 774.455L1724.96 805H1721.44L1726.51 774.455H1730.03Z" fill="#01304C"/>
<path d="M794.888 1089L800.925 1052.64H825.428L824.362 1058.98H807.548L806.127 1067.64H821.681L820.616 1073.98H805.062L803.641 1082.66H820.527L819.462 1089H794.888ZM836.227 1061.73L839.637 1071.26L846.366 1061.73H854.125L843.951 1075.36L849.793 1089H842.069L838.252 1079.57L831.398 1089H823.585L833.955 1075.36L828.415 1061.73H836.227ZM852.421 1099.23L858.706 1061.73H866.164L865.4 1066.31H865.737C866.187 1065.57 866.785 1064.83 867.531 1064.07C868.288 1063.3 869.229 1062.66 870.354 1062.15C871.478 1061.63 872.798 1061.37 874.313 1061.37C876.314 1061.37 878.06 1061.89 879.551 1062.93C881.043 1063.96 882.12 1065.52 882.783 1067.6C883.458 1069.68 883.535 1072.27 883.014 1075.4C882.517 1078.44 881.599 1081.01 880.262 1083.11C878.936 1085.19 877.344 1086.77 875.485 1087.85C873.639 1088.91 871.68 1089.44 869.608 1089.44C868.14 1089.44 866.933 1089.2 865.986 1088.72C865.051 1088.23 864.323 1087.62 863.802 1086.89C863.281 1086.14 862.914 1085.39 862.701 1084.63H862.417L860.002 1099.23H852.421ZM863.838 1075.36C863.577 1076.99 863.565 1078.4 863.802 1079.61C864.051 1080.81 864.548 1081.76 865.294 1082.43C866.039 1083.09 867.022 1083.42 868.241 1083.42C869.472 1083.42 870.567 1083.09 871.526 1082.41C872.485 1081.73 873.284 1080.78 873.923 1079.57C874.562 1078.35 875.018 1076.95 875.29 1075.36C875.539 1073.79 875.544 1072.4 875.308 1071.21C875.071 1070.01 874.586 1069.08 873.852 1068.4C873.118 1067.73 872.124 1067.39 870.869 1067.39C869.65 1067.39 868.555 1067.72 867.584 1068.37C866.625 1069.02 865.826 1069.94 865.187 1071.14C864.548 1072.33 864.098 1073.74 863.838 1075.36ZM899.362 1052.64L893.325 1089H885.761L891.798 1052.64H899.362ZM911.742 1089.53C908.961 1089.53 906.658 1088.94 904.835 1087.76C903.012 1086.56 901.728 1084.9 900.982 1082.79C900.249 1080.65 900.112 1078.17 900.574 1075.35C901.024 1072.55 901.959 1070.11 903.379 1068.01C904.8 1065.92 906.605 1064.29 908.795 1063.13C910.985 1061.96 913.453 1061.37 916.199 1061.37C918.969 1061.37 921.265 1061.97 923.088 1063.17C924.911 1064.35 926.195 1066.01 926.941 1068.14C927.687 1070.27 927.829 1072.75 927.367 1075.58C926.906 1078.36 925.959 1080.8 924.526 1082.89C923.094 1084.99 921.289 1086.62 919.111 1087.79C916.933 1088.95 914.477 1089.53 911.742 1089.53ZM912.488 1083.67C913.767 1083.67 914.897 1083.31 915.879 1082.59C916.874 1081.86 917.696 1080.86 918.347 1079.61C919.01 1078.34 919.472 1076.91 919.732 1075.31C919.993 1073.74 920.011 1072.34 919.786 1071.12C919.561 1069.89 919.087 1068.92 918.365 1068.21C917.655 1067.5 916.678 1067.14 915.436 1067.14C914.157 1067.14 913.021 1067.51 912.026 1068.24C911.032 1068.97 910.209 1069.96 909.558 1071.23C908.907 1072.49 908.452 1073.93 908.191 1075.54C907.943 1077.1 907.925 1078.5 908.138 1079.73C908.351 1080.95 908.819 1081.92 909.541 1082.63C910.263 1083.32 911.245 1083.67 912.488 1083.67ZM930.048 1089L934.594 1061.73H941.927L941.128 1066.49H941.412C942.193 1064.79 943.241 1063.51 944.555 1062.65C945.881 1061.77 947.307 1061.34 948.834 1061.34C949.213 1061.34 949.609 1061.36 950.024 1061.41C950.45 1061.44 950.829 1061.5 951.16 1061.59L950.024 1068.31C949.692 1068.2 949.219 1068.1 948.603 1068.03C947.999 1067.95 947.425 1067.91 946.881 1067.91C945.78 1067.91 944.756 1068.15 943.809 1068.63C942.862 1069.11 942.063 1069.77 941.412 1070.62C940.773 1071.48 940.353 1072.46 940.151 1073.57L937.612 1089H930.048ZM961.596 1089.53C958.802 1089.53 956.488 1088.96 954.653 1087.83C952.819 1086.68 951.528 1085.06 950.783 1082.96C950.049 1080.86 949.924 1078.36 950.41 1075.49C950.883 1072.68 951.836 1070.22 953.268 1068.1C954.713 1065.98 956.524 1064.33 958.702 1063.15C960.88 1061.96 963.306 1061.37 965.982 1061.37C967.781 1061.37 969.408 1061.66 970.864 1062.24C972.332 1062.81 973.551 1063.67 974.522 1064.83C975.493 1065.98 976.156 1067.42 976.511 1069.15C976.878 1070.88 976.872 1072.9 976.493 1075.22L976.156 1077.3H953.144L953.872 1072.61H969.781C969.959 1071.52 969.888 1070.56 969.568 1069.72C969.249 1068.88 968.716 1068.22 967.97 1067.75C967.224 1067.26 966.307 1067.02 965.218 1067.02C964.105 1067.02 963.064 1067.29 962.093 1067.84C961.122 1068.38 960.306 1069.1 959.643 1069.98C958.992 1070.86 958.571 1071.81 958.382 1072.84L957.548 1077.49C957.311 1078.93 957.358 1080.12 957.69 1081.06C958.033 1082.01 958.625 1082.72 959.465 1083.19C960.306 1083.66 961.371 1083.89 962.661 1083.89C963.502 1083.89 964.289 1083.77 965.023 1083.53C965.768 1083.29 966.431 1082.95 967.011 1082.48C967.591 1082.01 968.065 1081.42 968.432 1080.73L975.339 1081.19C974.7 1082.87 973.729 1084.34 972.427 1085.59C971.125 1086.83 969.556 1087.8 967.722 1088.5C965.899 1089.19 963.857 1089.53 961.596 1089.53ZM994.79 1052.64H1003.4L1009.1 1068.3H1009.49L1020.34 1052.64H1028.95L1011.8 1076.14L1009.65 1089H1002.02L1004.17 1076.14L994.79 1052.64ZM1033.62 1089.53C1030.84 1089.53 1028.53 1088.94 1026.71 1087.76C1024.89 1086.56 1023.6 1084.9 1022.86 1082.79C1022.12 1080.65 1021.99 1078.17 1022.45 1075.35C1022.9 1072.55 1023.83 1070.11 1025.25 1068.01C1026.67 1065.92 1028.48 1064.29 1030.67 1063.13C1032.86 1061.96 1035.33 1061.37 1038.07 1061.37C1040.84 1061.37 1043.14 1061.97 1044.96 1063.17C1046.79 1064.35 1048.07 1066.01 1048.82 1068.14C1049.56 1070.27 1049.7 1072.75 1049.24 1075.58C1048.78 1078.36 1047.83 1080.8 1046.4 1082.89C1044.97 1084.99 1043.16 1086.62 1040.99 1087.79C1038.81 1088.95 1036.35 1089.53 1033.62 1089.53ZM1034.36 1083.67C1035.64 1083.67 1036.77 1083.31 1037.75 1082.59C1038.75 1081.86 1039.57 1080.86 1040.22 1079.61C1040.89 1078.34 1041.35 1076.91 1041.61 1075.31C1041.87 1073.74 1041.89 1072.34 1041.66 1071.12C1041.44 1069.89 1040.96 1068.92 1040.24 1068.21C1039.53 1067.5 1038.55 1067.14 1037.31 1067.14C1036.03 1067.14 1034.9 1067.51 1033.9 1068.24C1032.91 1068.97 1032.08 1069.96 1031.43 1071.23C1030.78 1072.49 1030.33 1073.93 1030.07 1075.54C1029.82 1077.1 1029.8 1078.5 1030.01 1079.73C1030.23 1080.95 1030.69 1081.92 1031.42 1082.63C1032.14 1083.32 1033.12 1083.67 1034.36 1083.67ZM1071.35 1077.39L1073.96 1061.73H1081.52L1076.98 1089H1069.71L1070.53 1084.05H1070.25C1069.41 1085.64 1068.18 1086.93 1066.57 1087.9C1064.96 1088.87 1063.13 1089.36 1061.09 1089.36C1059.26 1089.36 1057.72 1088.94 1056.47 1088.11C1055.23 1087.28 1054.34 1086.11 1053.82 1084.58C1053.3 1083.05 1053.21 1081.22 1053.56 1079.09L1056.47 1061.73H1064.03L1061.37 1077.74C1061.12 1079.35 1061.35 1080.63 1062.04 1081.56C1062.74 1082.5 1063.81 1082.96 1065.24 1082.96C1066.15 1082.96 1067.03 1082.76 1067.89 1082.34C1068.75 1081.92 1069.5 1081.29 1070.12 1080.46C1070.75 1079.63 1071.16 1078.61 1071.35 1077.39ZM1083.03 1089L1087.57 1061.73H1094.91L1094.11 1066.49H1094.39C1095.17 1064.79 1096.22 1063.51 1097.53 1062.65C1098.86 1061.77 1100.29 1061.34 1101.81 1061.34C1102.19 1061.34 1102.59 1061.36 1103 1061.41C1103.43 1061.44 1103.81 1061.5 1104.14 1061.59L1103 1068.31C1102.67 1068.2 1102.2 1068.1 1101.58 1068.03C1100.98 1067.95 1100.4 1067.91 1099.86 1067.91C1098.76 1067.91 1097.73 1068.15 1096.79 1068.63C1095.84 1069.11 1095.04 1069.77 1094.39 1070.62C1093.75 1071.48 1093.33 1072.46 1093.13 1073.57L1090.59 1089H1083.03ZM1115.2 1089L1121.24 1052.64H1135.58C1138.33 1052.64 1140.58 1053.16 1142.35 1054.22C1144.12 1055.26 1145.37 1056.71 1146.08 1058.57C1146.8 1060.41 1146.97 1062.54 1146.57 1064.96C1146.17 1067.39 1145.3 1069.52 1143.95 1071.37C1142.61 1073.2 1140.87 1074.64 1138.73 1075.67C1136.58 1076.7 1134.11 1077.21 1131.3 1077.21H1122.16L1123.17 1071.05H1131.07C1132.57 1071.05 1133.84 1070.79 1134.89 1070.29C1135.96 1069.76 1136.8 1069.05 1137.43 1068.14C1138.06 1067.21 1138.47 1066.15 1138.66 1064.96C1138.86 1063.74 1138.79 1062.68 1138.46 1061.78C1138.13 1060.88 1137.52 1060.18 1136.63 1059.69C1135.76 1059.18 1134.58 1058.92 1133.1 1058.92H1127.91L1122.89 1089H1115.2ZM1154.4 1089.51C1152.68 1089.51 1151.18 1089.21 1149.91 1088.61C1148.66 1087.99 1147.73 1087.08 1147.14 1085.88C1146.55 1084.67 1146.4 1083.17 1146.7 1081.38C1146.96 1079.87 1147.45 1078.6 1148.17 1077.58C1148.91 1076.55 1149.8 1075.72 1150.85 1075.1C1151.91 1074.47 1153.07 1073.99 1154.35 1073.66C1155.64 1073.33 1156.97 1073.1 1158.35 1072.98C1159.93 1072.82 1161.22 1072.66 1162.22 1072.5C1163.22 1072.35 1163.98 1072.13 1164.47 1071.85C1164.97 1071.55 1165.27 1071.11 1165.38 1070.53V1070.43C1165.56 1069.31 1165.35 1068.45 1164.76 1067.84C1164.18 1067.21 1163.25 1066.89 1161.97 1066.89C1160.62 1066.89 1159.47 1067.19 1158.52 1067.78C1157.59 1068.37 1156.92 1069.13 1156.52 1070.04L1149.63 1069.47C1150.24 1067.81 1151.17 1066.38 1152.42 1065.17C1153.67 1063.95 1155.18 1063.02 1156.94 1062.37C1158.71 1061.7 1160.68 1061.37 1162.87 1061.37C1164.39 1061.37 1165.8 1061.55 1167.12 1061.9C1168.44 1062.26 1169.59 1062.81 1170.54 1063.56C1171.52 1064.3 1172.21 1065.26 1172.64 1066.43C1173.08 1067.59 1173.17 1068.98 1172.91 1070.61L1169.83 1089H1162.66L1163.3 1085.22H1163.09C1162.51 1086.07 1161.8 1086.82 1160.96 1087.47C1160.12 1088.11 1159.15 1088.62 1158.06 1088.98C1156.97 1089.34 1155.75 1089.51 1154.4 1089.51ZM1157.44 1084.29C1158.54 1084.29 1159.55 1084.08 1160.48 1083.64C1161.41 1083.19 1162.18 1082.58 1162.79 1081.83C1163.4 1081.07 1163.79 1080.21 1163.96 1079.25L1164.42 1076.36C1164.18 1076.51 1163.84 1076.65 1163.39 1076.77C1162.95 1076.88 1162.47 1077 1161.95 1077.1C1161.44 1077.2 1160.93 1077.29 1160.41 1077.37C1159.89 1077.44 1159.42 1077.51 1159 1077.58C1158.09 1077.71 1157.28 1077.92 1156.55 1078.2C1155.83 1078.49 1155.25 1078.87 1154.8 1079.36C1154.35 1079.83 1154.07 1080.42 1153.96 1081.13C1153.8 1082.16 1154.04 1082.95 1154.69 1083.5C1155.35 1084.03 1156.27 1084.29 1157.44 1084.29ZM1194.75 1061.73L1193.81 1067.41H1177.37L1178.33 1061.73H1194.75ZM1183.12 1055.19H1190.69L1186.46 1080.62C1186.34 1081.32 1186.36 1081.86 1186.52 1082.25C1186.67 1082.63 1186.92 1082.9 1187.28 1083.05C1187.65 1083.21 1188.08 1083.28 1188.59 1083.28C1188.95 1083.28 1189.31 1083.25 1189.68 1083.19C1190.04 1083.12 1190.32 1083.07 1190.51 1083.03L1190.8 1088.66C1190.37 1088.79 1189.79 1088.93 1189.07 1089.09C1188.36 1089.24 1187.52 1089.34 1186.55 1089.37C1184.7 1089.44 1183.14 1089.2 1181.86 1088.64C1180.59 1088.08 1179.67 1087.21 1179.11 1086.03C1178.56 1084.86 1178.44 1083.39 1178.76 1081.61L1183.12 1055.19ZM1205.95 1073.23L1203.32 1089H1195.78L1201.81 1052.64H1209.15L1206.87 1066.54H1207.17C1208.05 1064.93 1209.25 1063.67 1210.78 1062.76C1212.31 1061.83 1214.11 1061.37 1216.19 1061.37C1218.09 1061.37 1219.67 1061.79 1220.94 1062.62C1222.21 1063.43 1223.12 1064.61 1223.65 1066.15C1224.18 1067.68 1224.27 1069.5 1223.92 1071.63L1221.01 1089H1213.46L1216.12 1072.98C1216.4 1071.3 1216.18 1070 1215.47 1069.06C1214.77 1068.13 1213.66 1067.66 1212.13 1067.66C1211.1 1067.66 1210.15 1067.88 1209.29 1068.31C1208.42 1068.75 1207.7 1069.39 1207.1 1070.23C1206.52 1071.06 1206.14 1072.06 1205.95 1073.23ZM1252.36 1052.64L1246.33 1089H1238.64L1244.67 1052.64H1252.36ZM1263.09 1099.8C1260.63 1099.8 1258.58 1099.46 1256.93 1098.78C1255.3 1098.12 1254.05 1097.21 1253.2 1096.07C1252.36 1094.92 1251.9 1093.63 1251.82 1092.2L1258.99 1091.25C1259.12 1091.81 1259.37 1092.33 1259.74 1092.8C1260.11 1093.27 1260.65 1093.65 1261.35 1093.94C1262.06 1094.22 1262.98 1094.36 1264.1 1094.36C1265.75 1094.36 1267.18 1093.96 1268.4 1093.15C1269.62 1092.36 1270.37 1091.03 1270.66 1089.16L1271.47 1084.17H1271.15C1270.7 1084.93 1270.09 1085.64 1269.31 1086.32C1268.54 1086.99 1267.6 1087.54 1266.48 1087.97C1265.38 1088.4 1264.11 1088.61 1262.67 1088.61C1260.61 1088.61 1258.82 1088.14 1257.3 1087.19C1255.8 1086.23 1254.71 1084.77 1254.04 1082.8C1253.37 1080.83 1253.29 1078.33 1253.79 1075.31C1254.31 1072.22 1255.24 1069.64 1256.59 1067.57C1257.94 1065.5 1259.54 1063.95 1261.39 1062.92C1263.23 1061.89 1265.16 1061.37 1267.16 1061.37C1268.68 1061.37 1269.92 1061.63 1270.85 1062.15C1271.8 1062.66 1272.53 1063.3 1273.03 1064.07C1273.54 1064.83 1273.91 1065.57 1274.12 1066.31H1274.42L1275.17 1061.73H1282.68L1278.1 1089.27C1277.73 1091.6 1276.85 1093.54 1275.45 1095.09C1274.06 1096.65 1272.31 1097.82 1270.18 1098.61C1268.05 1099.4 1265.68 1099.8 1263.09 1099.8ZM1265.93 1082.93C1267.14 1082.93 1268.22 1082.63 1269.18 1082.02C1270.15 1081.41 1270.96 1080.53 1271.61 1079.39C1272.27 1078.25 1272.72 1076.87 1272.98 1075.27C1273.24 1073.68 1273.24 1072.29 1272.96 1071.12C1272.7 1069.94 1272.19 1069.02 1271.44 1068.37C1270.69 1067.72 1269.71 1067.39 1268.49 1067.39C1267.23 1067.39 1266.13 1067.73 1265.19 1068.4C1264.24 1069.07 1263.45 1069.99 1262.83 1071.17C1262.21 1072.36 1261.78 1073.72 1261.53 1075.27C1261.27 1076.85 1261.26 1078.21 1261.49 1079.36C1261.74 1080.5 1262.23 1081.38 1262.97 1082C1263.7 1082.62 1264.69 1082.93 1265.93 1082.93ZM1294.38 1073.23L1291.75 1089H1284.2L1288.75 1061.73H1295.94L1295.16 1066.54H1295.46C1296.32 1064.94 1297.54 1063.68 1299.12 1062.76C1300.7 1061.83 1302.51 1061.37 1304.53 1061.37C1306.43 1061.37 1308.01 1061.79 1309.27 1062.62C1310.55 1063.44 1311.45 1064.62 1311.97 1066.15C1312.51 1067.68 1312.59 1069.5 1312.24 1071.63L1309.33 1089H1301.76L1304.44 1072.98C1304.72 1071.32 1304.5 1070.01 1303.81 1069.08C1303.12 1068.13 1302.01 1067.66 1300.49 1067.66C1299.47 1067.66 1298.53 1067.88 1297.68 1068.31C1296.83 1068.75 1296.11 1069.39 1295.53 1070.23C1294.96 1071.06 1294.58 1072.06 1294.38 1073.23ZM1315.25 1089L1319.8 1061.73H1327.36L1322.82 1089H1315.25ZM1324.36 1058.18C1323.24 1058.18 1322.31 1057.8 1321.57 1057.06C1320.85 1056.3 1320.56 1055.4 1320.69 1054.36C1320.82 1053.29 1321.33 1052.39 1322.21 1051.66C1323.1 1050.91 1324.11 1050.54 1325.23 1050.54C1326.36 1050.54 1327.27 1050.91 1327.98 1051.66C1328.69 1052.39 1328.99 1053.29 1328.87 1054.36C1328.75 1055.4 1328.25 1056.3 1327.36 1057.06C1326.49 1057.8 1325.49 1058.18 1324.36 1058.18ZM1347.93 1061.73L1346.99 1067.41H1330.55L1331.5 1061.73H1347.93ZM1336.3 1055.19H1343.86L1339.64 1080.62C1339.52 1081.32 1339.54 1081.86 1339.69 1082.25C1339.84 1082.63 1340.1 1082.9 1340.45 1083.05C1340.82 1083.21 1341.26 1083.28 1341.77 1083.28C1342.12 1083.28 1342.48 1083.25 1342.85 1083.19C1343.22 1083.12 1343.5 1083.07 1343.68 1083.03L1343.97 1088.66C1343.54 1088.79 1342.97 1088.93 1342.25 1089.09C1341.54 1089.24 1340.7 1089.34 1339.73 1089.37C1337.88 1089.44 1336.32 1089.2 1335.04 1088.64C1333.76 1088.08 1332.84 1087.21 1332.29 1086.03C1331.73 1084.86 1331.61 1083.39 1331.93 1081.61L1336.3 1055.19ZM1360.38 1089.53C1357.58 1089.53 1355.27 1088.96 1353.43 1087.83C1351.6 1086.68 1350.31 1085.06 1349.56 1082.96C1348.83 1080.86 1348.7 1078.36 1349.19 1075.49C1349.66 1072.68 1350.62 1070.22 1352.05 1068.1C1353.49 1065.98 1355.3 1064.33 1357.48 1063.15C1359.66 1061.96 1362.09 1061.37 1364.76 1061.37C1366.56 1061.37 1368.19 1061.66 1369.64 1062.24C1371.11 1062.81 1372.33 1063.67 1373.3 1064.83C1374.27 1065.98 1374.93 1067.42 1375.29 1069.15C1375.66 1070.88 1375.65 1072.9 1375.27 1075.22L1374.93 1077.3H1351.92L1352.65 1072.61H1368.56C1368.74 1071.52 1368.67 1070.56 1368.35 1069.72C1368.03 1068.88 1367.5 1068.22 1366.75 1067.75C1366 1067.26 1365.09 1067.02 1364 1067.02C1362.88 1067.02 1361.84 1067.29 1360.87 1067.84C1359.9 1068.38 1359.08 1069.1 1358.42 1069.98C1357.77 1070.86 1357.35 1071.81 1357.16 1072.84L1356.33 1077.49C1356.09 1078.93 1356.14 1080.12 1356.47 1081.06C1356.81 1082.01 1357.4 1082.72 1358.24 1083.19C1359.08 1083.66 1360.15 1083.89 1361.44 1083.89C1362.28 1083.89 1363.07 1083.77 1363.8 1083.53C1364.55 1083.29 1365.21 1082.95 1365.79 1082.48C1366.37 1082.01 1366.84 1081.42 1367.21 1080.73L1374.12 1081.19C1373.48 1082.87 1372.51 1084.34 1371.21 1085.59C1369.9 1086.83 1368.34 1087.8 1366.5 1088.5C1364.68 1089.19 1362.64 1089.53 1360.38 1089.53ZM1393.57 1052.64H1402.18L1407.88 1068.3H1408.27L1419.12 1052.64H1427.73L1410.58 1076.14L1408.43 1089H1400.8L1402.94 1076.14L1393.57 1052.64ZM1432.4 1089.53C1429.61 1089.53 1427.31 1088.94 1425.49 1087.76C1423.67 1086.56 1422.38 1084.9 1421.64 1082.79C1420.9 1080.65 1420.77 1078.17 1421.23 1075.35C1421.68 1072.55 1422.61 1070.11 1424.03 1068.01C1425.45 1065.92 1427.26 1064.29 1429.45 1063.13C1431.64 1061.96 1434.11 1061.37 1436.85 1061.37C1439.62 1061.37 1441.92 1061.97 1443.74 1063.17C1445.57 1064.35 1446.85 1066.01 1447.6 1068.14C1448.34 1070.27 1448.48 1072.75 1448.02 1075.58C1447.56 1078.36 1446.61 1080.8 1445.18 1082.89C1443.75 1084.99 1441.94 1086.62 1439.77 1087.79C1437.59 1088.95 1435.13 1089.53 1432.4 1089.53ZM1433.14 1083.67C1434.42 1083.67 1435.55 1083.31 1436.53 1082.59C1437.53 1081.86 1438.35 1080.86 1439 1079.61C1439.66 1078.34 1440.13 1076.91 1440.39 1075.31C1440.65 1073.74 1440.66 1072.34 1440.44 1071.12C1440.22 1069.89 1439.74 1068.92 1439.02 1068.21C1438.31 1067.5 1437.33 1067.14 1436.09 1067.14C1434.81 1067.14 1433.68 1067.51 1432.68 1068.24C1431.69 1068.97 1430.86 1069.96 1430.21 1071.23C1429.56 1072.49 1429.11 1073.93 1428.85 1075.54C1428.6 1077.1 1428.58 1078.5 1428.79 1079.73C1429.01 1080.95 1429.47 1081.92 1430.19 1082.63C1430.92 1083.32 1431.9 1083.67 1433.14 1083.67ZM1470.13 1077.39L1472.74 1061.73H1480.3L1475.76 1089H1468.49L1469.31 1084.05H1469.03C1468.19 1085.64 1466.96 1086.93 1465.35 1087.9C1463.74 1088.87 1461.91 1089.36 1459.86 1089.36C1458.04 1089.36 1456.5 1088.94 1455.25 1088.11C1454.01 1087.28 1453.12 1086.11 1452.6 1084.58C1452.08 1083.05 1451.99 1081.22 1452.34 1079.09L1455.25 1061.73H1462.81L1460.15 1077.74C1459.9 1079.35 1460.13 1080.63 1460.82 1081.56C1461.52 1082.5 1462.59 1082.96 1464.02 1082.96C1464.93 1082.96 1465.81 1082.76 1466.67 1082.34C1467.53 1081.92 1468.27 1081.29 1468.9 1080.46C1469.53 1079.63 1469.94 1078.61 1470.13 1077.39ZM1481.81 1089L1486.35 1061.73H1493.68L1492.89 1066.49H1493.17C1493.95 1064.79 1495 1063.51 1496.31 1062.65C1497.64 1061.77 1499.06 1061.34 1500.59 1061.34C1500.97 1061.34 1501.37 1061.36 1501.78 1061.41C1502.21 1061.44 1502.59 1061.5 1502.92 1061.59L1501.78 1068.31C1501.45 1068.2 1500.98 1068.1 1500.36 1068.03C1499.76 1067.95 1499.18 1067.91 1498.64 1067.91C1497.54 1067.91 1496.51 1068.15 1495.57 1068.63C1494.62 1069.11 1493.82 1069.77 1493.17 1070.62C1492.53 1071.48 1492.11 1072.46 1491.91 1073.57L1489.37 1089H1481.81ZM1513.98 1089L1520.02 1052.64H1544.09L1543.03 1058.98H1526.64L1525.22 1067.64H1540.01L1538.94 1073.98H1524.15L1521.67 1089H1513.98ZM1560.8 1077.39L1563.41 1061.73H1570.98L1566.43 1089H1559.17L1559.98 1084.05H1559.7C1558.86 1085.64 1557.63 1086.93 1556.03 1087.9C1554.42 1088.87 1552.59 1089.36 1550.54 1089.36C1548.72 1089.36 1547.18 1088.94 1545.92 1088.11C1544.68 1087.28 1543.8 1086.11 1543.28 1084.58C1542.76 1083.05 1542.67 1081.22 1543.01 1079.09L1545.92 1061.73H1553.49L1550.82 1077.74C1550.57 1079.35 1550.8 1080.63 1551.5 1081.56C1552.2 1082.5 1553.26 1082.96 1554.69 1082.96C1555.6 1082.96 1556.49 1082.76 1557.34 1082.34C1558.2 1081.92 1558.95 1081.29 1559.58 1080.46C1560.2 1079.63 1560.61 1078.61 1560.8 1077.39ZM1591.53 1061.73L1590.59 1067.41H1574.15L1575.11 1061.73H1591.53ZM1579.9 1055.19H1587.47L1583.24 1080.62C1583.12 1081.32 1583.14 1081.86 1583.29 1082.25C1583.45 1082.63 1583.7 1082.9 1584.06 1083.05C1584.42 1083.21 1584.86 1083.28 1585.37 1083.28C1585.73 1083.28 1586.09 1083.25 1586.45 1083.19C1586.82 1083.12 1587.1 1083.07 1587.29 1083.03L1587.57 1088.66C1587.15 1088.79 1586.57 1088.93 1585.85 1089.09C1585.14 1089.24 1584.3 1089.34 1583.33 1089.37C1581.48 1089.44 1579.92 1089.2 1578.64 1088.64C1577.36 1088.08 1576.45 1087.21 1575.89 1086.03C1575.33 1084.86 1575.21 1083.39 1575.53 1081.61L1579.9 1055.19ZM1611.34 1077.39L1613.95 1061.73H1621.51L1616.97 1089H1609.7L1610.52 1084.05H1610.24C1609.4 1085.64 1608.17 1086.93 1606.56 1087.9C1604.95 1088.87 1603.12 1089.36 1601.08 1089.36C1599.25 1089.36 1597.71 1088.94 1596.46 1088.11C1595.22 1087.28 1594.33 1086.11 1593.81 1084.58C1593.29 1083.05 1593.2 1081.22 1593.55 1079.09L1596.46 1061.73H1604.02L1601.36 1077.74C1601.11 1079.35 1601.34 1080.63 1602.03 1081.56C1602.73 1082.5 1603.8 1082.96 1605.23 1082.96C1606.14 1082.96 1607.02 1082.76 1607.88 1082.34C1608.74 1081.92 1609.49 1081.29 1610.11 1080.46C1610.74 1079.63 1611.15 1078.61 1611.34 1077.39ZM1623.02 1089L1627.56 1061.73H1634.9L1634.1 1066.49H1634.38C1635.16 1064.79 1636.21 1063.51 1637.52 1062.65C1638.85 1061.77 1640.28 1061.34 1641.8 1061.34C1642.18 1061.34 1642.58 1061.36 1642.99 1061.41C1643.42 1061.44 1643.8 1061.5 1644.13 1061.59L1642.99 1068.31C1642.66 1068.2 1642.19 1068.1 1641.57 1068.03C1640.97 1067.95 1640.39 1067.91 1639.85 1067.91C1638.75 1067.91 1637.72 1068.15 1636.78 1068.63C1635.83 1069.11 1635.03 1069.77 1634.38 1070.62C1633.74 1071.48 1633.32 1072.46 1633.12 1073.57L1630.58 1089H1623.02ZM1654.56 1089.53C1651.77 1089.53 1649.46 1088.96 1647.62 1087.83C1645.79 1086.68 1644.5 1085.06 1643.75 1082.96C1643.02 1080.86 1642.89 1078.36 1643.38 1075.49C1643.85 1072.68 1644.8 1070.22 1646.24 1068.1C1647.68 1065.98 1649.49 1064.33 1651.67 1063.15C1653.85 1061.96 1656.28 1061.37 1658.95 1061.37C1660.75 1061.37 1662.38 1061.66 1663.83 1062.24C1665.3 1062.81 1666.52 1063.67 1667.49 1064.83C1668.46 1065.98 1669.12 1067.42 1669.48 1069.15C1669.85 1070.88 1669.84 1072.9 1669.46 1075.22L1669.12 1077.3H1646.11L1646.84 1072.61H1662.75C1662.93 1071.52 1662.86 1070.56 1662.54 1069.72C1662.22 1068.88 1661.68 1068.22 1660.94 1067.75C1660.19 1067.26 1659.28 1067.02 1658.19 1067.02C1657.07 1067.02 1656.03 1067.29 1655.06 1067.84C1654.09 1068.38 1653.27 1069.1 1652.61 1069.98C1651.96 1070.86 1651.54 1071.81 1651.35 1072.84L1650.52 1077.49C1650.28 1078.93 1650.33 1080.12 1650.66 1081.06C1651 1082.01 1651.59 1082.72 1652.43 1083.19C1653.27 1083.66 1654.34 1083.89 1655.63 1083.89C1656.47 1083.89 1657.26 1083.77 1657.99 1083.53C1658.74 1083.29 1659.4 1082.95 1659.98 1082.48C1660.56 1082.01 1661.03 1081.42 1661.4 1080.73L1668.31 1081.19C1667.67 1082.87 1666.7 1084.34 1665.4 1085.59C1664.09 1086.83 1662.53 1087.8 1660.69 1088.5C1658.87 1089.19 1656.83 1089.53 1654.56 1089.53Z" fill="#01304C"/>
<path d="M1138.25 1004.67C1138.2 1004.66 1138.15 1004.65 1138.1 1004.63C1134.94 1004.33 1130.57 1004.22 1127.16 1005.02C1121.28 1006.41 1100.5 1010.21 1089.76 1014.02C1079.03 1017.83 1062.06 1026.14 1058.25 1027.88C1055.2 1029.26 1051.67 1032.84 1050.28 1034.46C1054.09 1034.46 1189.84 1034.8 1196.42 1034.8C1203 1034.8 1235.56 1035.15 1244.56 1031.69C1251.76 1028.92 1260.03 1021.07 1263.26 1017.49C1274.34 992.784 1296.85 942.478 1298.24 938.876C1299.97 934.374 1301.36 925.716 1297.89 920.176C1295.12 915.743 1288.89 914.866 1286.12 914.981L1199.89 916.366C1198.73 916.482 1195.32 917.474 1190.88 920.522C1186.45 923.569 1182.11 933.566 1180.49 938.183C1188.34 938.183 1205.64 938.253 1212.01 938.53C1218.38 938.807 1219.05 942.801 1218.59 944.763C1211.78 958.846 1197.53 988.398 1195.04 993.939C1192.55 999.48 1186.38 1002.94 1183.61 1003.98C1171.95 1004.58 1149.48 1005.49 1141.08 1005.01C1139.75 1004.93 1138.77 1004.83 1138.25 1004.67Z" fill="#01304C"/>
<path d="M1253.22 866.845C1253.5 869.615 1244.79 888.546 1240.41 897.666C1247.45 898.127 1264.58 898.981 1276.77 898.704C1292.01 898.358 1308.97 896.627 1316.94 891.086C1324.9 885.545 1335.99 856.455 1337.02 854.377C1338.06 852.299 1342.57 838.794 1339.45 833.253C1336.96 828.82 1331.25 826.557 1328.71 825.98L1163.18 825.98C1158.33 825.98 1146.9 824.595 1138.59 829.79C1130.28 834.984 1127.16 840.179 1123.7 846.066C1120.24 851.953 1063.44 978.701 1056.86 992.9C1050.28 1007.1 1043.01 1024.76 1043.36 1027.18C1043.7 1029.61 1046.47 1034.46 1050.28 1034.46C1051.67 1032.84 1055.2 1029.26 1058.25 1027.88C1062.06 1026.14 1079.03 1017.83 1089.76 1014.02C1100.5 1010.21 1121.28 1006.41 1127.16 1005.02C1130.57 1004.22 1134.94 1004.33 1138.1 1004.63C1134.34 1003.43 1133.4 998.177 1133.4 995.67C1151.75 955.037 1189.22 872.385 1192.27 866.844C1196.08 859.918 1205.08 858.187 1209.24 857.148C1213.39 856.109 1235.56 856.802 1244.21 856.802C1252.87 856.802 1252.87 863.381 1253.22 866.845Z" fill="#549DBE"/>
<path d="M1073.9 835.615C1070.47 830.897 1065.33 827.573 1063.18 826.501C1036.63 826.587 997.198 826.714 963.165 826.823L947.377 857.597L984.907 857.597C985.507 857.597 986.076 857.594 986.616 857.592C993.798 857.558 995.967 857.548 1000.45 864.03C1004.31 869.606 1002.42 876.361 1000.99 879.042C985.085 915.32 952.631 988.734 950.058 992.166C946.841 996.455 934.51 1002.89 925.932 1003.96C919.07 1004.82 896.624 1004.68 886.258 1004.5C877.942 1005.93 858.208 1009.95 845.802 1014.56C830.295 1020.32 819.224 1028.72 817.003 1031.39C815.225 1033.53 814.371 1034.07 814.166 1034.06L955.956 1035.06L970.431 1032.91L987.587 1027.55C993.306 1024.33 1005.28 1017.36 1007.42 1015.22C1009.57 1013.07 1018.33 1004.68 1022.44 1000.74C1041.38 959.64 1079.59 876.79 1080.87 874.217C1082.48 871 1082.48 858.669 1082.48 854.38C1082.48 850.091 1078.19 841.513 1073.9 835.615Z" fill="#01304C"/>
<path d="M884.65 831.326C882.077 833.471 878.931 839.726 877.68 842.585C852.304 899.236 800.906 1013.5 798.333 1017.36C795.116 1022.19 796.188 1025.94 797.261 1029.16C798.119 1031.73 801.192 1033.45 802.622 1033.98L814.166 1034.06C814.371 1034.07 815.225 1033.53 817.003 1031.39C819.224 1028.72 830.295 1020.32 845.802 1014.56C858.208 1009.95 877.942 1005.93 886.258 1004.5L883.042 1001.28L947.377 857.597L963.165 826.823C926.407 826.941 895.95 827.037 894.837 827.037C892.156 827.037 887.867 828.646 884.65 831.326Z" fill="#549DBE"/>
<path d="M511.373 833.502L517.711 819.243C524.401 806.039 538.731 778.259 542.534 772.766C547.287 765.901 576.334 722.593 583.728 715.199L583.729 715.198L583.731 715.196C591.128 707.799 614.362 684.566 624.395 676.645C627.871 673.901 633.121 669.256 639.663 663.807C640.559 660.164 642.774 651.717 644.464 647.07C646.577 641.26 659.78 615.91 664.005 605.875C668.23 595.84 690.94 562.04 695.693 553.589C699.496 546.829 718.755 526.83 727.91 517.676C730.032 514.28 737.342 505.834 751.318 495.19C758.655 487.545 775.125 470.989 782.308 465.918C791.286 459.581 796.568 455.884 814.524 445.849C832.481 435.815 876.316 416.274 891.104 409.936C905.892 403.598 927.018 391.979 919.096 394.092C911.174 396.204 874.204 396.732 868.923 397.789C863.641 398.845 807.659 404.126 792.343 404.126C777.027 404.126 728.966 416.274 712.066 421.027C695.165 425.78 652.914 446.377 623.867 464.334C594.819 482.291 557.321 522.957 541.477 545.667C525.633 568.377 509.261 614.853 501.339 642.845C493.417 670.836 495.001 740.55 495.001 751.641C495.001 760.514 499.578 809.56 501.867 832.974C503.979 834.242 509.085 833.854 511.373 833.502Z" fill="url(#paint0_radial_7_73)"/>
<path d="M762.767 487.044C789.702 469.087 809.243 456.412 831.953 449.018C848.652 443.581 868.206 438.716 884.946 435.051C896.153 431.08 924.166 421.555 946.559 415.217C974.55 407.295 1014.16 385.642 1027.89 374.551C1041.62 363.46 1068.56 342.862 1078.07 330.187C1087.57 317.512 1102.36 302.196 1111.34 290.049C1120.32 277.901 1147.78 241.988 1155.7 230.369C1163.62 218.75 1204.82 161.183 1228.58 142.17C1252.35 123.157 1273.48 104.144 1308.86 88.3001C1344.25 72.456 1362.73 68.759 1368.01 67.7027C1372.24 66.8577 1384.56 63.1255 1390.19 61.3651C1370.65 62.4213 1331.04 68.759 1298.3 82.4906C1265.55 96.2221 1229.11 115.763 1202.18 135.832C1175.24 155.902 1145.14 191.287 1139.86 198.681C1134.58 206.075 1094.44 256.776 1090.74 263.642C1087.04 270.508 1047.96 313.815 1040.04 322.265C1032.12 330.715 1005.71 350.784 990.922 359.763C976.135 368.741 955.537 378.776 933.884 380.36C912.23 381.945 892.161 380.36 884.239 375.079C876.317 369.797 872.62 368.741 864.169 361.347L863.973 361.175C855.596 353.846 847.768 346.997 844.1 335.468C840.403 323.849 844.1 304.836 847.797 292.161C851.494 279.486 863.641 264.698 867.866 259.945C872.091 255.192 891.633 241.46 897.97 238.291C904.308 235.122 925.433 228.257 929.13 228.257C932.088 228.257 936.348 229.313 938.109 229.841C940.573 228.609 943.707 225.721 936.524 224.031C927.546 221.919 910.117 220.863 891.104 220.334L890.554 220.319C871.453 219.787 838.379 218.866 792.871 230.897C746.923 243.044 732.135 248.326 722.1 252.551C712.066 256.776 675.096 273.676 643.408 294.802C611.72 315.927 580.559 348.672 573.694 355.01C566.828 361.347 534.611 399.373 529.33 409.408C524.049 419.442 509.789 442.152 501.867 455.884C493.945 469.615 477.573 521.373 474.404 531.408C471.235 541.442 463.313 595.312 462.257 607.459C461.2 619.607 460.672 646.541 461.2 656.048C461.728 665.554 461.2 687.208 466.482 721.537C471.763 755.866 478.629 778.048 482.854 790.195C487.079 802.342 499.226 831.39 501.867 832.974C499.578 809.56 495.001 760.514 495.001 751.641C495.001 740.55 493.417 670.836 501.339 642.845C509.261 614.853 525.633 568.377 541.477 545.667C557.321 522.957 594.819 482.291 623.867 464.334C652.914 446.377 695.165 425.78 712.066 421.027C728.966 416.274 777.027 404.126 792.343 404.126C807.659 404.126 863.641 398.845 868.923 397.789C874.204 396.732 911.174 396.204 919.096 394.092C927.018 391.979 905.892 403.598 891.104 409.936C876.316 416.274 832.481 435.815 814.524 445.849C796.568 455.884 791.286 459.581 782.308 465.918C775.125 470.989 758.655 487.545 751.318 495.19C754.73 492.592 758.539 489.862 762.767 487.044Z" fill="url(#paint1_linear_7_73)"/>
<path d="M901.667 431.589C920.68 427.893 956.593 426.308 969.797 425.252C983 424.196 1040.57 419.97 1060.64 414.689C1080.71 409.408 1128.77 389.867 1150.95 376.135C1173.13 362.403 1204.29 341.806 1221.72 321.209C1239.15 300.611 1266.08 265.754 1279.29 242.516C1292.49 219.278 1324.71 175.443 1335.8 162.239C1346.89 149.036 1371.18 122.101 1376.46 118.932C1381.74 115.763 1401.29 99.9191 1411.32 95.694C1421.35 91.4689 1447.23 81.9625 1453.57 80.3781C1459.91 78.7937 1466.77 75.6248 1468.36 72.456C1469.63 69.9209 1468.18 66.1183 1467.3 64.5339L1454.1 61.8932C1448.82 60.8369 1409.74 60.3088 1390.19 61.3651C1384.56 63.1255 1372.24 66.8577 1368.01 67.7027C1362.73 68.759 1344.25 72.456 1308.86 88.3001C1273.48 104.144 1252.35 123.157 1228.58 142.17C1204.82 161.183 1163.62 218.75 1155.7 230.369C1147.78 241.988 1120.32 277.901 1111.34 290.049C1102.36 302.196 1087.57 317.512 1078.07 330.187C1068.56 342.862 1041.62 363.46 1027.89 374.551C1014.16 385.642 974.55 407.295 946.559 415.217C924.166 421.555 896.153 431.08 884.946 435.051C890.973 433.732 896.634 432.568 901.667 431.589Z" fill="url(#paint2_radial_7_73)"/>
<path d="M687.243 631.754C715.235 618.55 751.148 601.122 791.814 591.087C832.481 581.052 891.104 573.658 905.364 574.187C919.624 574.715 957.122 572.602 965.572 571.018C974.022 569.433 1022.61 563.624 1038.45 558.342C1054.3 553.061 1090.21 539.858 1102.89 533.52C1115.56 527.182 1149.89 506.057 1167.85 491.797C1185.81 477.537 1215.91 448.49 1220.13 442.68C1224.36 436.871 1255.52 399.373 1257.1 394.62C1258.69 389.867 1257.63 383.529 1254.99 385.113C1252.35 386.698 1244.96 390.923 1234.92 397.789C1224.89 404.654 1194.78 425.252 1162.04 437.399C1129.29 449.546 1119.79 455.356 1087.04 457.996C1071.73 462.045 1039.51 470.46 1033.17 471.728C1030.62 472.238 1023.37 473.35 1013.67 474.835C993.262 477.963 962.048 482.747 941.277 487.044C911.823 493.138 897.506 498.744 864.05 511.844C862.713 512.367 861.345 512.903 859.944 513.451C823.503 527.711 772.273 557.814 754.317 569.433C736.36 581.052 700.975 605.347 693.053 612.741C689.903 615.68 680.882 622.982 671.806 631.885C662.62 640.897 653.36 651.533 646.96 657.858C658.317 648.82 672.331 638.788 687.243 631.754Z" fill="url(#paint3_radial_7_73)"/>
<path d="M1087.04 457.996C1054.3 460.637 1007.29 462.221 1002.54 462.221C1000.96 462.221 993.739 461.869 984.115 461.4C964.868 460.461 935.996 459.053 923.321 459.053C918.929 459.053 914.369 458.912 909.672 458.767C894.033 458.284 876.881 457.754 859.416 462.221C857.912 462.606 856.426 462.984 854.952 463.359C834.181 468.642 815.842 473.306 782.308 488.1C777.919 490.036 773.746 491.964 769.802 493.858C747.929 504.36 733.13 513.798 727.91 517.676C718.755 526.83 699.496 546.829 695.693 553.589C690.94 562.04 668.23 595.84 664.005 605.875C659.78 615.91 646.577 641.26 644.464 647.07C642.774 651.717 640.559 660.164 639.663 663.807C641.945 661.906 644.384 659.907 646.96 657.858C653.36 651.533 662.62 640.897 671.806 631.885C680.882 622.982 689.903 615.68 693.053 612.741C700.975 605.347 736.36 581.052 754.317 569.433C772.273 557.814 823.503 527.711 859.944 513.451C861.345 512.903 862.713 512.367 864.05 511.844C897.506 498.744 911.823 493.138 941.277 487.044C962.048 482.747 993.262 477.963 1013.67 474.835C1023.37 473.35 1030.62 472.238 1033.17 471.728C1039.51 470.46 1071.73 462.045 1087.04 457.996Z" fill="#FFF0D1"/>
<path d="M602 813C609.5 808 626.7 796.8 635.5 792C646.5 786 674.5 769 682.5 766.5C690.5 764 718 753.5 725 751.5C732 749.5 764 744.5 767.5 744.5C771 744.5 795.886 742.25 803.827 742.25C810.179 742.25 831.808 744.14 841.828 745.086C853.55 747.165 878.468 751.325 884.367 751.325C891.74 751.325 910.457 750.19 922.368 749.056C934.278 747.922 945.055 746.22 954.13 744.519C963.205 742.817 985.892 738.28 998.37 733.175C1010.85 728.07 1051.68 710.488 1057.92 705.383C1064.16 700.278 1096.49 679.293 1103.87 671.919C1111.24 664.546 1132.22 642.993 1140.17 629.948C1148.11 616.903 1162.29 594.216 1165.12 587.977C1167.96 581.738 1173.63 569.827 1174.76 561.319C1175.9 552.811 1178.73 549.408 1175.33 546.572C1171.93 543.736 1170.79 540.333 1163.42 546.005C1156.05 551.677 1136.2 564.722 1128.25 567.558C1120.31 570.394 1082.88 582.872 1077.21 584.573C1071.54 586.275 1046.58 594.216 1038.07 594.783C1036.25 594.904 1033.22 595 1029.54 595.064C993.438 602.911 907.734 623.822 853.739 644.695C786.244 670.785 709.108 716.16 679.614 736.011C656.019 751.892 616.56 791.433 599.78 809.218C600.449 810.835 601.353 812.21 602 813Z" fill="url(#paint4_radial_7_73)"/>
<path d="M989.862 594.216C984.758 593.081 943.353 589.111 929.174 589.678C914.994 590.245 878.128 590.812 856.007 597.051C833.887 603.29 808.364 609.529 780.572 623.709C752.78 637.889 728.959 653.77 717.048 663.412C705.137 673.054 686.987 689.502 678.48 697.443C669.972 705.383 634.24 743.384 624.03 759.832C613.821 776.281 600.209 798.968 599.074 803.505C598.601 805.4 599.05 807.453 599.78 809.218C616.56 791.433 656.019 751.892 679.614 736.011C709.108 716.16 786.244 670.785 853.739 644.695C907.734 623.822 993.438 602.911 1029.54 595.064C1016.07 595.298 993.871 595.106 989.862 594.216Z" fill="url(#paint5_linear_7_73)"/>
<path fill-rule="evenodd" clip-rule="evenodd" d="M944.631 1371.98C940.798 1376.16 934.516 1380.62 925 1383C913.8 1385.8 900.667 1379.83 895.5 1376.5L675.339 1211L606.5 1324C700.833 1349 890.7 1399.1 895.5 1399.5C895.95 1399.54 897.1 1399.65 897.1 1399.65C897.1 1399.65 923.825 1402.21 934 1392.5C941.453 1385.39 943.856 1377.35 944.631 1371.98Z" fill="#01304C"/>
<path d="M945 1366.5C945 1364.1 937.667 1351.83 934 1346L739 1106.5L675.339 1211L895.5 1376.5C900.667 1379.83 913.8 1385.8 925 1383C934.516 1380.62 940.798 1376.16 944.631 1371.98C945 1369.42 945 1367.47 945 1366.5Z" fill="url(#paint6_radial_7_73)"/>
<path d="M102.5 1173L345.5 1244L324.626 1128.5L110 1158.5C105.833 1159.33 92.0576 1155.95 89.5 1153C83 1145.5 82.5 1148.5 80 1148.5C83.6 1164.5 96.5 1171.5 102.5 1173Z" fill="url(#paint7_radial_7_73)"/>
<path d="M102.5 1113.5C93.5 1118.5 76.4 1132.5 80 1148.5C82.5 1148.5 83 1145.5 89.5 1153C92.0576 1155.95 105.833 1159.33 110 1158.5L324.626 1128.5L300.5 995L102.5 1113.5Z" fill="#FFF0D1"/>
<path d="M345.5 671.5C338.667 669.5 322 666.7 310 671.5C295 677.5 291 691.5 290.5 697.5C290.1 702.3 306.333 891.833 314.5 986L362 1252L383 1537C384.667 1545.83 390.6 1564.4 401 1568C414 1572.5 435.5 1572 444 1564C450.8 1557.6 654.167 1217.33 755 1048C794 966.667 872.2 802.6 873 797C874 790 876 778.5 865 764.5C854 750.5 830.5 756 825 758C820.6 759.6 635.5 850.333 543.5 895.5C485.5 828 368.5 691.8 364.5 687C360.5 682.2 350.167 674.667 345.5 671.5Z" fill="#01304C"/>
<path d="M543.5 895.5L519.5 1091L430.5 1531.5C427.5 1537.17 421 1549.3 419 1552.5C416.5 1556.5 407.5 1564.5 404.5 1566C402.61 1566.94 400.39 1567.13 398.961 1567.08C399.621 1567.45 400.3 1567.76 401 1568C414 1572.5 435.5 1572 444 1564C450.8 1557.6 654.167 1217.33 755 1048C794 966.667 872.2 802.6 873 797C873.026 796.821 873.052 796.638 873.079 796.453C874.094 789.409 875.718 778.141 865 764.5C854 750.5 830.5 756 825 758C820.6 759.6 635.5 850.333 543.5 895.5Z" fill="url(#paint8_radial_7_73)"/>
<path d="M345 674.5C347.402 674.5 351.458 676.379 354.459 678.021C358.394 681.07 362.356 684.428 364.5 687C368.494 691.793 485.152 827.595 543.241 895.198L543 895.5L519.611 1090.89C519.611 1090.89 519.611 1090.89 519.611 1090.89C519.574 1090.93 519.537 1090.96 519.5 1091C477.5 1006.17 390.3 829.8 377.5 803C361.5 769.5 331.5 697.5 329 691.5C326.5 685.5 323 675.5 329 674.5C333.183 673.803 337.367 674.078 340.872 674.308C342.394 674.408 343.789 674.5 345 674.5Z" fill="url(#paint9_radial_7_73)"/>
<path d="M543.241 895.198L543 895.5L519.611 1090.89C621.816 991.521 827.202 791.698 832 786.5C833.074 785.337 834.228 784.173 835.404 782.987C840.802 777.545 846.679 771.621 847.5 763C847.888 758.927 844.608 756.571 840.272 755.28C833.415 755.539 827.438 757.113 825 758C821.15 759.4 678.951 829.043 581.829 876.69C567.955 883.496 555 889.854 543.5 895.5C543.414 895.4 543.327 895.299 543.241 895.198Z" fill="#FFF0D1"/>
<path d="M1328.92 1033.69L1410.06 856.252L1345.11 855.747C1345.11 852.75 1345.98 845.625 1349.45 841.1C1353.8 835.443 1360.77 829.887 1364.1 828.069C1366.77 826.614 1368.92 825.981 1369.66 825.847L1569.31 825.363C1569.59 826.796 1569.91 830.191 1568.98 832.307C1567.82 834.953 1561.54 844.874 1556.74 847.685C1551.95 850.496 1546 853.307 1543.68 854.134C1541.83 854.795 1537.95 855.732 1536.24 856.118H1489.45L1414.21 1019.16C1412.78 1021.53 1408.98 1027.06 1405.28 1030.23C1400.65 1034.2 1395.36 1035.03 1392.38 1035.2C1389.41 1035.36 1331.86 1036.35 1331.04 1036.02C1330.38 1035.76 1329.35 1034.36 1328.92 1033.69Z" fill="url(#paint10_radial_7_73)"/>
<path d="M1690.17 872.904L1694.61 864.23C1695.24 863.102 1696.18 860.422 1694.82 858.73C1693.13 856.614 1692.28 855.98 1688.26 855.98L1644.26 855.98C1642.92 856.121 1639.69 856.91 1637.49 858.941L1637.34 859.075C1634.67 861.541 1632.79 863.274 1630.51 868.884C1628.18 874.597 1613.37 905.272 1613.37 907.176C1613.37 909.08 1614.22 911.831 1616.12 913.1C1618.03 914.369 1718.94 915.85 1722.11 916.273L1722.13 916.276C1725.32 916.701 1733.33 917.769 1736.71 924.312C1740.1 930.871 1737.56 939.333 1734.81 946.738C1732.61 952.661 1711.46 998.428 1701.17 1020.57C1699.97 1022.12 1696.51 1025.9 1692.28 1028.61C1686.99 1032 1680.01 1033.69 1675.78 1034.53C1672.4 1035.21 1552.94 1034.82 1493.63 1034.53C1491.66 1034.04 1487.16 1032 1484.96 1027.76C1482.21 1022.48 1488.76 1006.61 1493.63 1000.9C1498.5 995.184 1508.44 987.78 1520.92 984.818C1530.91 982.448 1563.3 982.42 1578.25 982.702C1577.55 985.17 1575.8 990.784 1574.45 993.492C1572.75 996.877 1570.85 999.838 1571.48 1001.53C1572.12 1003.22 1571.27 1003.86 1588.83 1003.43C1606.39 1003.01 1622.26 1003.43 1625.22 1002.38C1628.18 1001.32 1633.05 1000.47 1637.07 989.895C1640.28 981.433 1651.95 956.046 1657.38 944.41C1657.38 942.647 1656.66 938.995 1653.78 938.487C1650.18 937.852 1641.51 937.217 1638.12 937.217C1635.42 937.217 1574.8 936.089 1544.83 935.525C1541.51 935.172 1534.25 933.325 1531.71 928.755C1528.54 923.043 1531.29 916.273 1531.92 913.946C1532.56 911.619 1562.18 848.998 1564.29 845.613C1566.41 842.228 1569.58 836.728 1577.83 831.439C1586.08 826.15 1595.18 826.15 1598.35 825.515C1601.52 824.88 1768.66 825.304 1771.19 825.727C1773.73 826.15 1780.29 828.477 1781.77 833.766C1783.25 839.055 1776.48 854.922 1770.56 861.48C1764.64 868.038 1754.48 870.154 1748.35 871C1743.44 871.677 1707.52 872.552 1690.17 872.904Z" fill="#01304C"/>
<path d="M1558.11 1183.73C1557.08 1182.86 1556.92 1182.23 1557.08 1181.12C1557.24 1180.02 1570.42 1158.23 1571.53 1156.1C1572.63 1153.97 1584.48 1134.78 1586.92 1132.65C1589.37 1130.52 1591.74 1129.49 1600.5 1128.78C1607.52 1128.21 1657.22 1128.33 1681.19 1128.46C1679.69 1131.86 1675.16 1139.52 1669.04 1142.99C1661.38 1147.33 1646.93 1147.96 1642.11 1148.04C1638.26 1148.11 1610.4 1148.02 1596.95 1147.96C1594.43 1151.99 1589.29 1160.25 1588.98 1161.07C1588.58 1162.1 1588.9 1162.97 1590.48 1163.12C1591.74 1163.25 1622.8 1163.12 1638.16 1163.04C1639.56 1163.04 1643.11 1163.6 1646.14 1165.81C1649.93 1168.57 1652.53 1172.6 1652.38 1179.15C1652.22 1185.7 1647.64 1194.15 1644.32 1198.26C1641.01 1202.36 1635.16 1207.97 1625.06 1213.81C1614.95 1219.65 1602.72 1219.5 1596.24 1219.5C1589.77 1219.5 1542 1219.02 1539.87 1219.5C1537.74 1219.97 1536.79 1218.78 1537.74 1216.97C1538.69 1215.15 1545.63 1205.05 1552.42 1201.81C1559.21 1198.57 1566.95 1198.97 1571.37 1199.05C1575.79 1199.13 1616.06 1199.76 1620.4 1198.18C1624.74 1196.6 1629.24 1192.81 1629.56 1189.49C1629.87 1186.18 1627.19 1184.12 1624.66 1183.81C1622.64 1183.56 1579.45 1183.65 1558.11 1183.73Z" fill="url(#paint11_radial_7_73)"/>
<path d="M1473.24 1146.71C1475.44 1143.29 1480.65 1135.92 1485.02 1132.61C1490.47 1128.48 1499.2 1128.79 1503.01 1128.62C1506.81 1128.45 1547.82 1127.87 1550.79 1127.96C1554.81 1128.08 1558.47 1128.44 1563.1 1131.41C1567.73 1134.39 1568.17 1140.39 1567.34 1145.35C1566.51 1150.31 1561.54 1162.35 1551.12 1171.12C1540.71 1179.88 1527.97 1183.35 1511.6 1183.68C1495.23 1184.01 1480.49 1183.02 1477.35 1183.68C1474.21 1184.34 1469.72 1186.12 1466.24 1192.07C1463.47 1196.83 1463.27 1198.85 1463.71 1198.8C1488.02 1198.69 1535.68 1198.43 1536.74 1198.56C1538.06 1198.73 1537.54 1201.48 1536.78 1202.93C1535.56 1205.26 1531.29 1210.48 1528.08 1213.05C1525.15 1215.4 1517.23 1219.07 1509.12 1219.23C1501.02 1219.4 1434.08 1220.13 1432.59 1219.8C1431.1 1219.47 1430.84 1218.13 1431.17 1216.97C1431.5 1215.81 1447.8 1189.05 1450.94 1184.91C1454.08 1180.78 1459.58 1175.35 1466.43 1171.09C1470.65 1168.47 1478.7 1164.83 1486.14 1164.01C1493.58 1163.18 1529.03 1164.52 1532.83 1163.19C1536.63 1161.87 1542.63 1158.23 1544.12 1155.42C1545.61 1152.61 1545.61 1150.84 1544.12 1149.18C1542.63 1147.53 1537.23 1147.8 1529.13 1147.8C1521.03 1147.8 1478.34 1147.85 1476.19 1147.85C1474.47 1147.85 1473.35 1146.98 1473.24 1146.71Z" fill="url(#paint12_radial_7_73)"/>
<path fill-rule="evenodd" clip-rule="evenodd" d="M1343.46 1219.36L1402.47 1219.08C1410.23 1218.94 1419.8 1212.75 1424.36 1209.39C1429.18 1205.84 1433.52 1200.7 1436.57 1196.62L1462.29 1154.66C1463.46 1150.88 1465.32 1142.11 1463.37 1137.34C1461.42 1132.58 1456.06 1129.76 1453.63 1128.95L1399.76 1127.87C1396.15 1128.68 1386.99 1131.6 1379.19 1136.8C1371.4 1142 1362.59 1152.14 1359.16 1156.56L1336.15 1194.72C1335.07 1197.43 1333.18 1204.2 1334.26 1209.61C1335.34 1215.02 1340.85 1218.36 1343.46 1219.36ZM1436.02 1148.48L1392.69 1148.38C1391.04 1148.82 1387.23 1150.04 1385.21 1151.41C1382.69 1153.13 1379.96 1155.35 1378.65 1156.77C1377.33 1158.18 1373.19 1164.14 1371.27 1167.27C1369.35 1170.4 1361.98 1182.63 1360.46 1185.46C1358.95 1188.28 1357.94 1192.22 1358.85 1194.75C1359.57 1196.77 1361.91 1197.41 1362.99 1197.48C1377.3 1197.51 1406.32 1197.56 1407.94 1197.48C1409.96 1197.38 1413.19 1196.26 1416.73 1193.64C1420.26 1191.01 1426.32 1183.23 1432.69 1172.22C1439.05 1161.21 1440.77 1156.77 1440.57 1152.83C1440.41 1149.68 1437.47 1148.62 1436.02 1148.48Z" fill="url(#paint13_radial_7_73)"/>
<path d="M1264.9 1147.14C1267.1 1143.72 1272.6 1136.06 1276.97 1132.75C1282.42 1128.62 1289.2 1128.79 1293.01 1128.62C1296.81 1128.45 1337.82 1127.96 1340.79 1127.96C1343.77 1127.96 1350.55 1128.12 1355.18 1131.1C1359.81 1134.08 1359.97 1139.7 1359.15 1144.66C1358.32 1149.62 1351.54 1162.35 1341.12 1171.12C1330.71 1179.88 1317.97 1183.35 1301.6 1183.68C1285.23 1184.01 1270.68 1183.02 1267.54 1183.68C1264.4 1184.34 1258.12 1186.99 1254.64 1192.94C1251.87 1197.7 1252.05 1198.78 1252.49 1198.73C1276.8 1198.62 1325.68 1198.43 1326.74 1198.56C1328.05 1198.73 1327.35 1200.06 1326.6 1201.5L1326.57 1201.54C1325.36 1203.86 1319.04 1211.21 1315.83 1213.78C1312.9 1216.12 1307.23 1219.07 1299.12 1219.23C1291.02 1219.4 1221.9 1219.56 1220.42 1219.23C1218.93 1218.9 1219.26 1217.91 1219.59 1216.75C1219.92 1215.6 1237.61 1188.81 1240.75 1184.67C1243.9 1180.54 1249.58 1175.35 1256.43 1171.09C1260.65 1168.47 1268.7 1164.83 1276.14 1164.01C1283.58 1163.18 1320.79 1164.5 1324.59 1163.18C1328.39 1161.86 1334.01 1157.89 1335.5 1155.08C1336.99 1152.27 1337.31 1150.91 1335.82 1149.25C1334.33 1147.6 1327.23 1147.8 1319.13 1147.8C1311.03 1147.8 1269.53 1147.97 1267.38 1147.97C1265.66 1147.97 1265.01 1147.42 1264.9 1147.14Z" fill="url(#paint14_radial_7_73)"/>
<mask id="mask0_7_73" style="mask-type:alpha" maskUnits="userSpaceOnUse" x="796" y="826" width="287" height="210">
<path d="M1073.9 835.615C1070.47 830.897 1065.33 827.573 1063.18 826.501C1036.63 826.587 997.198 826.714 963.165 826.823L947.377 857.597L984.907 857.597C985.507 857.597 986.076 857.594 986.616 857.592C993.798 857.558 995.967 857.548 1000.45 864.03C1004.31 869.606 1002.42 876.361 1000.99 879.042C985.085 915.32 952.631 988.734 950.058 992.166C946.841 996.455 934.51 1002.89 925.932 1003.96C919.07 1004.82 896.624 1004.68 886.258 1004.5C877.942 1005.93 858.208 1009.95 845.802 1014.56C830.295 1020.32 819.224 1028.72 817.003 1031.39C815.225 1033.53 814.371 1034.07 814.166 1034.06L955.956 1035.06L970.431 1032.91L987.587 1027.55C993.306 1024.33 1005.28 1017.36 1007.42 1015.22C1009.57 1013.07 1018.33 1004.68 1022.44 1000.74C1041.38 959.64 1079.59 876.79 1080.87 874.217C1082.48 871 1082.48 858.669 1082.48 854.38C1082.48 850.091 1078.19 841.513 1073.9 835.615Z" fill="#01304C"/>
<path d="M884.65 831.326C882.077 833.471 878.931 839.726 877.68 842.585C852.304 899.236 800.906 1013.5 798.333 1017.36C795.116 1022.19 796.188 1025.94 797.261 1029.16C798.119 1031.73 801.192 1033.45 802.622 1033.98L814.166 1034.06C814.371 1034.07 815.225 1033.53 817.003 1031.39C819.224 1028.72 830.295 1020.32 845.802 1014.56C858.208 1009.95 877.942 1005.93 886.258 1004.5L883.042 1001.28L947.377 857.597L963.165 826.823C926.407 826.941 895.95 827.037 894.837 827.037C892.156 827.037 887.867 828.646 884.65 831.326Z" fill="#549DBE"/>
</mask>
<g mask="url(#mask0_7_73)">
<g filter="url(#filter0_f_7_73)">
<path d="M926.761 807.302L856.14 870.661L919.48 899.904L949.33 902.119L1004.66 868.446C1002.96 854.415 996.508 822.366 984.277 806.416C972.045 790.465 952.485 785.591 944.234 785.148L926.761 807.302Z" fill="#549DBE"/>
</g>
</g>
<mask id="mask1_7_73" style="mask-type:alpha" maskUnits="userSpaceOnUse" x="1043" y="825" width="298" height="210">
<path d="M1138.25 1004.67C1138.2 1004.66 1138.15 1004.65 1138.1 1004.63C1134.94 1004.33 1130.57 1004.22 1127.16 1005.02C1121.28 1006.41 1100.5 1010.21 1089.76 1014.02C1079.03 1017.83 1062.06 1026.14 1058.25 1027.88C1055.2 1029.26 1051.67 1032.84 1050.28 1034.46C1054.09 1034.46 1189.84 1034.8 1196.42 1034.8C1203 1034.8 1235.56 1035.15 1244.56 1031.69C1251.76 1028.92 1260.03 1021.07 1263.26 1017.49C1274.34 992.784 1296.85 942.478 1298.24 938.876C1299.97 934.374 1301.36 925.716 1297.89 920.176C1295.12 915.743 1288.89 914.866 1286.12 914.981L1199.89 916.366C1198.73 916.482 1195.32 917.474 1190.88 920.522C1186.45 923.569 1182.11 933.566 1180.49 938.183C1188.34 938.183 1205.64 938.253 1212.01 938.53C1218.38 938.807 1219.05 942.801 1218.59 944.763C1211.78 958.846 1197.53 988.398 1195.04 993.939C1192.55 999.48 1186.38 1002.94 1183.61 1003.98C1171.95 1004.58 1149.48 1005.49 1141.08 1005.01C1139.75 1004.93 1138.77 1004.83 1138.25 1004.67Z" fill="#01304C"/>
<path d="M1253.22 866.845C1253.5 869.615 1244.79 888.546 1240.41 897.666C1247.45 898.127 1264.58 898.981 1276.77 898.704C1292.01 898.358 1308.97 896.627 1316.94 891.086C1324.9 885.545 1335.99 856.455 1337.02 854.377C1338.06 852.299 1342.57 838.794 1339.45 833.253C1336.96 828.82 1331.25 826.557 1328.71 825.98L1163.18 825.98C1158.33 825.98 1146.9 824.595 1138.59 829.79C1130.28 834.984 1127.16 840.179 1123.7 846.066C1120.24 851.953 1063.44 978.701 1056.86 992.9C1050.28 1007.1 1043.01 1024.76 1043.36 1027.18C1043.7 1029.61 1046.47 1034.46 1050.28 1034.46C1051.67 1032.84 1055.2 1029.26 1058.25 1027.88C1062.06 1026.14 1079.03 1017.83 1089.76 1014.02C1100.5 1010.21 1121.28 1006.41 1127.16 1005.02C1130.57 1004.22 1134.94 1004.33 1138.1 1004.63C1134.34 1003.43 1133.4 998.177 1133.4 995.67C1151.75 955.037 1189.22 872.385 1192.27 866.844C1196.08 859.918 1205.08 858.187 1209.24 857.148C1213.39 856.109 1235.56 856.802 1244.21 856.802C1252.87 856.802 1252.87 863.381 1253.22 866.845Z" fill="#549DBE"/>
</mask>
<g mask="url(#mask1_7_73)">
<g filter="url(#filter1_f_7_73)">
<path d="M1261.22 977.897C1269.09 955.659 1253.68 929.748 1212.28 947.539L1172.35 970.669L1157.22 983.419C1165.16 986.551 1177.41 998.348 1179.43 1001.75C1184.59 1010.42 1246.43 1019.68 1261.22 977.897Z" fill="#549DBE"/>
</g>
</g>
<mask id="mask2_7_73" style="mask-type:alpha" maskUnits="userSpaceOnUse" x="460" y="60" width="1009" height="774">
<path d="M511.373 833.502L517.711 819.243C524.401 806.039 538.731 778.259 542.534 772.766C547.287 765.901 576.334 722.593 583.728 715.199L583.729 715.198L583.731 715.196C591.128 707.799 614.362 684.566 624.395 676.645C627.871 673.901 633.121 669.256 639.663 663.807C640.559 660.164 642.774 651.717 644.464 647.07C646.577 641.26 659.78 615.91 664.005 605.875C668.23 595.84 690.94 562.04 695.693 553.589C699.496 546.829 718.755 526.83 727.91 517.676C730.032 514.28 737.342 505.834 751.318 495.19C758.655 487.545 775.125 470.989 782.308 465.918C791.286 459.581 796.568 455.884 814.524 445.849C832.481 435.815 876.316 416.274 891.104 409.936C905.892 403.598 927.018 391.979 919.096 394.092C911.174 396.204 874.204 396.732 868.923 397.789C863.641 398.845 807.659 404.126 792.343 404.126C777.027 404.126 728.966 416.274 712.066 421.027C695.165 425.78 652.914 446.377 623.867 464.334C594.819 482.291 557.321 522.957 541.477 545.667C525.633 568.377 509.261 614.853 501.339 642.845C493.417 670.836 495.001 740.55 495.001 751.641C495.001 760.514 499.578 809.56 501.867 832.974C503.979 834.242 509.085 833.854 511.373 833.502Z" fill="url(#paint15_radial_7_73)"/>
<path d="M762.767 487.044C789.702 469.087 809.243 456.412 831.953 449.018C848.652 443.581 868.206 438.716 884.946 435.051C896.153 431.08 924.166 421.555 946.559 415.217C974.55 407.295 1014.16 385.642 1027.89 374.551C1041.62 363.46 1068.56 342.862 1078.07 330.187C1087.57 317.512 1102.36 302.196 1111.34 290.049C1120.32 277.901 1147.78 241.988 1155.7 230.369C1163.62 218.75 1204.82 161.183 1228.58 142.17C1252.35 123.157 1273.48 104.144 1308.86 88.3001C1344.25 72.456 1362.73 68.759 1368.01 67.7027C1372.24 66.8577 1384.56 63.1255 1390.19 61.3651C1370.65 62.4213 1331.04 68.759 1298.3 82.4906C1265.55 96.2221 1229.11 115.763 1202.18 135.832C1175.24 155.902 1145.14 191.287 1139.86 198.681C1134.58 206.075 1094.44 256.776 1090.74 263.642C1087.04 270.508 1047.96 313.815 1040.04 322.265C1032.12 330.715 1005.71 350.784 990.922 359.763C976.135 368.741 955.537 378.776 933.884 380.36C912.23 381.945 892.161 380.36 884.239 375.079C876.317 369.797 872.62 368.741 864.169 361.347L863.973 361.175C855.596 353.846 847.768 346.997 844.1 335.468C840.403 323.849 844.1 304.836 847.797 292.161C851.494 279.486 863.641 264.698 867.866 259.945C872.091 255.192 891.633 241.46 897.97 238.291C904.308 235.122 925.433 228.257 929.13 228.257C932.088 228.257 936.348 229.313 938.109 229.841C940.573 228.609 943.707 225.721 936.524 224.031C927.546 221.919 910.117 220.863 891.104 220.334L890.554 220.319C871.453 219.787 838.379 218.866 792.871 230.897C746.923 243.044 732.135 248.326 722.1 252.551C712.066 256.776 675.096 273.676 643.408 294.802C611.72 315.927 580.559 348.672 573.694 355.01C566.828 361.347 534.611 399.373 529.33 409.408C524.049 419.442 509.789 442.152 501.867 455.884C493.945 469.615 477.573 521.373 474.404 531.408C471.235 541.442 463.313 595.312 462.257 607.459C461.2 619.607 460.672 646.541 461.2 656.048C461.728 665.554 461.2 687.208 466.482 721.537C471.763 755.866 478.629 778.048 482.854 790.195C487.079 802.342 499.226 831.39 501.867 832.974C499.578 809.56 495.001 760.514 495.001 751.641C495.001 740.55 493.417 670.836 501.339 642.845C509.261 614.853 525.633 568.377 541.477 545.667C557.321 522.957 594.819 482.291 623.867 464.334C652.914 446.377 695.165 425.78 712.066 421.027C728.966 416.274 777.027 404.126 792.343 404.126C807.659 404.126 863.641 398.845 868.923 397.789C874.204 396.732 911.174 396.204 919.096 394.092C927.018 391.979 905.892 403.598 891.104 409.936C876.316 416.274 832.481 435.815 814.524 445.849C796.568 455.884 791.286 459.581 782.308 465.918C775.125 470.989 758.655 487.545 751.318 495.19C754.73 492.592 758.539 489.862 762.767 487.044Z" fill="url(#paint16_linear_7_73)"/>
<path d="M901.667 431.589C920.68 427.893 956.593 426.308 969.797 425.252C983 424.196 1040.57 419.97 1060.64 414.689C1080.71 409.408 1128.77 389.867 1150.95 376.135C1173.13 362.403 1204.29 341.806 1221.72 321.209C1239.15 300.611 1266.08 265.754 1279.29 242.516C1292.49 219.278 1324.71 175.443 1335.8 162.239C1346.89 149.036 1371.18 122.101 1376.46 118.932C1381.74 115.763 1401.29 99.9191 1411.32 95.694C1421.35 91.4689 1447.23 81.9625 1453.57 80.3781C1459.91 78.7937 1466.77 75.6248 1468.36 72.456C1469.63 69.9209 1468.18 66.1183 1467.3 64.5339L1454.1 61.8932C1448.82 60.8369 1409.74 60.3088 1390.19 61.3651C1384.56 63.1255 1372.24 66.8577 1368.01 67.7027C1362.73 68.759 1344.25 72.456 1308.86 88.3001C1273.48 104.144 1252.35 123.157 1228.58 142.17C1204.82 161.183 1163.62 218.75 1155.7 230.369C1147.78 241.988 1120.32 277.901 1111.34 290.049C1102.36 302.196 1087.57 317.512 1078.07 330.187C1068.56 342.862 1041.62 363.46 1027.89 374.551C1014.16 385.642 974.55 407.295 946.559 415.217C924.166 421.555 896.153 431.08 884.946 435.051C890.973 433.732 896.634 432.568 901.667 431.589Z" fill="url(#paint17_radial_7_73)"/>
<path d="M687.243 631.754C715.235 618.55 751.148 601.122 791.814 591.087C832.481 581.052 891.104 573.658 905.364 574.187C919.624 574.715 957.122 572.602 965.572 571.018C974.022 569.433 1022.61 563.624 1038.45 558.342C1054.3 553.061 1090.21 539.858 1102.89 533.52C1115.56 527.182 1149.89 506.057 1167.85 491.797C1185.81 477.537 1215.91 448.49 1220.13 442.68C1224.36 436.871 1255.52 399.373 1257.1 394.62C1258.69 389.867 1257.63 383.529 1254.99 385.113C1252.35 386.698 1244.96 390.923 1234.92 397.789C1224.89 404.654 1194.78 425.252 1162.04 437.399C1129.29 449.546 1119.79 455.356 1087.04 457.996C1071.73 462.045 1039.51 470.46 1033.17 471.728C1030.62 472.238 1023.37 473.35 1013.67 474.835C993.262 477.963 962.048 482.747 941.277 487.044C911.823 493.138 897.506 498.744 864.05 511.844C862.713 512.367 861.345 512.903 859.944 513.451C823.503 527.711 772.273 557.814 754.317 569.433C736.36 581.052 700.975 605.347 693.053 612.741C689.903 615.68 680.882 622.982 671.806 631.885C662.62 640.897 653.36 651.533 646.96 657.858C658.317 648.82 672.331 638.788 687.243 631.754Z" fill="url(#paint18_radial_7_73)"/>
<path d="M1087.04 457.996C1054.3 460.637 1007.29 462.221 1002.54 462.221C1000.96 462.221 993.739 461.869 984.115 461.4C964.868 460.461 935.996 459.053 923.321 459.053C918.929 459.053 914.369 458.912 909.672 458.767C894.033 458.284 876.881 457.754 859.416 462.221C857.912 462.606 856.426 462.984 854.952 463.359C834.181 468.642 815.842 473.306 782.308 488.1C777.919 490.036 773.746 491.964 769.802 493.858C747.929 504.36 733.13 513.798 727.91 517.676C718.755 526.83 699.496 546.829 695.693 553.589C690.94 562.04 668.23 595.84 664.005 605.875C659.78 615.91 646.577 641.26 644.464 647.07C642.774 651.717 640.559 660.164 639.663 663.807C641.945 661.906 644.384 659.907 646.96 657.858C653.36 651.533 662.62 640.897 671.806 631.885C680.882 622.982 689.903 615.68 693.053 612.741C700.975 605.347 736.36 581.052 754.317 569.433C772.273 557.814 823.503 527.711 859.944 513.451C861.345 512.903 862.713 512.367 864.05 511.844C897.506 498.744 911.823 493.138 941.277 487.044C962.048 482.747 993.262 477.963 1013.67 474.835C1023.37 473.35 1030.62 472.238 1033.17 471.728C1039.51 470.46 1071.73 462.045 1087.04 457.996Z" fill="url(#paint19_radial_7_73)"/>
</mask>
<g mask="url(#mask2_7_73)">
<g filter="url(#filter2_f_7_73)">
<path d="M777.559 304.574C791.164 254.044 923.317 234.61 962.186 250.157L995.224 345.386C971.903 353.16 917.098 369.096 884.448 370.65C843.636 372.594 763.955 355.103 777.559 304.574Z" fill="#DBA196"/>
</g>
</g>
<path d="M650 632.5C645.2 643.7 639.466 659.818 638 665C647.66 656.02 652.5 653.5 685.5 619.5C725 585.5 757.755 570.325 787 538.5C815.116 507.903 812.781 484.646 816.5 474.5C807.582 478.167 778.052 489.7 764.262 496.5C750.472 503.3 734.008 513.667 727.5 518C726.333 518.667 723.1 520.9 719.5 524.5C715 529 700.5 546 690 560.5C679.5 575 656 618.5 650 632.5Z" fill="url(#paint20_radial_7_73)"/>
<defs>
<filter id="filter0_f_7_73" x="824.14" y="753.148" width="212.522" height="180.971" filterUnits="userSpaceOnUse" color-interpolation-filters="sRGB">
<feFlood flood-opacity="0" result="BackgroundImageFix"/>
<feBlend mode="normal" in="SourceGraphic" in2="BackgroundImageFix" result="shape"/>
<feGaussianBlur stdDeviation="16" result="effect1_foregroundBlur_7_73"/>
</filter>
<filter id="filter1_f_7_73" x="1133.22" y="917.621" width="153.982" height="115.543" filterUnits="userSpaceOnUse" color-interpolation-filters="sRGB">
<feFlood flood-opacity="0" result="BackgroundImageFix"/>
<feBlend mode="normal" in="SourceGraphic" in2="BackgroundImageFix" result="shape"/>
<feGaussianBlur stdDeviation="12" result="effect1_foregroundBlur_7_73"/>
</filter>
<filter id="filter2_f_7_73" x="728.016" y="196.932" width="315.208" height="221.863" filterUnits="userSpaceOnUse" color-interpolation-filters="sRGB">
<feFlood flood-opacity="0" result="BackgroundImageFix"/>
<feBlend mode="normal" in="SourceGraphic" in2="BackgroundImageFix" result="shape"/>
<feGaussianBlur stdDeviation="24" result="effect1_foregroundBlur_7_73"/>
</filter>
<radialGradient id="paint0_radial_7_73" cx="0" cy="0" r="1" gradientUnits="userSpaceOnUse" gradientTransform="translate(568.623 740.811) rotate(-51.5463) scale(452.188 206.493)">
<stop stop-color="#BF6264"/>
<stop offset="0.325" stop-color="#BE5B5F"/>
<stop offset="1" stop-color="#AB0020"/>
</radialGradient>
<linearGradient id="paint1_linear_7_73" x1="980.019" y1="391.906" x2="1344.55" y2="48.2079" gradientUnits="userSpaceOnUse">
<stop stop-color="#FFF0D1"/>
<stop offset="1" stop-color="#D6978E"/>
</linearGradient>
<radialGradient id="paint2_radial_7_73" cx="0" cy="0" r="1" gradientUnits="userSpaceOnUse" gradientTransform="translate(1413.58 97.9497) rotate(132.809) scale(500.071 277.477)">
<stop stop-color="#AB0020"/>
<stop offset="1" stop-color="#45000D"/>
</radialGradient>
<radialGradient id="paint3_radial_7_73" cx="0" cy="0" r="1" gradientUnits="userSpaceOnUse" gradientTransform="translate(961.186 480.37) rotate(68.0395) scale(129.92 393.708)">
<stop stop-color="#AB0020"/>
<stop offset="0.565488" stop-color="#92001B"/>
<stop offset="1" stop-color="#45000D"/>
</radialGradient>
<radialGradient id="paint4_radial_7_73" cx="0" cy="0" r="1" gradientUnits="userSpaceOnUse" gradientTransform="translate(1052.92 621.038) rotate(167.074) scale(325.919 169.851)">
<stop stop-color="#FFF0D1"/>
<stop offset="0.407726" stop-color="#FAE6C9"/>
<stop offset="1" stop-color="#C57675"/>
</radialGradient>
<linearGradient id="paint5_linear_7_73" x1="621.5" y1="750" x2="1124" y2="562.5" gradientUnits="userSpaceOnUse">
<stop stop-color="#D7595C"/>
<stop offset="1" stop-color="#721617"/>
</linearGradient>
<radialGradient id="paint6_radial_7_73" cx="0" cy="0" r="1" gradientUnits="userSpaceOnUse" gradientTransform="translate(838.749 1222.76) rotate(42.9475) scale(377.97 237.698)">
<stop stop-color="#549DBE"/>
<stop offset="1" stop-color="#274958"/>
</radialGradient>
<radialGradient id="paint7_radial_7_73" cx="0" cy="0" r="1" gradientUnits="userSpaceOnUse" gradientTransform="translate(103.727 1135.56) rotate(-1.54816) scale(301.306 321.865)">
<stop stop-color="#AB0020"/>
<stop offset="0.375" stop-color="#9D001D"/>
<stop offset="1" stop-color="#45000D"/>
</radialGradient>
<radialGradient id="paint8_radial_7_73" cx="0" cy="0" r="1" gradientUnits="userSpaceOnUse" gradientTransform="translate(700.978 1144.59) rotate(111.541) scale(519.864 178.151)">
<stop stop-color="#549DBE"/>
<stop offset="0.405" stop-color="#4E92B1"/>
<stop offset="0.72" stop-color="#3F768F"/>
<stop offset="1" stop-color="#274958"/>
</radialGradient>
<radialGradient id="paint9_radial_7_73" cx="0" cy="0" r="1" gradientUnits="userSpaceOnUse" gradientTransform="translate(571.802 993.106) rotate(142.853) scale(337.018 279.668)">
<stop stop-color="#45000D"/>
<stop offset="1" stop-color="#AB0020"/>
</radialGradient>
<radialGradient id="paint10_radial_7_73" cx="0" cy="0" r="1" gradientUnits="userSpaceOnUse" gradientTransform="translate(1376.03 823.757) rotate(70.9715) scale(224.606 256.531)">
<stop stop-color="#549DBE"/>
<stop offset="0.834944" stop-color="#01304C"/>
</radialGradient>
<radialGradient id="paint11_radial_7_73" cx="0" cy="0" r="1" gradientUnits="userSpaceOnUse" gradientTransform="translate(1268.25 1143.08) rotate(10.9541) scale(306.823 61.1255)">
<stop offset="0.0714142" stop-color="#549DBE"/>
<stop offset="1" stop-color="#01304C"/>
</radialGradient>
<radialGradient id="paint12_radial_7_73" cx="0" cy="0" r="1" gradientUnits="userSpaceOnUse" gradientTransform="translate(1268.25 1143.08) rotate(10.9541) scale(306.823 61.1255)">
<stop offset="0.0714142" stop-color="#549DBE"/>
<stop offset="1" stop-color="#01304C"/>
</radialGradient>
<radialGradient id="paint13_radial_7_73" cx="0" cy="0" r="1" gradientUnits="userSpaceOnUse" gradientTransform="translate(1268.25 1143.08) rotate(10.9541) scale(306.823 61.1255)">
<stop offset="0.0714142" stop-color="#549DBE"/>
<stop offset="1" stop-color="#01304C"/>
</radialGradient>
<radialGradient id="paint14_radial_7_73" cx="0" cy="0" r="1" gradientUnits="userSpaceOnUse" gradientTransform="translate(1268.25 1143.08) rotate(10.9541) scale(306.823 61.1255)">
<stop offset="0.0714142" stop-color="#549DBE"/>
<stop offset="1" stop-color="#01304C"/>
</radialGradient>
<radialGradient id="paint15_radial_7_73" cx="0" cy="0" r="1" gradientUnits="userSpaceOnUse" gradientTransform="translate(964.925 447.318) scale(503.932 386.529)">
<stop stop-color="#BF6264"/>
<stop offset="0.325" stop-color="#BE5B5F"/>
<stop offset="1" stop-color="#AB0020"/>
</radialGradient>
<linearGradient id="paint16_linear_7_73" x1="980.019" y1="391.906" x2="1344.55" y2="48.2079" gradientUnits="userSpaceOnUse">
<stop stop-color="#FFF0D1"/>
<stop offset="1" stop-color="#D6978E"/>
</linearGradient>
<radialGradient id="paint17_radial_7_73" cx="0" cy="0" r="1" gradientUnits="userSpaceOnUse" gradientTransform="translate(1413.58 97.9497) rotate(132.809) scale(500.071 277.477)">
<stop stop-color="#AB0020"/>
<stop offset="1" stop-color="#45000D"/>
</radialGradient>
<radialGradient id="paint18_radial_7_73" cx="0" cy="0" r="1" gradientUnits="userSpaceOnUse" gradientTransform="translate(961.186 480.37) rotate(68.0395) scale(129.92 393.708)">
<stop stop-color="#AB0020"/>
<stop offset="0.565488" stop-color="#92001B"/>
<stop offset="1" stop-color="#45000D"/>
</radialGradient>
<radialGradient id="paint19_radial_7_73" cx="0" cy="0" r="1" gradientUnits="userSpaceOnUse" gradientTransform="translate(964.925 447.318) scale(503.932 386.529)">
<stop stop-color="#BF6264"/>
<stop offset="0.325" stop-color="#BE5B5F"/>
<stop offset="1" stop-color="#AB0020"/>
</radialGradient>
<radialGradient id="paint20_radial_7_73" cx="0" cy="0" r="1" gradientUnits="userSpaceOnUse" gradientTransform="translate(668 592) rotate(-45.6832) scale(207.551 62.2048)">
<stop stop-color="#763341"/>
<stop offset="0.502428" stop-color="#863A4A" stop-opacity="0.838393"/>
<stop offset="0.838366" stop-color="#D25B74" stop-opacity="0.095"/>
<stop offset="1" stop-color="#DC5F79" stop-opacity="0"/>
</radialGradient>
</defs>
</svg>
