<svg width="1489" height="1609" viewBox="0 0 1489 1609" fill="none" xmlns="http://www.w3.org/2000/svg">
<path d="M481.864 822.713L488.201 808.453C494.891 795.25 509.221 767.47 513.024 761.977C517.777 755.111 546.825 711.804 554.218 704.41L554.219 704.409L554.221 704.407C561.618 697.01 584.852 673.777 594.885 665.856C598.361 663.112 603.611 658.466 610.153 653.018C611.049 649.375 613.264 640.928 614.954 636.28C617.067 630.471 630.27 605.12 634.495 595.086C638.721 585.051 661.43 551.25 666.184 542.8C669.986 536.04 689.246 516.041 698.4 506.887C700.523 503.49 707.832 495.044 721.809 484.4C729.146 476.756 745.616 460.199 752.798 455.129C761.777 448.791 767.058 445.095 785.015 435.06C802.971 425.025 846.81 405.484 861.59 399.147C876.38 392.809 897.51 381.19 889.59 383.302C881.66 385.415 844.69 385.943 839.41 386.999C834.13 388.056 778.149 393.337 762.833 393.337C747.517 393.337 699.456 405.484 682.556 410.237C665.656 414.991 623.405 435.588 594.357 453.545C565.309 471.501 527.812 512.168 511.967 534.878C496.123 557.588 479.751 604.064 471.829 632.055C463.907 660.047 465.491 729.761 465.491 740.852C465.491 749.724 470.069 798.771 472.357 822.185C474.47 823.452 479.575 823.065 481.864 822.713Z" fill="url(#paint0_radial_393_300)"/>
<path d="M733.257 476.255C760.192 458.298 779.733 445.623 802.443 438.229C819.14 432.792 838.7 427.926 855.44 424.262C866.64 420.291 894.66 410.766 917.05 404.428C945.04 396.506 984.65 374.852 998.38 363.761C1012.11 352.67 1039.05 332.073 1048.56 319.398C1058.06 306.722 1072.85 291.407 1081.83 279.259C1090.81 267.112 1118.27 231.199 1126.19 219.58C1134.11 207.961 1175.31 150.394 1199.07 131.381C1222.84 112.368 1243.97 93.355 1279.35 77.5108C1314.74 61.6666 1333.22 57.9697 1338.5 56.9134C1342.73 56.0684 1355.05 52.3362 1360.68 50.5758C1341.14 51.632 1301.53 57.9697 1268.79 71.7013C1236.04 85.4328 1199.6 104.974 1172.67 125.043C1145.73 145.112 1115.63 180.498 1110.35 187.892C1105.07 195.285 1064.93 245.987 1061.23 252.852C1057.53 259.718 1018.45 303.026 1010.53 311.476C1002.61 319.926 976.2 339.995 961.41 348.974C946.62 357.952 926.03 367.986 904.37 369.571C882.72 371.155 862.65 369.571 854.73 364.289C846.81 359.008 843.11 357.952 834.66 350.558L834.46 350.386C826.09 343.057 818.26 336.208 814.59 324.679C810.893 313.06 814.59 294.047 818.29 281.372C821.98 268.697 834.13 253.909 838.36 249.155C842.58 244.402 862.12 230.671 868.46 227.502C874.8 224.333 895.92 217.467 899.62 217.467C902.58 217.467 906.84 218.524 908.6 219.052C911.06 217.819 914.2 214.932 907.01 213.242C898.04 211.13 880.61 210.073 861.59 209.545L861.04 209.53C841.94 208.998 808.869 208.077 763.361 220.108C717.413 232.255 702.625 237.536 692.591 241.762C682.556 245.987 645.586 262.887 613.898 284.013C582.21 305.138 551.05 337.883 544.184 344.22C537.318 350.558 505.102 388.584 499.82 398.618C494.539 408.653 480.279 431.363 472.357 445.095C464.435 458.826 448.063 510.584 444.894 520.618C441.725 530.653 433.803 584.523 432.747 596.67C431.691 608.817 431.162 635.752 431.691 645.259C432.219 654.765 431.691 676.419 436.972 710.748C442.253 745.077 449.119 767.258 453.344 779.406C457.569 791.553 469.716 820.6 472.357 822.185C470.069 798.771 465.491 749.724 465.491 740.852C465.491 729.761 463.907 660.047 471.829 632.055C479.751 604.064 496.123 557.588 511.967 534.878C527.812 512.168 565.309 471.501 594.357 453.545C623.405 435.588 665.656 414.991 682.556 410.237C699.456 405.484 747.517 393.337 762.833 393.337C778.149 393.337 834.13 388.056 839.41 386.999C844.69 385.943 881.66 385.415 889.59 383.302C897.51 381.19 876.38 392.809 861.59 399.147C846.81 405.484 802.971 425.025 785.015 435.06C767.058 445.095 761.777 448.791 752.798 455.129C745.616 460.199 729.146 476.756 721.809 484.4C725.22 481.802 729.029 479.073 733.257 476.255Z" fill="url(#paint1_linear_393_300)"/>
<path d="M872.16 420.8C891.17 417.103 927.08 415.519 940.29 414.463C953.49 413.406 1011.06 409.181 1031.13 403.9C1051.2 398.618 1099.26 379.077 1121.44 365.346C1143.62 351.614 1174.78 331.017 1192.21 310.419C1209.64 289.822 1236.57 254.965 1249.78 231.727C1262.98 208.489 1295.2 164.653 1306.29 151.45C1317.38 138.247 1341.67 111.312 1346.95 108.143C1352.23 104.974 1371.78 89.13 1381.81 84.9047C1391.84 80.6796 1417.72 71.1732 1424.06 69.5888C1430.4 68.0044 1437.26 64.8355 1438.85 61.6667C1440.12 59.1316 1438.67 55.329 1437.79 53.7446L1424.59 51.1039C1419.31 50.0476 1380.23 49.5195 1360.68 50.5758C1355.05 52.3362 1342.73 56.0684 1338.5 56.9134C1333.22 57.9697 1314.74 61.6666 1279.35 77.5108C1243.97 93.355 1222.84 112.368 1199.07 131.381C1175.31 150.394 1134.11 207.961 1126.19 219.58C1118.27 231.199 1090.81 267.112 1081.83 279.259C1072.85 291.407 1058.06 306.722 1048.56 319.398C1039.05 332.073 1012.11 352.67 998.38 363.761C984.65 374.852 945.04 396.506 917.05 404.428C894.66 410.766 866.64 420.291 855.44 424.262C861.46 422.942 867.12 421.779 872.16 420.8Z" fill="url(#paint2_radial_393_300)"/>
<path d="M657.733 620.964C685.725 607.761 721.638 590.332 762.305 580.298C802.971 570.263 861.59 562.869 875.85 563.397C890.11 563.925 927.61 561.813 936.06 560.228C944.51 558.644 993.1 552.835 1008.94 547.553C1024.79 542.272 1060.7 529.068 1073.38 522.731C1086.05 516.393 1120.38 495.268 1138.34 481.008C1156.3 466.748 1186.4 437.701 1190.62 431.891C1194.85 426.082 1226.01 388.584 1227.59 383.831C1229.18 379.077 1228.12 372.74 1225.48 374.324C1222.84 375.909 1215.45 380.134 1205.41 386.999C1195.38 393.865 1165.27 414.463 1132.53 426.61C1099.78 438.757 1090.28 444.566 1057.53 447.207C1042.22 451.256 1010 459.671 1003.66 460.939C1001.11 461.449 993.86 462.561 984.17 464.046C963.75 467.174 932.54 471.957 911.77 476.255C882.31 482.349 868 487.954 834.54 501.054C833.2 501.578 831.84 502.113 830.43 502.662C793.993 516.921 742.764 547.025 724.807 558.644C706.85 570.263 671.465 594.557 663.543 601.951C660.393 604.891 651.372 612.192 642.296 621.096C633.111 630.108 623.851 640.743 617.451 647.068C628.807 638.031 642.821 627.999 657.733 620.964Z" fill="url(#paint3_radial_393_300)"/>
<path d="M1057.53 447.207C1024.79 449.848 977.78 451.432 973.03 451.432C971.45 451.432 964.23 451.08 954.61 450.611C935.36 449.672 906.49 448.263 893.81 448.263C889.42 448.263 884.86 448.122 880.16 447.977C864.52 447.494 847.37 446.964 829.91 451.432C828.4 451.817 826.92 452.195 825.44 452.57C804.671 457.852 786.333 462.516 752.798 477.311C748.409 479.247 744.236 481.175 740.292 483.069C718.42 493.57 703.62 503.009 698.4 506.887C689.246 516.041 669.986 536.04 666.184 542.8C661.43 551.25 638.721 585.051 634.495 595.086C630.27 605.12 617.067 630.471 614.954 636.28C613.264 640.928 611.049 649.375 610.153 653.018C612.435 651.117 614.875 649.118 617.451 647.068C623.851 640.743 633.111 630.108 642.296 621.096C651.372 612.192 660.393 604.891 663.543 601.951C671.465 594.557 706.85 570.263 724.807 558.644C742.764 547.025 793.993 516.921 830.43 502.662C831.84 502.113 833.2 501.578 834.54 501.054C868 487.954 882.31 482.349 911.77 476.255C932.54 471.957 963.75 467.174 984.17 464.046C993.86 462.561 1001.11 461.449 1003.66 460.939C1010 459.671 1042.22 451.256 1057.53 447.207Z" fill="#FFF0D1"/>
<path d="M572.49 802.211C579.99 797.211 597.19 786.011 605.99 781.211C616.99 775.211 644.99 758.211 652.99 755.711C660.99 753.211 688.49 742.711 695.49 740.711C702.49 738.711 734.49 733.711 737.99 733.711C741.49 733.711 766.376 731.461 774.317 731.461C780.669 731.461 802.298 733.351 812.318 734.296C824.04 736.376 848.96 740.535 854.86 740.535C862.23 740.535 880.95 739.401 892.86 738.267C904.77 737.132 915.55 735.431 924.62 733.729C933.69 732.028 956.38 727.49 968.86 722.386C981.34 717.281 1022.18 699.698 1028.41 694.594C1034.65 689.489 1066.98 668.503 1074.36 661.13C1081.73 653.757 1102.71 632.204 1110.66 619.159C1118.6 606.114 1132.78 583.426 1135.61 577.187C1138.45 570.948 1144.12 559.037 1145.25 550.53C1146.39 542.022 1149.22 538.619 1145.82 535.783C1142.42 532.947 1141.28 529.544 1133.91 535.216C1126.54 540.888 1106.69 553.933 1098.74 556.769C1090.8 559.605 1053.37 572.083 1047.7 573.784C1042.03 575.486 1017.07 583.426 1008.56 583.993C1006.74 584.115 1003.71 584.211 1000.03 584.275C963.93 592.121 878.22 613.033 824.23 633.905C756.734 659.996 679.598 705.37 650.104 725.222C626.51 741.103 587.05 780.643 570.27 798.429C570.939 800.046 571.843 801.421 572.49 802.211Z" fill="url(#paint4_radial_393_300)"/>
<path d="M960.35 583.426C955.25 582.292 913.84 578.322 899.66 578.889C885.48 579.456 848.62 580.023 826.5 586.262C804.378 592.501 778.854 598.74 751.063 612.92C723.271 627.099 699.449 642.98 687.538 652.622C675.627 662.264 657.478 678.713 648.97 686.653C640.462 694.594 604.73 732.595 594.521 749.043C584.311 765.491 570.699 788.179 569.565 792.716C569.091 794.611 569.54 796.664 570.27 798.429C587.05 780.643 626.51 741.103 650.104 725.222C679.598 705.37 756.734 659.996 824.23 633.905C878.22 613.033 963.93 592.121 1000.03 584.275C986.56 584.508 964.36 584.317 960.35 583.426Z" fill="url(#paint5_linear_393_300)"/>
<path fill-rule="evenodd" clip-rule="evenodd" d="M915.12 1361.19C911.29 1365.37 905.01 1369.83 895.49 1372.21C884.29 1375.01 871.16 1369.04 865.99 1365.71L645.829 1200.21L576.99 1313.21C671.324 1338.21 861.19 1388.31 865.99 1388.71C866.44 1388.75 867.59 1388.86 867.59 1388.86C867.59 1388.86 894.31 1391.42 904.49 1381.71C911.94 1374.6 914.35 1366.57 915.12 1361.19Z" fill="#01304C"/>
<path d="M915.49 1355.71C915.49 1353.31 908.16 1341.04 904.49 1335.21L709.49 1095.71L645.829 1200.21L865.99 1365.71C871.16 1369.04 884.29 1375.01 895.49 1372.21C905.01 1369.83 911.29 1365.37 915.12 1361.19C915.49 1358.63 915.49 1356.68 915.49 1355.71Z" fill="url(#paint6_radial_393_300)"/>
<path d="M72.99 1162.21L315.99 1233.21L295.117 1117.71L80.49 1147.71C76.324 1148.54 62.548 1145.16 59.99 1142.21C53.49 1134.71 52.99 1137.71 50.49 1137.71C54.09 1153.71 66.99 1160.71 72.99 1162.21Z" fill="url(#paint7_radial_393_300)"/>
<path d="M72.99 1102.71C63.99 1107.71 46.89 1121.71 50.49 1137.71C52.99 1137.71 53.49 1134.71 59.99 1142.21C62.548 1145.16 76.324 1148.54 80.49 1147.71L295.117 1117.71L270.99 984.211L72.99 1102.71Z" fill="#FFF0D1"/>
<path d="M315.99 660.711C309.157 658.711 292.49 655.911 280.49 660.711C265.49 666.711 261.49 680.711 260.99 686.711C260.59 691.511 276.824 881.044 284.99 975.211L332.49 1241.21L353.49 1526.21C355.157 1535.04 361.09 1553.61 371.49 1557.21C384.49 1561.71 405.99 1561.21 414.49 1553.21C421.29 1546.81 624.657 1206.54 725.49 1037.21C764.49 955.877 842.69 791.811 843.49 786.211C844.49 779.211 846.49 767.711 835.49 753.711C824.49 739.711 800.99 745.211 795.49 747.211C791.09 748.811 605.99 839.544 513.99 884.711C455.99 817.211 338.99 681.011 334.99 676.211C330.99 671.411 320.657 663.877 315.99 660.711Z" fill="#01304C"/>
<path d="M513.99 884.711L489.99 1080.21L400.99 1520.71C397.99 1526.38 391.49 1538.51 389.49 1541.71C386.99 1545.71 377.99 1553.71 374.99 1555.21C373.1 1556.16 370.88 1556.34 369.452 1556.29C370.111 1556.66 370.791 1556.97 371.49 1557.21C384.49 1561.71 405.99 1561.21 414.49 1553.21C421.29 1546.81 624.657 1206.54 725.49 1037.21C764.49 955.877 842.69 791.811 843.49 786.211C843.52 786.031 843.54 785.849 843.57 785.664C844.58 778.62 846.21 767.352 835.49 753.711C824.49 739.711 800.99 745.211 795.49 747.211C791.09 748.811 605.99 839.544 513.99 884.711Z" fill="url(#paint8_radial_393_300)"/>
<path d="M315.49 663.711C317.893 663.711 321.949 665.59 324.949 667.231C328.884 670.281 332.847 673.638 334.99 676.211C338.984 681.004 455.643 816.806 513.731 884.409L513.49 884.711L490.102 1080.1C490.064 1080.14 490.027 1080.17 489.99 1080.21C447.99 995.38 360.79 819.011 347.99 792.211C331.99 758.711 301.99 686.711 299.49 680.711C296.99 674.711 293.49 664.711 299.49 663.711C303.674 663.013 307.857 663.288 311.362 663.519C312.885 663.619 314.279 663.711 315.49 663.711Z" fill="url(#paint9_radial_393_300)"/>
<path d="M513.731 884.409L513.49 884.711L490.102 1080.1C592.306 980.732 797.692 780.909 802.49 775.711C803.564 774.547 804.718 773.384 805.895 772.197C811.293 766.756 817.17 760.831 817.99 752.211C818.38 748.138 815.1 745.781 810.762 744.491C803.905 744.749 797.929 746.324 795.49 747.211C791.64 748.611 649.442 818.253 552.319 865.9C538.445 872.707 525.49 879.065 513.99 884.711C513.904 884.61 513.818 884.51 513.731 884.409Z" fill="#FFF0D1"/>
<mask id="mask0_393_300" style="mask-type:alpha" maskUnits="userSpaceOnUse" x="431" y="50" width="1009" height="774">
<path d="M481.864 822.713L488.201 808.453C494.891 795.25 509.221 767.47 513.024 761.977C517.777 755.111 546.825 711.804 554.218 704.41L554.219 704.409L554.221 704.407C561.618 697.01 584.852 673.777 594.885 665.856C598.361 663.112 603.611 658.466 610.153 653.018C611.049 649.375 613.264 640.928 614.954 636.28C617.067 630.471 630.27 605.12 634.495 595.086C638.721 585.051 661.43 551.25 666.184 542.8C669.986 536.04 689.246 516.041 698.4 506.887C700.523 503.49 707.832 495.044 721.809 484.4C729.146 476.756 745.616 460.199 752.798 455.129C761.777 448.791 767.058 445.095 785.015 435.06C802.971 425.025 846.81 405.484 861.59 399.147C876.38 392.809 897.51 381.19 889.59 383.302C881.66 385.415 844.69 385.943 839.41 386.999C834.13 388.056 778.149 393.337 762.833 393.337C747.517 393.337 699.456 405.484 682.556 410.237C665.656 414.991 623.405 435.588 594.357 453.545C565.309 471.501 527.812 512.168 511.967 534.878C496.123 557.588 479.751 604.064 471.829 632.055C463.907 660.047 465.491 729.761 465.491 740.852C465.491 749.724 470.069 798.771 472.357 822.185C474.47 823.452 479.575 823.065 481.864 822.713Z" fill="url(#paint10_radial_393_300)"/>
<path d="M733.257 476.255C760.192 458.298 779.733 445.623 802.443 438.229C819.14 432.792 838.7 427.926 855.44 424.262C866.64 420.291 894.66 410.766 917.05 404.428C945.04 396.506 984.65 374.852 998.38 363.761C1012.11 352.67 1039.05 332.073 1048.56 319.398C1058.06 306.722 1072.85 291.407 1081.83 279.259C1090.81 267.112 1118.27 231.199 1126.19 219.58C1134.11 207.961 1175.31 150.394 1199.07 131.381C1222.84 112.368 1243.97 93.355 1279.35 77.5108C1314.74 61.6666 1333.22 57.9697 1338.5 56.9134C1342.73 56.0684 1355.05 52.3362 1360.68 50.5758C1341.14 51.632 1301.53 57.9697 1268.79 71.7013C1236.04 85.4328 1199.6 104.974 1172.67 125.043C1145.73 145.112 1115.63 180.498 1110.35 187.892C1105.07 195.285 1064.93 245.987 1061.23 252.852C1057.53 259.718 1018.45 303.026 1010.53 311.476C1002.61 319.926 976.2 339.995 961.41 348.974C946.62 357.952 926.03 367.986 904.37 369.571C882.72 371.155 862.65 369.571 854.73 364.289C846.81 359.008 843.11 357.952 834.66 350.558L834.46 350.386C826.09 343.057 818.26 336.208 814.59 324.679C810.893 313.06 814.59 294.047 818.29 281.372C821.98 268.697 834.13 253.909 838.36 249.155C842.58 244.402 862.12 230.671 868.46 227.502C874.8 224.333 895.92 217.467 899.62 217.467C902.58 217.467 906.84 218.524 908.6 219.052C911.06 217.819 914.2 214.932 907.01 213.242C898.04 211.13 880.61 210.073 861.59 209.545L861.04 209.53C841.94 208.998 808.869 208.077 763.361 220.108C717.413 232.255 702.625 237.536 692.591 241.762C682.556 245.987 645.586 262.887 613.898 284.013C582.21 305.138 551.05 337.883 544.184 344.22C537.318 350.558 505.102 388.584 499.82 398.618C494.539 408.653 480.279 431.363 472.357 445.095C464.435 458.826 448.063 510.584 444.894 520.618C441.725 530.653 433.803 584.523 432.747 596.67C431.691 608.817 431.162 635.752 431.691 645.259C432.219 654.765 431.691 676.419 436.972 710.748C442.253 745.077 449.119 767.258 453.344 779.406C457.569 791.553 469.716 820.6 472.357 822.185C470.069 798.771 465.491 749.724 465.491 740.852C465.491 729.761 463.907 660.047 471.829 632.055C479.751 604.064 496.123 557.588 511.967 534.878C527.812 512.168 565.309 471.501 594.357 453.545C623.405 435.588 665.656 414.991 682.556 410.237C699.456 405.484 747.517 393.337 762.833 393.337C778.149 393.337 834.13 388.056 839.41 386.999C844.69 385.943 881.66 385.415 889.59 383.302C897.51 381.19 876.38 392.809 861.59 399.147C846.81 405.484 802.971 425.025 785.015 435.06C767.058 445.095 761.777 448.791 752.798 455.129C745.616 460.199 729.146 476.756 721.809 484.4C725.22 481.802 729.029 479.073 733.257 476.255Z" fill="url(#paint11_linear_393_300)"/>
<path d="M872.16 420.8C891.17 417.103 927.08 415.519 940.29 414.463C953.49 413.406 1011.06 409.181 1031.13 403.9C1051.2 398.618 1099.26 379.077 1121.44 365.346C1143.62 351.614 1174.78 331.017 1192.21 310.419C1209.64 289.822 1236.57 254.965 1249.78 231.727C1262.98 208.489 1295.2 164.653 1306.29 151.45C1317.38 138.247 1341.67 111.312 1346.95 108.143C1352.23 104.974 1371.78 89.13 1381.81 84.9047C1391.84 80.6796 1417.72 71.1732 1424.06 69.5888C1430.4 68.0044 1437.26 64.8355 1438.85 61.6667C1440.12 59.1316 1438.67 55.329 1437.79 53.7446L1424.59 51.1039C1419.31 50.0476 1380.23 49.5195 1360.68 50.5758C1355.05 52.3362 1342.73 56.0684 1338.5 56.9134C1333.22 57.9697 1314.74 61.6666 1279.35 77.5108C1243.97 93.355 1222.84 112.368 1199.07 131.381C1175.31 150.394 1134.11 207.961 1126.19 219.58C1118.27 231.199 1090.81 267.112 1081.83 279.259C1072.85 291.407 1058.06 306.722 1048.56 319.398C1039.05 332.073 1012.11 352.67 998.38 363.761C984.65 374.852 945.04 396.506 917.05 404.428C894.66 410.766 866.64 420.291 855.44 424.262C861.46 422.942 867.12 421.779 872.16 420.8Z" fill="url(#paint12_radial_393_300)"/>
<path d="M657.733 620.964C685.725 607.761 721.638 590.332 762.305 580.298C802.971 570.263 861.59 562.869 875.85 563.397C890.11 563.925 927.61 561.813 936.06 560.228C944.51 558.644 993.1 552.835 1008.94 547.553C1024.79 542.272 1060.7 529.068 1073.38 522.731C1086.05 516.393 1120.38 495.268 1138.34 481.008C1156.3 466.748 1186.4 437.701 1190.62 431.891C1194.85 426.082 1226.01 388.584 1227.59 383.831C1229.18 379.077 1228.12 372.74 1225.48 374.324C1222.84 375.909 1215.45 380.134 1205.41 386.999C1195.38 393.865 1165.27 414.463 1132.53 426.61C1099.78 438.757 1090.28 444.566 1057.53 447.207C1042.22 451.256 1010 459.671 1003.66 460.939C1001.11 461.449 993.86 462.561 984.17 464.046C963.75 467.174 932.54 471.957 911.77 476.255C882.31 482.349 868 487.954 834.54 501.054C833.2 501.578 831.84 502.113 830.43 502.662C793.993 516.921 742.764 547.025 724.807 558.644C706.85 570.263 671.465 594.557 663.543 601.951C660.393 604.891 651.372 612.192 642.296 621.096C633.111 630.108 623.851 640.743 617.451 647.068C628.807 638.031 642.821 627.999 657.733 620.964Z" fill="url(#paint13_radial_393_300)"/>
<path d="M1057.53 447.207C1024.79 449.848 977.78 451.432 973.03 451.432C971.45 451.432 964.23 451.08 954.61 450.611C935.36 449.672 906.49 448.263 893.81 448.263C889.42 448.263 884.86 448.122 880.16 447.977C864.52 447.494 847.37 446.964 829.91 451.432C828.4 451.817 826.92 452.195 825.44 452.57C804.671 457.852 786.333 462.516 752.798 477.311C748.409 479.247 744.236 481.175 740.292 483.069C718.42 493.57 703.62 503.009 698.4 506.887C689.246 516.041 669.986 536.04 666.184 542.8C661.43 551.25 638.721 585.051 634.495 595.086C630.27 605.12 617.067 630.471 614.954 636.28C613.264 640.928 611.049 649.375 610.153 653.018C612.435 651.117 614.875 649.118 617.451 647.068C623.851 640.743 633.111 630.108 642.296 621.096C651.372 612.192 660.393 604.891 663.543 601.951C671.465 594.557 706.85 570.263 724.807 558.644C742.764 547.025 793.993 516.921 830.43 502.662C831.84 502.113 833.2 501.578 834.54 501.054C868 487.954 882.31 482.349 911.77 476.255C932.54 471.957 963.75 467.174 984.17 464.046C993.86 462.561 1001.11 461.449 1003.66 460.939C1010 459.671 1042.22 451.256 1057.53 447.207Z" fill="url(#paint14_radial_393_300)"/>
</mask>
<g mask="url(#mask0_393_300)">
<g filter="url(#filter0_f_393_300)">
<path d="M748.05 293.784C761.654 243.255 893.81 223.821 932.68 239.368L965.71 334.596C942.39 342.37 887.59 358.306 854.94 359.861C814.13 361.805 734.446 344.314 748.05 293.784Z" fill="#DBA196"/>
</g>
</g>
<path d="M620.49 621.711C615.69 632.911 609.956 649.029 608.49 654.211C618.151 645.231 622.99 642.711 655.99 608.711C695.49 574.711 728.246 559.536 757.49 527.711C785.606 497.114 783.271 473.857 786.99 463.711C778.072 467.377 748.543 478.911 734.752 485.711C720.962 492.511 704.498 502.877 697.99 507.211C696.824 507.877 693.59 510.111 689.99 513.711C685.49 518.211 670.99 535.211 660.49 549.711C649.99 564.211 626.49 607.711 620.49 621.711Z" fill="url(#paint15_radial_393_300)"/>
<defs>
<filter id="filter0_f_393_300" x="698.506" y="186.142" width="315.204" height="221.863" filterUnits="userSpaceOnUse" color-interpolation-filters="sRGB">
<feFlood flood-opacity="0" result="BackgroundImageFix"/>
<feBlend mode="normal" in="SourceGraphic" in2="BackgroundImageFix" result="shape"/>
<feGaussianBlur stdDeviation="24" result="effect1_foregroundBlur_393_300"/>
</filter>
<radialGradient id="paint0_radial_393_300" cx="0" cy="0" r="1" gradientUnits="userSpaceOnUse" gradientTransform="translate(539.113 730.022) rotate(-51.5463) scale(452.188 206.493)">
<stop stop-color="#BF6264"/>
<stop offset="0.325" stop-color="#BE5B5F"/>
<stop offset="1" stop-color="#AB0020"/>
</radialGradient>
<linearGradient id="paint1_linear_393_300" x1="950.51" y1="381.117" x2="1315.04" y2="37.4186" gradientUnits="userSpaceOnUse">
<stop stop-color="#FFF0D1"/>
<stop offset="1" stop-color="#D6978E"/>
</linearGradient>
<radialGradient id="paint2_radial_393_300" cx="0" cy="0" r="1" gradientUnits="userSpaceOnUse" gradientTransform="translate(1384.07 87.1604) rotate(132.809) scale(500.071 277.477)">
<stop stop-color="#AB0020"/>
<stop offset="1" stop-color="#45000D"/>
</radialGradient>
<radialGradient id="paint3_radial_393_300" cx="0" cy="0" r="1" gradientUnits="userSpaceOnUse" gradientTransform="translate(931.68 469.58) rotate(68.0395) scale(129.92 393.708)">
<stop stop-color="#AB0020"/>
<stop offset="0.565488" stop-color="#92001B"/>
<stop offset="1" stop-color="#45000D"/>
</radialGradient>
<radialGradient id="paint4_radial_393_300" cx="0" cy="0" r="1" gradientUnits="userSpaceOnUse" gradientTransform="translate(1023.41 610.249) rotate(167.074) scale(325.919 169.851)">
<stop stop-color="#FFF0D1"/>
<stop offset="0.407726" stop-color="#FAE6C9"/>
<stop offset="1" stop-color="#C57675"/>
</radialGradient>
<linearGradient id="paint5_linear_393_300" x1="591.99" y1="739.211" x2="1094.49" y2="551.711" gradientUnits="userSpaceOnUse">
<stop stop-color="#D7595C"/>
<stop offset="1" stop-color="#721617"/>
</linearGradient>
<radialGradient id="paint6_radial_393_300" cx="0" cy="0" r="1" gradientUnits="userSpaceOnUse" gradientTransform="translate(809.24 1211.97) rotate(42.9475) scale(377.97 237.698)">
<stop stop-color="#549DBE"/>
<stop offset="1" stop-color="#274958"/>
</radialGradient>
<radialGradient id="paint7_radial_393_300" cx="0" cy="0" r="1" gradientUnits="userSpaceOnUse" gradientTransform="translate(74.218 1124.77) rotate(-1.54816) scale(301.306 321.865)">
<stop stop-color="#AB0020"/>
<stop offset="0.375" stop-color="#9D001D"/>
<stop offset="1" stop-color="#45000D"/>
</radialGradient>
<radialGradient id="paint8_radial_393_300" cx="0" cy="0" r="1" gradientUnits="userSpaceOnUse" gradientTransform="translate(671.468 1133.8) rotate(111.541) scale(519.864 178.151)">
<stop stop-color="#549DBE"/>
<stop offset="0.405" stop-color="#4E92B1"/>
<stop offset="0.72" stop-color="#3F768F"/>
<stop offset="1" stop-color="#274958"/>
</radialGradient>
<radialGradient id="paint9_radial_393_300" cx="0" cy="0" r="1" gradientUnits="userSpaceOnUse" gradientTransform="translate(542.292 982.317) rotate(142.853) scale(337.018 279.668)">
<stop stop-color="#45000D"/>
<stop offset="1" stop-color="#AB0020"/>
</radialGradient>
<radialGradient id="paint10_radial_393_300" cx="0" cy="0" r="1" gradientUnits="userSpaceOnUse" gradientTransform="translate(935.42 436.529) scale(503.932 386.529)">
<stop stop-color="#BF6264"/>
<stop offset="0.325" stop-color="#BE5B5F"/>
<stop offset="1" stop-color="#AB0020"/>
</radialGradient>
<linearGradient id="paint11_linear_393_300" x1="950.51" y1="381.117" x2="1315.04" y2="37.4186" gradientUnits="userSpaceOnUse">
<stop stop-color="#FFF0D1"/>
<stop offset="1" stop-color="#D6978E"/>
</linearGradient>
<radialGradient id="paint12_radial_393_300" cx="0" cy="0" r="1" gradientUnits="userSpaceOnUse" gradientTransform="translate(1384.07 87.1604) rotate(132.809) scale(500.071 277.477)">
<stop stop-color="#AB0020"/>
<stop offset="1" stop-color="#45000D"/>
</radialGradient>
<radialGradient id="paint13_radial_393_300" cx="0" cy="0" r="1" gradientUnits="userSpaceOnUse" gradientTransform="translate(931.68 469.58) rotate(68.0395) scale(129.92 393.708)">
<stop stop-color="#AB0020"/>
<stop offset="0.565488" stop-color="#92001B"/>
<stop offset="1" stop-color="#45000D"/>
</radialGradient>
<radialGradient id="paint14_radial_393_300" cx="0" cy="0" r="1" gradientUnits="userSpaceOnUse" gradientTransform="translate(935.42 436.529) scale(503.932 386.529)">
<stop stop-color="#BF6264"/>
<stop offset="0.325" stop-color="#BE5B5F"/>
<stop offset="1" stop-color="#AB0020"/>
</radialGradient>
<radialGradient id="paint15_radial_393_300" cx="0" cy="0" r="1" gradientUnits="userSpaceOnUse" gradientTransform="translate(638.49 581.211) rotate(-45.6832) scale(207.551 62.2048)">
<stop stop-color="#763341"/>
<stop offset="0.502428" stop-color="#863A4A" stop-opacity="0.838393"/>
<stop offset="0.838366" stop-color="#D25B74" stop-opacity="0.095"/>
<stop offset="1" stop-color="#DC5F79" stop-opacity="0"/>
</radialGradient>
</defs>
</svg>
