<svg width="81" height="52" viewBox="0 0 81 52" fill="none" xmlns="http://www.w3.org/2000/svg">
<path d="M45.0888 1.38566C46.1738 0.498421 47.6451 0 49.1793 0C50.7135 0 52.1849 0.498421 53.2699 1.38566L79.306 22.6826C80.3907 23.5701 81 24.7736 81 26.0286C81 27.2835 80.3907 28.4871 79.306 29.3746L53.2699 50.6715C52.1787 51.5336 50.7172 52.0106 49.2001 51.9998C47.6831 51.989 46.232 51.4913 45.1592 50.6138C44.0865 49.7364 43.478 48.5494 43.4648 47.3085C43.4517 46.0676 44.0348 44.8721 45.0888 43.9795L60.7509 30.7612H5.7858C4.25131 30.7612 2.77967 30.2626 1.69462 29.3751C0.609574 28.4875 0 27.2838 0 26.0286C0 24.7734 0.609574 23.5696 1.69462 22.6821C2.77967 21.7945 4.25131 21.2959 5.7858 21.2959H60.7509L45.0888 8.07763C44.0041 7.19012 43.3948 5.98657 43.3948 4.73164C43.3948 3.47671 44.0041 2.27316 45.0888 1.38566Z" fill="black"/>
</svg>
