<svg width="1088" height="546" viewBox="0 0 1088 546" fill="none" xmlns="http://www.w3.org/2000/svg">
<path d="M1038 0H50C22.3858 0 0 22.3858 0 50V496C0 523.614 22.3858 546 50 546H1038C1065.61 546 1088 523.614 1088 496V50C1088 22.3858 1065.61 0 1038 0Z" fill="white"/>
<path d="M175.335 81H165.79L170.861 50.455H180.585C183.548 50.455 185.989 51.076 187.908 52.319C189.837 53.562 191.18 55.337 191.935 57.643C192.701 59.95 192.815 62.705 192.278 65.906C191.761 69.048 190.757 71.748 189.266 74.005C187.784 76.252 185.865 77.982 183.509 79.195C181.162 80.398 178.438 81 175.335 81ZM170.04 77.719H175.455C177.98 77.719 180.158 77.222 181.987 76.227C183.827 75.233 185.308 73.816 186.432 71.977C187.565 70.137 188.341 67.955 188.759 65.429C189.176 63.003 189.136 60.92 188.639 59.18C188.152 57.43 187.192 56.087 185.761 55.153C184.339 54.208 182.435 53.736 180.048 53.736H174.008L170.04 77.719ZM227.449 71.634L229.716 58.091H233.236L229.417 81H225.897L226.554 77.122H226.315C225.599 78.286 224.6 79.275 223.317 80.09C222.035 80.896 220.528 81.298 218.798 81.298C217.366 81.298 216.143 80.985 215.129 80.359C214.125 79.722 213.409 78.768 212.981 77.495C212.564 76.212 212.514 74.597 212.832 72.648L215.278 58.091H218.798L216.412 72.409C216.143 74.08 216.397 75.412 217.172 76.406C217.948 77.401 219.067 77.898 220.528 77.898C221.403 77.898 222.328 77.674 223.302 77.227C224.287 76.779 225.162 76.093 225.927 75.168C226.703 74.244 227.21 73.065 227.449 71.634ZM258.506 81.537C257.054 81.537 255.782 81.263 254.688 80.717C253.594 80.16 252.784 79.359 252.257 78.315C251.73 77.261 251.586 75.989 251.824 74.497C252.053 73.185 252.495 72.121 253.152 71.305C253.808 70.48 254.603 69.834 255.538 69.366C256.483 68.889 257.497 68.536 258.581 68.308C259.674 68.069 260.763 67.885 261.847 67.756C263.259 67.577 264.407 67.437 265.292 67.338C266.177 67.239 266.843 67.075 267.291 66.846C267.738 66.617 268.012 66.224 268.111 65.668V65.548C268.35 64.087 268.156 62.948 267.53 62.133C266.903 61.308 265.785 60.895 264.174 60.895C262.503 60.895 261.106 61.263 259.983 61.999C258.859 62.734 258.029 63.52 257.492 64.355L254.39 63.162C255.205 61.77 256.179 60.686 257.313 59.911C258.446 59.125 259.635 58.578 260.878 58.27C262.12 57.952 263.319 57.793 264.472 57.793C265.208 57.793 266.038 57.882 266.963 58.061C267.888 58.23 268.753 58.583 269.558 59.12C270.373 59.657 270.985 60.467 271.392 61.551C271.81 62.635 271.87 64.087 271.571 65.906L269.066 81H265.546L266.083 77.898H265.904C265.586 78.395 265.098 78.927 264.442 79.494C263.796 80.06 262.976 80.543 261.981 80.94C260.997 81.338 259.838 81.537 258.506 81.537ZM259.52 78.375C260.912 78.375 262.13 78.102 263.174 77.555C264.228 77.008 265.074 76.302 265.71 75.437C266.356 74.572 266.759 73.662 266.918 72.707L267.455 69.486C267.276 69.665 266.923 69.829 266.396 69.978C265.869 70.117 265.272 70.241 264.606 70.351C263.95 70.45 263.309 70.54 262.682 70.619C262.066 70.689 261.569 70.749 261.191 70.798C260.256 70.918 259.366 71.112 258.521 71.38C257.686 71.638 256.98 72.031 256.403 72.558C255.836 73.075 255.483 73.781 255.344 74.676C255.135 75.899 255.429 76.824 256.224 77.45C257.02 78.067 258.118 78.375 259.52 78.375ZM300.697 81.477C298.54 81.477 296.77 80.97 295.388 79.956C294.016 78.942 293.061 77.545 292.524 75.765C291.987 73.985 291.908 71.952 292.286 69.665C292.663 67.338 293.429 65.285 294.582 63.505C295.736 61.715 297.173 60.318 298.893 59.314C300.613 58.3 302.507 57.793 304.575 57.793C306.186 57.793 307.588 58.091 308.781 58.688C309.974 59.284 310.894 60.119 311.541 61.193C312.187 62.267 312.49 63.52 312.45 64.952H308.93C308.831 63.908 308.384 62.983 307.588 62.178C306.803 61.362 305.639 60.955 304.098 60.955C302.726 60.955 301.463 61.312 300.31 62.028C299.156 62.734 298.187 63.734 297.401 65.026C296.616 66.309 296.084 67.815 295.805 69.545C295.507 71.315 295.532 72.857 295.88 74.169C296.228 75.482 296.859 76.501 297.774 77.227C298.689 77.952 299.842 78.315 301.234 78.315C302.149 78.315 303.004 78.156 303.8 77.838C304.595 77.52 305.301 77.062 305.918 76.466C306.534 75.869 307.021 75.153 307.379 74.318H310.899C310.462 75.67 309.761 76.888 308.796 77.972C307.832 79.046 306.663 79.901 305.291 80.538C303.919 81.164 302.388 81.477 300.697 81.477ZM337.553 81.537C336.101 81.537 334.829 81.263 333.735 80.717C332.641 80.16 331.831 79.359 331.304 78.315C330.777 77.261 330.633 75.989 330.871 74.497C331.1 73.185 331.542 72.121 332.199 71.305C332.855 70.48 333.65 69.834 334.585 69.366C335.53 68.889 336.544 68.536 337.628 68.308C338.721 68.069 339.81 67.885 340.894 67.756C342.306 67.577 343.454 67.437 344.339 67.338C345.224 67.239 345.89 67.075 346.338 66.846C346.785 66.617 347.059 66.224 347.158 65.668V65.548C347.397 64.087 347.203 62.948 346.577 62.133C345.95 61.308 344.831 60.895 343.221 60.895C341.55 60.895 340.153 61.263 339.03 61.999C337.906 62.734 337.076 63.52 336.539 64.355L333.437 63.162C334.252 61.77 335.226 60.686 336.36 59.911C337.493 59.125 338.682 58.578 339.925 58.27C341.167 57.952 342.366 57.793 343.519 57.793C344.255 57.793 345.085 57.882 346.01 58.061C346.934 58.23 347.8 58.583 348.605 59.12C349.42 59.657 350.032 60.467 350.439 61.551C350.857 62.635 350.917 64.087 350.618 65.906L348.113 81H344.593L345.13 77.898H344.951C344.633 78.395 344.145 78.927 343.489 79.494C342.843 80.06 342.023 80.543 341.028 80.94C340.044 81.338 338.885 81.537 337.553 81.537ZM338.567 78.375C339.959 78.375 341.177 78.102 342.221 77.555C343.275 77.008 344.121 76.302 344.757 75.437C345.403 74.572 345.806 73.662 345.965 72.707L346.502 69.486C346.323 69.665 345.97 69.829 345.443 69.978C344.916 70.117 344.319 70.241 343.653 70.351C342.997 70.45 342.356 70.54 341.729 70.619C341.113 70.689 340.616 70.749 340.238 70.798C339.303 70.918 338.413 71.112 337.568 71.38C336.733 71.638 336.027 72.031 335.45 72.558C334.883 73.075 334.53 73.781 334.391 74.676C334.182 75.899 334.476 76.824 335.271 77.45C336.067 78.067 337.165 78.375 338.567 78.375ZM370.497 81L374.315 58.091H377.716L377.119 61.551H377.358C377.955 60.418 378.864 59.498 380.087 58.792C381.31 58.086 382.608 57.733 383.98 57.733C384.249 57.733 384.572 57.738 384.95 57.748C385.328 57.748 385.621 57.763 385.83 57.793L385.233 61.372C385.114 61.342 384.845 61.298 384.428 61.238C384.01 61.168 383.563 61.134 383.085 61.134C381.972 61.134 380.943 61.367 379.998 61.835C379.053 62.292 378.263 62.928 377.627 63.744C376.99 64.549 376.582 65.469 376.404 66.503L374.017 81H370.497ZM411.014 81.477C408.817 81.477 407.002 80.99 405.571 80.016C404.139 79.031 403.139 77.659 402.573 75.899C402.006 74.129 401.916 72.071 402.304 69.724C402.692 67.378 403.463 65.31 404.616 63.52C405.769 61.72 407.206 60.318 408.926 59.314C410.647 58.3 412.536 57.793 414.594 57.793C415.787 57.793 416.936 57.991 418.039 58.389C419.143 58.787 420.098 59.433 420.903 60.328C421.708 61.213 422.27 62.386 422.588 63.848C422.906 65.31 422.887 67.109 422.529 69.247L422.29 70.739H404.631L405.108 67.696H419.188C419.416 66.403 419.357 65.25 419.009 64.236C418.671 63.222 418.079 62.421 417.234 61.835C416.399 61.248 415.34 60.955 414.057 60.955C412.735 60.955 411.502 61.312 410.358 62.028C409.215 62.734 408.26 63.629 407.495 64.713C406.729 65.787 406.252 66.881 406.063 67.994L405.645 70.619C405.347 72.518 405.392 74.03 405.779 75.153C406.177 76.277 406.868 77.087 407.853 77.585C408.837 78.072 410.07 78.315 411.551 78.315C412.496 78.315 413.366 78.186 414.161 77.928C414.957 77.659 415.668 77.261 416.294 76.734C416.921 76.197 417.448 75.531 417.875 74.736L421.097 75.69C420.55 76.844 419.779 77.858 418.785 78.733C417.801 79.598 416.647 80.274 415.325 80.761C414.012 81.239 412.576 81.477 411.014 81.477ZM494.547 60C494.398 58.996 494.139 58.096 493.771 57.3C493.413 56.495 492.936 55.814 492.34 55.257C491.743 54.69 491.022 54.258 490.177 53.96C489.342 53.651 488.372 53.497 487.269 53.497C485.459 53.497 483.709 53.964 482.019 54.899C480.338 55.834 478.882 57.211 477.649 59.031C476.426 60.85 475.595 63.082 475.158 65.727C474.72 68.372 474.765 70.604 475.292 72.424C475.829 74.244 476.749 75.621 478.051 76.555C479.364 77.49 480.965 77.957 482.854 77.957C484.604 77.957 486.235 77.585 487.746 76.839C489.257 76.083 490.525 75.019 491.549 73.647C492.573 72.265 493.235 70.639 493.533 68.77L494.607 69.009H485.419L486.016 65.727H497.649L497.053 69.009C496.655 71.534 495.77 73.727 494.398 75.586C493.026 77.445 491.315 78.882 489.267 79.896C487.219 80.911 484.982 81.418 482.556 81.418C479.851 81.418 477.584 80.781 475.754 79.509C473.925 78.236 472.637 76.426 471.891 74.08C471.146 71.733 471.041 68.949 471.578 65.727C471.966 63.311 472.642 61.138 473.607 59.21C474.581 57.271 475.774 55.62 477.186 54.258C478.608 52.896 480.194 51.852 481.944 51.126C483.704 50.4 485.558 50.037 487.507 50.037C489.118 50.037 490.58 50.281 491.892 50.768C493.215 51.245 494.353 51.926 495.308 52.811C496.262 53.686 497.003 54.735 497.53 55.958C498.057 57.171 498.335 58.518 498.365 60H494.547ZM526.358 81.477C524.25 81.477 522.485 80.975 521.063 79.971C519.641 78.967 518.637 77.56 518.05 75.75C517.473 73.94 517.379 71.832 517.767 69.426C518.145 67.08 518.895 65.036 520.019 63.296C521.152 61.546 522.559 60.194 524.24 59.239C525.93 58.275 527.79 57.793 529.818 57.793C531.926 57.793 533.686 58.3 535.098 59.314C536.52 60.318 537.524 61.73 538.111 63.55C538.697 65.359 538.797 67.477 538.409 69.903C538.031 72.23 537.27 74.263 536.127 76.004C534.993 77.734 533.586 79.081 531.906 80.045C530.236 81 528.386 81.477 526.358 81.477ZM526.417 78.315C528.028 78.315 529.425 77.903 530.608 77.077C531.802 76.252 532.766 75.163 533.502 73.811C534.248 72.459 534.75 70.997 535.008 69.426C535.247 67.935 535.237 66.548 534.978 65.265C534.72 63.972 534.168 62.933 533.323 62.148C532.478 61.352 531.29 60.955 529.758 60.955C528.147 60.955 526.741 61.372 525.537 62.207C524.344 63.043 523.38 64.141 522.644 65.504C521.908 66.866 521.416 68.332 521.167 69.903C520.929 71.395 520.934 72.782 521.182 74.065C521.441 75.337 521.993 76.366 522.838 77.152C523.693 77.928 524.886 78.315 526.417 78.315ZM567.468 81.477C565.27 81.477 563.456 80.99 562.024 80.016C560.592 79.031 559.593 77.659 559.026 75.899C558.459 74.129 558.37 72.071 558.757 69.724C559.145 67.378 559.916 65.31 561.069 63.52C562.223 61.72 563.659 60.318 565.38 59.314C567.1 58.3 568.989 57.793 571.047 57.793C572.24 57.793 573.389 57.991 574.493 58.389C575.596 58.787 576.551 59.433 577.356 60.328C578.162 61.213 578.723 62.386 579.042 63.848C579.36 65.31 579.34 67.109 578.982 69.247L578.743 70.739H561.084L561.561 67.696H575.641C575.87 66.403 575.81 65.25 575.462 64.236C575.124 63.222 574.532 62.421 573.687 61.835C572.852 61.248 571.793 60.955 570.51 60.955C569.188 60.955 567.955 61.312 566.811 62.028C565.668 62.734 564.713 63.629 563.948 64.713C563.182 65.787 562.705 66.881 562.516 67.994L562.098 70.619C561.8 72.518 561.845 74.03 562.233 75.153C562.63 76.277 563.321 77.087 564.306 77.585C565.29 78.072 566.523 78.315 568.005 78.315C568.949 78.315 569.819 78.186 570.615 77.928C571.41 77.659 572.121 77.261 572.748 76.734C573.374 76.197 573.901 75.531 574.329 74.736L577.55 75.69C577.003 76.844 576.233 77.858 575.238 78.733C574.254 79.598 573.101 80.274 571.778 80.761C570.466 81.239 569.029 81.477 567.468 81.477ZM617.62 63.222L614.28 64.116C614.16 63.58 613.95 63.062 613.65 62.565C613.36 62.058 612.917 61.646 612.31 61.327C611.714 60.999 610.898 60.835 609.864 60.835C608.462 60.835 607.244 61.158 606.21 61.805C605.176 62.441 604.584 63.251 604.435 64.236C604.286 65.101 604.485 65.792 605.032 66.309C605.579 66.826 606.493 67.249 607.776 67.577L611.057 68.412C613.03 68.919 614.43 69.68 615.26 70.694C616.11 71.698 616.4 73.006 616.13 74.616C615.91 75.929 615.34 77.102 614.41 78.136C613.49 79.17 612.305 79.986 610.863 80.582C609.422 81.179 607.816 81.477 606.046 81.477C603.689 81.477 601.83 80.97 600.468 79.956C599.106 78.932 598.38 77.45 598.29 75.511L601.81 74.676C601.9 75.899 602.337 76.824 603.123 77.45C603.918 78.067 605.032 78.375 606.464 78.375C608.104 78.375 609.471 78.027 610.565 77.331C611.659 76.625 612.28 75.78 612.429 74.795C612.579 73.99 612.42 73.319 611.952 72.782C611.495 72.245 610.699 71.842 609.566 71.574L605.927 70.679C603.898 70.172 602.476 69.396 601.661 68.352C600.856 67.308 600.587 65.996 600.856 64.415C601.074 63.122 601.631 61.979 602.526 60.984C603.431 59.99 604.564 59.21 605.927 58.643C607.299 58.076 608.79 57.793 610.401 57.793C612.668 57.793 614.36 58.29 615.49 59.284C616.61 60.268 617.32 61.581 617.62 63.222ZM667.43 53.736L667.96 50.455H690.87L690.34 53.736H680.73L676.2 81H672.5L677.03 53.736H667.43ZM713.13 81.477C711.02 81.477 709.25 80.975 707.83 79.971C706.41 78.967 705.41 77.56 704.82 75.75C704.24 73.94 704.15 71.832 704.54 69.426C704.91 67.08 705.66 65.036 706.79 63.296C707.92 61.546 709.33 60.194 711.01 59.239C712.7 58.275 714.56 57.793 716.59 57.793C718.69 57.793 720.45 58.3 721.87 59.314C723.29 60.318 724.29 61.73 724.88 63.55C725.47 65.359 725.57 67.477 725.18 69.903C724.8 72.23 724.04 74.263 722.9 76.004C721.76 77.734 720.36 79.081 718.67 80.045C717 81 715.15 81.477 713.13 81.477ZM713.19 78.315C714.8 78.315 716.19 77.903 717.38 77.077C718.57 76.252 719.53 75.163 720.27 73.811C721.02 72.459 721.52 70.997 721.78 69.426C722.02 67.935 722.01 66.548 721.75 65.265C721.49 63.972 720.94 62.933 720.09 62.148C719.25 61.352 718.06 60.955 716.53 60.955C714.92 60.955 713.51 61.372 712.31 62.207C711.11 63.043 710.15 64.141 709.41 65.504C708.68 66.866 708.18 68.332 707.94 69.903C707.7 71.395 707.7 72.782 707.95 74.065C708.21 75.337 708.76 76.366 709.61 77.152C710.46 77.928 711.65 78.315 713.19 78.315ZM793.4 58.33C793.4 56.689 792.86 55.446 791.78 54.601C790.69 53.746 789.23 53.318 787.38 53.318C786.03 53.318 784.81 53.537 783.72 53.974C782.64 54.412 781.76 55.013 781.07 55.779C780.38 56.545 779.96 57.415 779.8 58.389C779.67 59.205 779.76 59.906 780.06 60.492C780.35 61.069 780.78 61.551 781.32 61.939C781.88 62.317 782.48 62.63 783.11 62.879C783.75 63.117 784.34 63.311 784.87 63.46L787.86 64.295C788.6 64.504 789.43 64.793 790.35 65.161C791.26 65.528 792.12 66.031 792.91 66.667C793.71 67.293 794.31 68.099 794.73 69.083C795.16 70.067 795.25 71.276 795.01 72.707C794.74 74.358 794.06 75.849 792.97 77.182C791.9 78.514 790.48 79.573 788.71 80.359C786.95 81.144 784.89 81.537 782.55 81.537C780.36 81.537 778.52 81.184 777.03 80.478C775.55 79.772 774.45 78.788 773.75 77.525C773.05 76.262 772.78 74.795 772.94 73.125H776.76C776.66 74.278 776.89 75.233 777.45 75.989C778 76.734 778.78 77.291 779.77 77.659C780.77 78.017 781.87 78.196 783.08 78.196C784.49 78.196 785.8 77.967 786.99 77.51C788.19 77.043 789.19 76.396 789.97 75.571C790.77 74.736 791.26 73.761 791.44 72.648C791.61 71.634 791.47 70.808 791.02 70.172C790.56 69.536 789.9 69.018 789.03 68.621C788.17 68.223 787.22 67.875 786.19 67.577L782.61 66.503C780.34 65.817 778.61 64.837 777.43 63.565C776.26 62.292 775.83 60.626 776.16 58.568C776.46 56.858 777.18 55.366 778.33 54.094C779.47 52.811 780.89 51.817 782.58 51.111C784.27 50.395 786.09 50.037 788.03 50.037C790 50.037 791.69 50.395 793.09 51.111C794.49 51.817 795.54 52.796 796.22 54.049C796.91 55.292 797.16 56.719 796.98 58.33H793.4ZM824.45 81.477C822.3 81.477 820.53 80.97 819.14 79.956C817.77 78.942 816.82 77.545 816.28 75.765C815.74 73.985 815.66 71.952 816.04 69.665C816.42 67.338 817.19 65.285 818.34 63.505C819.49 61.715 820.93 60.318 822.65 59.314C824.37 58.3 826.26 57.793 828.33 57.793C829.94 57.793 831.34 58.091 832.54 58.688C833.73 59.284 834.65 60.119 835.3 61.193C835.94 62.267 836.25 63.52 836.21 64.952H832.69C832.59 63.908 832.14 62.983 831.34 62.178C830.56 61.362 829.4 60.955 827.85 60.955C826.48 60.955 825.22 61.312 824.07 62.028C822.91 62.734 821.94 63.734 821.16 65.026C820.37 66.309 819.84 67.815 819.56 69.545C819.26 71.315 819.29 72.857 819.64 74.169C819.98 75.482 820.62 76.501 821.53 77.227C822.45 77.952 823.6 78.315 824.99 78.315C825.91 78.315 826.76 78.156 827.56 77.838C828.35 77.52 829.06 77.062 829.67 76.466C830.29 75.869 830.78 75.153 831.14 74.318H834.66C834.22 75.67 833.52 76.888 832.55 77.972C831.59 79.046 830.42 79.901 829.05 80.538C827.68 81.164 826.14 81.477 824.45 81.477ZM860.41 67.219L858.15 81H854.63L859.7 50.455H863.22L861.37 61.67H861.67C862.38 60.477 863.34 59.533 864.53 58.837C865.73 58.141 867.25 57.793 869.07 57.793C870.62 57.793 871.92 58.106 872.99 58.732C874.06 59.349 874.82 60.298 875.25 61.581C875.7 62.854 875.77 64.474 875.45 66.443L873 81H869.48L871.87 66.682C872.17 64.862 871.92 63.455 871.14 62.461C870.36 61.457 869.15 60.955 867.51 60.955C866.36 60.955 865.29 61.198 864.29 61.685C863.31 62.173 862.47 62.884 861.79 63.818C861.11 64.753 860.65 65.886 860.41 67.219ZM904.86 81.477C902.75 81.477 900.99 80.975 899.56 79.971C898.14 78.967 897.14 77.56 896.55 75.75C895.97 73.94 895.88 71.832 896.27 69.426C896.64 67.08 897.4 65.036 898.52 63.296C899.65 61.546 901.06 60.194 902.74 59.239C904.43 58.275 906.29 57.793 908.32 57.793C910.43 57.793 912.19 58.3 913.6 59.314C915.02 60.318 916.02 61.73 916.61 63.55C917.2 65.359 917.3 67.477 916.91 69.903C916.53 72.23 915.77 74.263 914.63 76.004C913.49 77.734 912.09 79.081 910.41 80.045C908.74 81 906.89 81.477 904.86 81.477ZM904.92 78.315C906.53 78.315 907.93 77.903 909.11 77.077C910.3 76.252 911.27 75.163 912 73.811C912.75 72.459 913.25 70.997 913.51 69.426C913.75 67.935 913.74 66.548 913.48 65.265C913.22 63.972 912.67 62.933 911.82 62.148C910.98 61.352 909.79 60.955 908.26 60.955C906.65 60.955 905.24 61.372 904.04 62.207C902.84 63.043 901.88 64.141 901.14 65.504C900.41 66.866 899.92 68.332 899.67 69.903C899.43 71.395 899.43 72.782 899.68 74.065C899.94 75.337 900.49 76.366 901.34 77.152C902.19 77.928 903.39 78.315 904.92 78.315ZM945.88 81.477C943.77 81.477 942.01 80.975 940.58 79.971C939.16 78.967 938.16 77.56 937.57 75.75C936.99 73.94 936.9 71.832 937.29 69.426C937.67 67.08 938.42 65.036 939.54 63.296C940.67 61.546 942.08 60.194 943.76 59.239C945.45 58.275 947.31 57.793 949.34 57.793C951.45 57.793 953.21 58.3 954.62 59.314C956.04 60.318 957.04 61.73 957.63 63.55C958.22 65.359 958.32 67.477 957.93 69.903C957.55 72.23 956.79 74.263 955.65 76.004C954.51 77.734 953.11 79.081 951.43 80.045C949.76 81 947.91 81.477 945.88 81.477ZM945.94 78.315C947.55 78.315 948.95 77.903 950.13 77.077C951.32 76.252 952.29 75.163 953.02 73.811C953.77 72.459 954.27 70.997 954.53 69.426C954.77 67.935 954.76 66.548 954.5 65.265C954.24 63.972 953.69 62.933 952.84 62.148C952 61.352 950.81 60.955 949.28 60.955C947.67 60.955 946.26 61.372 945.06 62.207C943.87 63.043 942.9 64.141 942.16 65.504C941.43 66.866 940.94 68.332 940.69 69.903C940.45 71.395 940.45 72.782 940.7 74.065C940.96 75.337 941.51 76.366 942.36 77.152C943.21 77.928 944.41 78.315 945.94 78.315ZM986.03 50.455L980.96 81H977.44L982.51 50.455H986.03Z" fill="#01304C"/>
<path d="M50.888 365L56.925 328.636H81.428L80.362 334.975H63.548L62.127 343.64H77.681L76.616 349.979H61.062L59.641 358.661H76.527L75.462 365H50.888ZM92.227 337.727L95.637 347.262L102.366 337.727H110.125L99.951 351.364L105.793 365H98.069L94.252 355.572L87.398 365H79.585L89.955 351.364L84.415 337.727H92.227ZM108.421 375.227L114.706 337.727H122.164L121.4 342.308H121.737C122.187 341.574 122.785 340.829 123.531 340.071C124.288 339.302 125.229 338.662 126.354 338.153C127.478 337.633 128.798 337.372 130.313 337.372C132.314 337.372 134.06 337.893 135.551 338.935C137.043 339.964 138.12 341.521 138.783 343.604C139.458 345.676 139.535 348.274 139.014 351.399C138.517 354.441 137.599 357.01 136.262 359.105C134.936 361.188 133.344 362.769 131.485 363.846C129.639 364.911 127.68 365.444 125.608 365.444C124.14 365.444 122.933 365.201 121.986 364.716C121.051 364.231 120.323 363.621 119.802 362.887C119.281 362.141 118.914 361.39 118.701 360.632H118.417L116.002 375.227H108.421ZM119.838 351.364C119.577 352.985 119.565 354.4 119.802 355.607C120.051 356.815 120.548 357.756 121.294 358.43C122.039 359.093 123.022 359.425 124.241 359.425C125.472 359.425 126.567 359.087 127.526 358.413C128.485 357.726 129.284 356.779 129.923 355.572C130.562 354.353 131.018 352.95 131.29 351.364C131.539 349.789 131.544 348.404 131.308 347.209C131.071 346.013 130.586 345.078 129.852 344.403C129.118 343.729 128.124 343.391 126.869 343.391C125.65 343.391 124.555 343.717 123.584 344.368C122.625 345.019 121.826 345.942 121.187 347.138C120.548 348.333 120.098 349.742 119.838 351.364ZM155.362 328.636L149.325 365H141.761L147.798 328.636H155.362ZM167.742 365.533C164.961 365.533 162.658 364.941 160.835 363.757C159.012 362.562 157.728 360.904 156.982 358.786C156.249 356.655 156.112 354.175 156.574 351.346C157.024 348.552 157.959 346.108 159.379 344.013C160.8 341.918 162.605 340.29 164.795 339.13C166.985 337.958 169.453 337.372 172.199 337.372C174.969 337.372 177.265 337.97 179.088 339.165C180.911 340.349 182.195 342.006 182.941 344.137C183.687 346.268 183.829 348.748 183.367 351.577C182.906 354.358 181.959 356.797 180.526 358.892C179.094 360.987 177.289 362.621 175.111 363.793C172.933 364.953 170.477 365.533 167.742 365.533ZM168.488 359.673C169.767 359.673 170.897 359.312 171.879 358.59C172.874 357.856 173.696 356.862 174.347 355.607C175.01 354.341 175.472 352.908 175.732 351.31C175.993 349.736 176.011 348.339 175.786 347.12C175.561 345.889 175.087 344.918 174.365 344.208C173.655 343.498 172.678 343.143 171.436 343.143C170.157 343.143 169.021 343.51 168.026 344.244C167.032 344.966 166.209 345.96 165.558 347.227C164.907 348.493 164.452 349.931 164.191 351.541C163.943 353.104 163.925 354.5 164.138 355.732C164.351 356.951 164.819 357.915 165.541 358.626C166.263 359.324 167.245 359.673 168.488 359.673ZM186.048 365L190.594 337.727H197.927L197.128 342.486H197.412C198.193 340.793 199.241 339.515 200.555 338.651C201.881 337.775 203.307 337.337 204.834 337.337C205.213 337.337 205.609 337.36 206.024 337.408C206.45 337.443 206.829 337.502 207.16 337.585L206.024 344.315C205.692 344.196 205.219 344.102 204.603 344.031C203.999 343.948 203.425 343.906 202.881 343.906C201.78 343.906 200.756 344.149 199.809 344.634C198.862 345.108 198.063 345.771 197.412 346.623C196.773 347.475 196.353 348.458 196.151 349.57L193.612 365H186.048ZM217.596 365.533C214.802 365.533 212.488 364.964 210.653 363.828C208.819 362.68 207.528 361.058 206.783 358.963C206.049 356.856 205.924 354.364 206.41 351.488C206.883 348.683 207.836 346.22 209.268 344.102C210.713 341.983 212.524 340.331 214.702 339.148C216.88 337.964 219.306 337.372 221.982 337.372C223.781 337.372 225.408 337.662 226.864 338.242C228.332 338.81 229.551 339.674 230.522 340.835C231.493 341.983 232.156 343.421 232.511 345.149C232.878 346.877 232.872 348.902 232.493 351.222L232.156 353.299H209.144L209.872 348.612H225.781C225.959 347.522 225.888 346.558 225.568 345.717C225.249 344.877 224.716 344.22 223.97 343.746C223.224 343.261 222.307 343.018 221.218 343.018C220.105 343.018 219.064 343.291 218.093 343.835C217.122 344.38 216.306 345.096 215.643 345.984C214.992 346.86 214.571 347.812 214.382 348.842L213.548 353.494C213.311 354.927 213.358 356.116 213.69 357.063C214.033 358.01 214.625 358.72 215.465 359.194C216.306 359.656 217.371 359.886 218.661 359.886C219.502 359.886 220.289 359.768 221.023 359.531C221.768 359.295 222.431 358.945 223.011 358.484C223.591 358.01 224.065 357.424 224.432 356.726L231.339 357.188C230.7 358.868 229.729 360.336 228.427 361.591C227.125 362.834 225.556 363.804 223.722 364.503C221.899 365.189 219.857 365.533 217.596 365.533ZM250.79 328.636H259.402L265.101 344.297H265.492L276.341 328.636H284.952L267.8 352.145L265.652 365H258.017L260.165 352.145L250.79 328.636ZM289.617 365.533C286.836 365.533 284.533 364.941 282.71 363.757C280.887 362.562 279.603 360.904 278.857 358.786C278.124 356.655 277.987 354.175 278.449 351.346C278.899 348.552 279.834 346.108 281.254 344.013C282.675 341.918 284.48 340.29 286.67 339.13C288.86 337.958 291.328 337.372 294.074 337.372C296.844 337.372 299.14 337.97 300.963 339.165C302.786 340.349 304.07 342.006 304.816 344.137C305.562 346.268 305.704 348.748 305.242 351.577C304.781 354.358 303.834 356.797 302.401 358.892C300.969 360.987 299.164 362.621 296.986 363.793C294.808 364.953 292.352 365.533 289.617 365.533ZM290.363 359.673C291.642 359.673 292.772 359.312 293.754 358.59C294.749 357.856 295.571 356.862 296.222 355.607C296.885 354.341 297.347 352.908 297.607 351.31C297.868 349.736 297.886 348.339 297.661 347.12C297.436 345.889 296.962 344.918 296.24 344.208C295.53 343.498 294.553 343.143 293.311 343.143C292.032 343.143 290.896 343.51 289.901 344.244C288.907 344.966 288.084 345.96 287.433 347.227C286.782 348.493 286.327 349.931 286.066 351.541C285.818 353.104 285.8 354.5 286.013 355.732C286.226 356.951 286.694 357.915 287.416 358.626C288.138 359.324 289.12 359.673 290.363 359.673ZM327.348 353.388L329.958 337.727H337.522L332.977 365H325.715L326.531 360.046H326.247C325.407 361.644 324.182 362.929 322.572 363.899C320.962 364.87 319.133 365.355 317.085 365.355C315.262 365.355 313.724 364.941 312.469 364.112C311.226 363.284 310.344 362.106 309.823 360.579C309.302 359.052 309.214 357.223 309.557 355.092L312.469 337.727H320.033L317.369 353.743C317.121 355.353 317.346 356.625 318.044 357.56C318.743 358.496 319.808 358.963 321.24 358.963C322.152 358.963 323.034 358.756 323.886 358.342C324.75 357.915 325.496 357.288 326.123 356.46C326.75 355.631 327.159 354.607 327.348 353.388ZM339.027 365L343.572 337.727H350.906L350.107 342.486H350.391C351.172 340.793 352.219 339.515 353.533 338.651C354.859 337.775 356.286 337.337 357.812 337.337C358.191 337.337 358.588 337.36 359.002 337.408C359.428 337.443 359.807 337.502 360.138 337.585L359.002 344.315C358.671 344.196 358.197 344.102 357.582 344.031C356.978 343.948 356.404 343.906 355.859 343.906C354.759 343.906 353.735 344.149 352.788 344.634C351.841 345.108 351.042 345.771 350.391 346.623C349.751 347.475 349.331 348.458 349.13 349.57L346.591 365H339.027ZM371.2 365L377.237 328.636H391.584C394.33 328.636 396.585 329.163 398.349 330.217C400.124 331.258 401.367 332.708 402.077 334.567C402.799 336.413 402.965 338.544 402.575 340.959C402.172 343.385 401.296 345.522 399.947 347.369C398.609 349.203 396.869 350.636 394.727 351.665C392.584 352.695 390.11 353.21 387.305 353.21H378.161L379.173 347.049H387.074C388.565 347.049 389.838 346.795 390.891 346.286C391.957 345.765 392.803 345.049 393.43 344.137C394.058 343.214 394.466 342.154 394.656 340.959C394.857 339.74 394.792 338.68 394.46 337.781C394.129 336.881 393.519 336.183 392.631 335.685C391.755 335.176 390.578 334.922 389.098 334.922H383.913L378.888 365H371.2ZM410.405 365.515C408.677 365.515 407.179 365.213 405.913 364.609C404.658 363.994 403.735 363.082 403.143 361.875C402.551 360.668 402.403 359.17 402.699 357.383C402.959 355.868 403.451 354.601 404.173 353.583C404.906 352.553 405.8 351.725 406.854 351.097C407.907 350.47 409.073 349.991 410.352 349.659C411.642 349.328 412.973 349.103 414.347 348.984C415.933 348.819 417.223 348.659 418.217 348.505C419.223 348.351 419.975 348.132 420.472 347.848C420.969 347.552 421.271 347.114 421.378 346.534V346.428C421.555 345.315 421.348 344.451 420.756 343.835C420.176 343.208 419.247 342.894 417.969 342.894C416.619 342.894 415.471 343.19 414.524 343.782C413.589 344.374 412.92 345.125 412.518 346.037L405.629 345.469C406.244 343.812 407.173 342.379 408.416 341.172C409.671 339.953 411.18 339.018 412.944 338.366C414.708 337.704 416.684 337.372 418.874 337.372C420.389 337.372 421.804 337.55 423.118 337.905C424.444 338.26 425.586 338.81 426.545 339.556C427.515 340.302 428.214 341.261 428.64 342.433C429.078 343.593 429.167 344.983 428.906 346.605L425.835 365H418.661L419.3 361.218H419.087C418.507 362.07 417.797 362.822 416.957 363.473C416.116 364.112 415.152 364.615 414.062 364.982C412.973 365.337 411.754 365.515 410.405 365.515ZM413.441 360.295C414.542 360.295 415.554 360.076 416.477 359.638C417.412 359.188 418.182 358.584 418.786 357.827C419.401 357.069 419.792 356.211 419.957 355.252L420.419 352.358C420.182 352.512 419.839 352.648 419.389 352.766C418.951 352.885 418.472 352.997 417.951 353.104C417.442 353.198 416.927 353.287 416.406 353.37C415.885 353.441 415.418 353.512 415.004 353.583C414.092 353.713 413.275 353.92 412.553 354.205C411.831 354.489 411.245 354.873 410.795 355.359C410.346 355.832 410.067 356.424 409.961 357.134C409.795 358.164 410.038 358.951 410.689 359.496C411.352 360.028 412.269 360.295 413.441 360.295ZM450.755 337.727L449.814 343.409H433.372L434.331 337.727H450.755ZM439.125 331.193H446.689L442.463 356.619C442.344 357.318 442.362 357.862 442.516 358.253C442.67 358.632 442.924 358.898 443.279 359.052C443.646 359.206 444.084 359.283 444.593 359.283C444.949 359.283 445.31 359.253 445.676 359.194C446.043 359.123 446.322 359.07 446.511 359.034L446.795 364.663C446.369 364.793 445.795 364.935 445.073 365.089C444.363 365.243 443.522 365.337 442.551 365.373C440.705 365.444 439.142 365.201 437.864 364.645C436.586 364.077 435.668 363.207 435.112 362.035C434.556 360.863 434.437 359.389 434.757 357.614L439.125 331.193ZM461.95 349.233L459.322 365H451.776L457.812 328.636H465.146L462.873 342.539H463.175C464.051 340.929 465.252 339.669 466.779 338.757C468.306 337.834 470.111 337.372 472.195 337.372C474.089 337.372 475.669 337.786 476.935 338.615C478.214 339.432 479.119 340.61 479.652 342.148C480.185 343.675 480.273 345.504 479.918 347.635L477.006 365H469.46L472.124 348.984C472.396 347.304 472.177 345.996 471.467 345.06C470.768 344.125 469.656 343.658 468.129 343.658C467.099 343.658 466.152 343.877 465.288 344.315C464.424 344.753 463.696 345.392 463.104 346.232C462.524 347.061 462.139 348.061 461.95 349.233ZM508.363 328.636L502.326 365H494.638L500.675 328.636H508.363ZM519.092 375.795C516.63 375.795 514.576 375.458 512.931 374.783C511.297 374.121 510.054 373.215 509.202 372.067C508.361 370.919 507.9 369.628 507.817 368.196L514.99 367.255C515.12 367.811 515.369 368.326 515.736 368.8C516.115 369.273 516.653 369.652 517.352 369.936C518.062 370.22 518.979 370.362 520.104 370.362C521.749 370.362 523.182 369.96 524.401 369.155C525.62 368.362 526.372 367.03 526.656 365.16L527.472 360.17H527.153C526.703 360.928 526.088 361.644 525.306 362.319C524.537 362.994 523.596 363.544 522.483 363.97C521.382 364.396 520.11 364.609 518.666 364.609C516.606 364.609 514.819 364.136 513.303 363.189C511.8 362.23 510.711 360.768 510.036 358.803C509.374 356.826 509.291 354.329 509.788 351.31C510.309 348.221 511.244 345.64 512.593 343.569C513.943 341.497 515.541 339.947 517.387 338.917C519.234 337.887 521.157 337.372 523.158 337.372C524.685 337.372 525.916 337.633 526.851 338.153C527.798 338.662 528.526 339.302 529.035 340.071C529.544 340.829 529.905 341.574 530.118 342.308H530.42L531.166 337.727H538.676L534.095 365.266C533.728 367.598 532.847 369.54 531.45 371.09C530.065 372.653 528.307 373.825 526.176 374.606C524.046 375.399 521.684 375.795 519.092 375.795ZM521.933 358.928C523.14 358.928 524.223 358.626 525.182 358.022C526.153 357.406 526.963 356.531 527.615 355.394C528.266 354.246 528.721 352.873 528.982 351.275C529.242 349.677 529.236 348.292 528.964 347.12C528.704 345.936 528.195 345.019 527.437 344.368C526.691 343.717 525.709 343.391 524.49 343.391C523.235 343.391 522.134 343.729 521.187 344.403C520.24 345.066 519.453 345.99 518.825 347.173C518.21 348.357 517.778 349.724 517.529 351.275C517.269 352.849 517.257 354.21 517.494 355.359C517.742 356.495 518.234 357.377 518.968 358.004C519.701 358.62 520.69 358.928 521.933 358.928ZM550.377 349.233L547.749 365H540.203L544.749 337.727H551.94L551.159 342.539H551.46C552.325 340.941 553.544 339.68 555.118 338.757C556.704 337.834 558.509 337.372 560.534 337.372C562.427 337.372 564.008 337.786 565.274 338.615C566.553 339.444 567.452 340.621 567.973 342.148C568.506 343.675 568.595 345.504 568.24 347.635L565.328 365H557.764L560.445 348.984C560.717 347.315 560.504 346.013 559.806 345.078C559.119 344.131 558.012 343.658 556.485 343.658C555.467 343.658 554.532 343.877 553.68 344.315C552.828 344.753 552.111 345.392 551.531 346.232C550.963 347.061 550.579 348.061 550.377 349.233ZM571.254 365L575.799 337.727H583.363L578.817 365H571.254ZM580.362 334.176C579.238 334.176 578.308 333.803 577.575 333.058C576.853 332.3 576.557 331.4 576.687 330.359C576.817 329.293 577.326 328.394 578.214 327.66C579.102 326.914 580.108 326.541 581.232 326.541C582.357 326.541 583.274 326.914 583.984 327.66C584.695 328.394 584.991 329.293 584.872 330.359C584.754 331.4 584.251 332.3 583.363 333.058C582.487 333.803 581.487 334.176 580.362 334.176ZM603.928 337.727L602.987 343.409H586.546L587.504 337.727H603.928ZM592.298 331.193H599.862L595.637 356.619C595.518 357.318 595.536 357.862 595.69 358.253C595.844 358.632 596.098 358.898 596.453 359.052C596.82 359.206 597.258 359.283 597.767 359.283C598.122 359.283 598.483 359.253 598.85 359.194C599.217 359.123 599.495 359.07 599.685 359.034L599.969 364.663C599.543 364.793 598.969 364.935 598.247 365.089C597.536 365.243 596.696 365.337 595.725 365.373C593.879 365.444 592.316 365.201 591.038 364.645C589.759 364.077 588.842 363.207 588.286 362.035C587.729 360.863 587.611 359.389 587.931 357.614L592.298 331.193ZM616.38 365.533C613.58 365.533 611.267 364.964 609.433 363.828C607.598 362.68 606.308 361.058 605.562 358.963C604.828 356.856 604.704 354.364 605.189 351.488C605.663 348.683 606.615 346.22 608.048 344.102C609.492 341.983 611.303 340.331 613.48 339.148C615.66 337.964 618.09 337.372 620.76 337.372C622.56 337.372 624.19 337.662 625.64 338.242C627.11 338.81 628.33 339.674 629.3 340.835C630.27 341.983 630.93 343.421 631.29 345.149C631.66 346.877 631.65 348.902 631.27 351.222L630.93 353.299H607.923L608.651 348.612H624.56C624.74 347.522 624.67 346.558 624.35 345.717C624.03 344.877 623.5 344.22 622.75 343.746C622 343.261 621.09 343.018 620 343.018C618.88 343.018 617.84 343.291 616.87 343.835C615.9 344.38 615.08 345.096 614.42 345.984C613.77 346.86 613.35 347.812 613.16 348.842L612.327 353.494C612.09 354.927 612.137 356.116 612.469 357.063C612.812 358.01 613.4 358.72 614.24 359.194C615.08 359.656 616.15 359.886 617.44 359.886C618.28 359.886 619.07 359.768 619.8 359.531C620.55 359.295 621.21 358.945 621.79 358.484C622.37 358.01 622.84 357.424 623.21 356.726L630.12 357.188C629.48 358.868 628.51 360.336 627.21 361.591C625.9 362.834 624.34 363.804 622.5 364.503C620.68 365.189 618.64 365.533 616.38 365.533ZM649.57 328.636H658.18L663.88 344.297H664.27L675.12 328.636H683.73L666.58 352.145L664.43 365H656.8L658.94 352.145L649.57 328.636ZM688.4 365.533C685.61 365.533 683.31 364.941 681.49 363.757C679.67 362.562 678.38 360.904 677.64 358.786C676.9 356.655 676.77 354.175 677.23 351.346C677.68 348.552 678.61 346.108 680.03 344.013C681.45 341.918 683.26 340.29 685.45 339.13C687.64 337.958 690.11 337.372 692.85 337.372C695.62 337.372 697.92 337.97 699.74 339.165C701.57 340.349 702.85 342.006 703.6 344.137C704.34 346.268 704.48 348.748 704.02 351.577C703.56 354.358 702.61 356.797 701.18 358.892C699.75 360.987 697.94 362.621 695.77 363.793C693.59 364.953 691.13 365.533 688.4 365.533ZM689.14 359.673C690.42 359.673 691.55 359.312 692.53 358.59C693.53 357.856 694.35 356.862 695 355.607C695.66 354.341 696.13 352.908 696.39 351.31C696.65 349.736 696.66 348.339 696.44 347.12C696.22 345.889 695.74 344.918 695.02 344.208C694.31 343.498 693.33 343.143 692.09 343.143C690.81 343.143 689.68 343.51 688.68 344.244C687.69 344.966 686.86 345.96 686.21 347.227C685.56 348.493 685.11 349.931 684.85 351.541C684.6 353.104 684.58 354.5 684.79 355.732C685.01 356.951 685.47 357.915 686.19 358.626C686.92 359.324 687.9 359.673 689.14 359.673ZM726.13 353.388L728.74 337.727H736.3L731.76 365H724.49L725.31 360.046H725.03C724.19 361.644 722.96 362.929 721.35 363.899C719.74 364.87 717.91 365.355 715.86 365.355C714.04 365.355 712.5 364.941 711.25 364.112C710.01 363.284 709.12 362.106 708.6 360.579C708.08 359.052 707.99 357.223 708.34 355.092L711.25 337.727H718.81L716.15 353.743C715.9 355.353 716.13 356.625 716.82 357.56C717.52 358.496 718.59 358.963 720.02 358.963C720.93 358.963 721.81 358.756 722.67 358.342C723.53 357.915 724.27 357.288 724.9 356.46C725.53 355.631 725.94 354.607 726.13 353.388ZM737.81 365L742.35 337.727H749.68L748.89 342.486H749.17C749.95 340.793 751 339.515 752.31 338.651C753.64 337.775 755.06 337.337 756.59 337.337C756.97 337.337 757.37 337.36 757.78 337.408C758.21 337.443 758.59 337.502 758.92 337.585L757.78 344.315C757.45 344.196 756.98 344.102 756.36 344.031C755.76 343.948 755.18 343.906 754.64 343.906C753.54 343.906 752.51 344.149 751.57 344.634C750.62 345.108 749.82 345.771 749.17 346.623C748.53 347.475 748.11 348.458 747.91 349.57L745.37 365H737.81ZM769.98 365L776.02 328.636H800.09L799.03 334.975H782.64L781.22 343.64H796.01L794.94 349.979H780.15L777.67 365H769.98ZM816.8 353.388L819.41 337.727H826.98L822.43 365H815.17L815.98 360.046H815.7C814.86 361.644 813.63 362.929 812.03 363.899C810.42 364.87 808.59 365.355 806.54 365.355C804.72 365.355 803.18 364.941 801.92 364.112C800.68 363.284 799.8 362.106 799.28 360.579C798.76 359.052 798.67 357.223 799.01 355.092L801.92 337.727H809.49L806.82 353.743C806.57 355.353 806.8 356.625 807.5 357.56C808.2 358.496 809.26 358.963 810.69 358.963C811.6 358.963 812.49 358.756 813.34 358.342C814.2 357.915 814.95 357.288 815.58 356.46C816.2 355.631 816.61 354.607 816.8 353.388ZM847.53 337.727L846.59 343.409H830.15L831.11 337.727H847.53ZM835.9 331.193H843.47L839.24 356.619C839.12 357.318 839.14 357.862 839.29 358.253C839.45 358.632 839.7 358.898 840.06 359.052C840.42 359.206 840.86 359.283 841.37 359.283C841.73 359.283 842.09 359.253 842.45 359.194C842.82 359.123 843.1 359.07 843.29 359.034L843.57 364.663C843.15 364.793 842.57 364.935 841.85 365.089C841.14 365.243 840.3 365.337 839.33 365.373C837.48 365.444 835.92 365.201 834.64 364.645C833.36 364.077 832.45 363.207 831.89 362.035C831.33 360.863 831.21 359.389 831.53 357.614L835.9 331.193ZM867.34 353.388L869.95 337.727H877.51L872.97 365H865.7L866.52 360.046H866.24C865.4 361.644 864.17 362.929 862.56 363.899C860.95 364.87 859.12 365.355 857.08 365.355C855.25 365.355 853.71 364.941 852.46 364.112C851.22 363.284 850.33 362.106 849.81 360.579C849.29 359.052 849.2 357.223 849.55 355.092L852.46 337.727H860.02L857.36 353.743C857.11 355.353 857.34 356.625 858.03 357.56C858.73 358.496 859.8 358.963 861.23 358.963C862.14 358.963 863.02 358.756 863.88 358.342C864.74 357.915 865.49 357.288 866.11 356.46C866.74 355.631 867.15 354.607 867.34 353.388ZM879.02 365L883.56 337.727H890.9L890.1 342.486H890.38C891.16 340.793 892.21 339.515 893.52 338.651C894.85 337.775 896.28 337.337 897.8 337.337C898.18 337.337 898.58 337.36 898.99 337.408C899.42 337.443 899.8 337.502 900.13 337.585L898.99 344.315C898.66 344.196 898.19 344.102 897.57 344.031C896.97 343.948 896.39 343.906 895.85 343.906C894.75 343.906 893.72 344.149 892.78 344.634C891.83 345.108 891.03 345.771 890.38 346.623C889.74 347.475 889.32 348.458 889.12 349.57L886.58 365H879.02ZM910.56 365.533C907.77 365.533 905.46 364.964 903.62 363.828C901.79 362.68 900.5 361.058 899.75 358.963C899.02 356.856 898.89 354.364 899.38 351.488C899.85 348.683 900.8 346.22 902.24 344.102C903.68 341.983 905.49 340.331 907.67 339.148C909.85 337.964 912.28 337.372 914.95 337.372C916.75 337.372 918.38 337.662 919.83 338.242C921.3 338.81 922.52 339.674 923.49 340.835C924.46 341.983 925.12 343.421 925.48 345.149C925.85 346.877 925.84 348.902 925.46 351.222L925.12 353.299H902.11L902.84 348.612H918.75C918.93 347.522 918.86 346.558 918.54 345.717C918.22 344.877 917.68 344.22 916.94 343.746C916.19 343.261 915.28 343.018 914.19 343.018C913.07 343.018 912.03 343.291 911.06 343.835C910.09 344.38 909.27 345.096 908.61 345.984C907.96 346.86 907.54 347.812 907.35 348.842L906.52 353.494C906.28 354.927 906.33 356.116 906.66 357.063C907 358.01 907.59 358.72 908.43 359.194C909.27 359.656 910.34 359.886 911.63 359.886C912.47 359.886 913.26 359.768 913.99 359.531C914.74 359.295 915.4 358.945 915.98 358.484C916.56 358.01 917.03 357.424 917.4 356.726L924.31 357.188C923.67 358.868 922.7 360.336 921.4 361.591C920.09 362.834 918.53 363.804 916.69 364.503C914.87 365.189 912.83 365.533 910.56 365.533Z" fill="#01304C"/>
<path d="M394.245 280.674C394.196 280.66 394.147 280.645 394.099 280.63C390.935 280.332 386.573 280.218 383.164 281.02C377.276 282.405 356.498 286.215 345.763 290.024C335.027 293.834 318.058 302.145 314.249 303.876C311.201 305.262 307.669 308.84 306.284 310.456C310.093 310.456 445.845 310.803 452.425 310.803C459.004 310.803 491.557 311.149 500.561 307.686C507.764 304.915 516.029 297.066 519.262 293.487C530.343 268.784 552.853 218.478 554.238 214.876C555.97 210.374 557.355 201.716 553.892 196.176C551.122 191.743 544.888 190.866 542.118 190.981L455.888 192.366C454.733 192.482 451.316 193.474 446.884 196.522C442.451 199.569 438.111 209.566 436.495 214.183C444.344 214.183 461.636 214.253 468.008 214.53C474.38 214.807 475.05 218.801 474.588 220.763C467.778 234.846 453.533 264.398 451.039 269.939C448.546 275.48 442.382 278.943 439.611 279.981C427.946 280.58 405.48 281.488 397.076 281.01C395.75 280.935 394.774 280.825 394.245 280.674Z" fill="#01304C"/>
<path d="M509.219 142.845C509.496 145.615 500.792 164.546 496.406 173.666C503.447 174.127 520.578 174.981 532.768 174.704C548.005 174.358 564.974 172.627 572.939 167.086C580.904 161.545 591.986 132.455 593.025 130.377C594.064 128.299 598.566 114.794 595.449 109.253C592.956 104.82 587.253 102.557 584.714 101.98H419.179C414.331 101.98 402.903 100.595 394.592 105.79C386.28 110.984 383.164 116.179 379.701 122.066C376.238 127.953 319.443 254.701 312.864 268.9C306.284 283.098 299.011 300.76 299.358 303.184C299.704 305.608 302.474 310.456 306.284 310.456C307.669 308.84 311.201 305.262 314.249 303.876C318.058 302.145 335.027 293.834 345.763 290.024C356.498 286.215 377.276 282.405 383.164 281.02C386.573 280.218 390.935 280.332 394.099 280.63C390.342 279.43 389.397 274.177 389.397 271.67C407.751 231.037 445.222 148.385 448.269 142.844C452.078 135.918 461.082 134.187 465.238 133.148C469.394 132.109 491.557 132.802 500.215 132.802C508.873 132.802 508.873 139.381 509.219 142.845Z" fill="#549DBE"/>
<path d="M329.904 111.615C326.473 106.897 321.326 103.573 319.182 102.501C292.634 102.587 253.198 102.714 219.165 102.823L203.377 133.597H240.907C241.507 133.597 242.076 133.594 242.616 133.592C249.798 133.558 251.967 133.548 256.454 140.03C260.315 145.606 258.42 152.361 256.99 155.042C241.085 191.32 208.631 264.734 206.058 268.166C202.841 272.455 190.51 278.888 181.932 279.961C175.07 280.818 152.624 280.675 142.258 280.497C133.942 281.93 114.208 285.948 101.802 290.556C86.295 296.316 75.224 304.716 73.003 307.392C71.225 309.534 70.371 310.066 70.166 310.065L211.956 311.056L226.431 308.912L243.587 303.55C249.306 300.333 261.28 293.364 263.424 291.219C265.569 289.075 274.326 280.675 278.436 276.744C297.379 235.64 335.587 152.79 336.874 150.217C338.483 147 338.483 134.669 338.483 130.38C338.483 126.091 334.193 117.513 329.904 111.615Z" fill="#01304C"/>
<path d="M140.65 107.326C138.077 109.471 134.931 115.726 133.68 118.585C108.304 175.236 56.906 289.504 54.333 293.364C51.116 298.189 52.188 301.942 53.261 305.159C54.119 307.732 57.192 309.448 58.622 309.984L70.166 310.065C70.371 310.066 71.225 309.534 73.003 307.392C75.224 304.716 86.295 296.316 101.802 290.556C114.208 285.948 133.942 281.93 142.258 280.497L139.042 277.28L203.377 133.597L219.165 102.823C182.407 102.941 151.95 103.037 150.837 103.037C148.156 103.037 143.867 104.646 140.65 107.326Z" fill="#549DBE"/>
<path d="M584.917 309.695L666.06 132.252L601.11 131.747C601.11 128.75 601.978 121.625 605.453 117.1C609.797 111.443 616.77 105.887 620.1 104.069C622.77 102.614 624.92 101.981 625.66 101.847L825.31 101.363C825.59 102.796 825.91 106.191 824.98 108.307C823.82 110.953 817.54 120.874 812.74 123.685C807.95 126.496 802 129.307 799.68 130.134C797.83 130.795 793.95 131.732 792.24 132.118H745.45L670.21 295.156C668.78 297.526 664.98 303.06 661.28 306.235C656.65 310.203 651.36 311.03 648.38 311.196C645.41 311.361 587.864 312.353 587.037 312.022C586.376 311.758 585.349 310.36 584.917 309.695Z" fill="url(#paint0_radial_393_243)"/>
<path d="M946.17 148.904L950.61 140.23C951.25 139.102 952.18 136.422 950.82 134.73C949.13 132.614 948.28 131.98 944.26 131.98H900.26C898.92 132.121 895.69 132.91 893.49 134.941L893.34 135.075C890.67 137.541 888.79 139.274 886.51 144.884C884.18 150.597 869.37 181.272 869.37 183.176C869.37 185.08 870.22 187.831 872.12 189.1C874.03 190.369 974.94 191.85 978.11 192.273L978.13 192.276C981.32 192.701 989.33 193.769 992.71 200.312C996.1 206.871 993.56 215.333 990.81 222.738C988.61 228.661 967.46 274.428 957.17 296.571C955.97 298.122 952.51 301.902 948.28 304.61C942.99 307.995 936.01 309.688 931.78 310.534C928.4 311.211 808.94 310.816 749.63 310.534C747.66 310.04 743.16 307.995 740.96 303.764C738.21 298.475 744.77 282.608 749.63 276.896C754.5 271.184 764.44 263.78 776.92 260.818C786.91 258.448 819.3 258.42 834.25 258.702C833.55 261.17 831.8 266.784 830.45 269.492C828.75 272.877 826.85 275.838 827.48 277.531C828.12 279.223 827.27 279.858 844.83 279.435C862.39 279.012 878.26 279.435 881.22 278.377C884.18 277.319 889.05 276.473 893.07 265.895C896.28 257.433 907.95 232.046 913.38 220.41C913.38 218.647 912.66 214.995 909.78 214.487C906.18 213.852 897.51 213.217 894.12 213.217C891.42 213.217 830.8 212.089 800.83 211.525C797.51 211.172 790.25 209.325 787.71 204.755C784.54 199.043 787.29 192.273 787.92 189.946C788.56 187.619 818.18 124.998 820.29 121.613C822.41 118.228 825.58 112.728 833.83 107.439C842.08 102.15 851.18 102.15 854.35 101.515C857.53 100.88 1024.66 101.304 1027.19 101.727C1029.73 102.15 1036.29 104.477 1037.77 109.766C1039.25 115.055 1032.48 130.922 1026.56 137.48C1020.64 144.038 1010.48 146.154 1004.35 147C999.44 147.677 963.52 148.552 946.17 148.904Z" fill="#01304C"/>
<path d="M814.11 459.73C813.08 458.86 812.92 458.23 813.08 457.12C813.24 456.02 826.42 434.229 827.53 432.097C828.63 429.965 840.48 410.78 842.92 408.648C845.37 406.516 847.74 405.49 856.5 404.779C863.52 404.211 913.22 404.332 937.19 404.463C935.69 407.858 931.16 415.517 925.04 418.991C917.38 423.333 902.93 423.965 898.11 424.044C894.26 424.107 866.4 424.017 852.95 423.965C850.43 427.991 845.29 436.25 844.98 437.071C844.58 438.097 844.9 438.966 846.48 439.124C847.74 439.25 878.8 439.124 894.16 439.045C895.56 439.045 899.11 439.597 902.14 441.808C905.93 444.571 908.53 448.598 908.38 455.15C908.22 461.7 903.64 470.15 900.32 474.26C897.01 478.36 891.16 483.97 881.06 489.81C870.95 495.65 858.72 495.5 852.24 495.5C845.77 495.5 798 495.02 795.87 495.5C793.74 495.97 792.79 494.78 793.74 492.97C794.69 491.15 801.63 481.05 808.42 477.81C815.21 474.57 822.95 474.97 827.37 475.05C831.79 475.13 872.06 475.76 876.4 474.18C880.74 472.6 885.24 468.81 885.56 465.49C885.87 462.18 883.19 460.12 880.66 459.81C878.64 459.56 835.45 459.65 814.11 459.73Z" fill="url(#paint1_radial_393_243)"/>
<path d="M729.24 422.707C731.44 419.289 736.65 411.916 741.02 408.609C746.47 404.475 755.2 404.785 759.01 404.62C762.81 404.455 803.82 403.869 806.79 403.959C810.81 404.08 814.47 404.437 819.1 407.413C823.73 410.39 824.17 416.393 823.34 421.353C822.51 426.314 817.54 438.352 807.12 447.116C796.71 455.88 783.97 459.35 767.6 459.68C751.23 460.01 736.49 459.02 733.35 459.68C730.21 460.34 725.72 462.12 722.24 468.07C719.47 472.83 719.27 474.85 719.71 474.8C744.02 474.69 791.68 474.43 792.74 474.56C794.06 474.73 793.54 477.48 792.78 478.93C791.56 481.26 787.29 486.48 784.08 489.05C781.15 491.4 773.23 495.07 765.12 495.23C757.02 495.4 690.08 496.13 688.59 495.8C687.1 495.47 686.84 494.13 687.17 492.97C687.5 491.81 703.8 465.05 706.94 460.91C710.08 456.78 715.58 451.349 722.43 447.091C726.65 444.471 734.7 440.832 742.14 440.006C749.58 439.179 785.03 440.515 788.83 439.192C792.63 437.87 798.63 434.228 800.12 431.417C801.61 428.606 801.61 426.838 800.12 425.185C798.63 423.531 793.23 423.801 785.13 423.801C777.03 423.801 734.34 423.85 732.19 423.85C730.47 423.85 729.35 422.982 729.24 422.707Z" fill="url(#paint2_radial_393_243)"/>
<path fill-rule="evenodd" clip-rule="evenodd" d="M599.462 495.36L658.47 495.08C666.23 494.94 675.8 488.75 680.36 485.39C685.18 481.84 689.52 476.7 692.57 472.62L718.29 430.664C719.46 426.875 721.32 418.105 719.37 413.341C717.42 408.578 712.06 405.763 709.63 404.951L655.76 403.868C652.15 404.68 642.99 407.603 635.19 412.8C627.4 417.997 618.59 428.138 615.16 432.559L592.154 470.72C591.071 473.43 589.177 480.2 590.259 485.61C591.342 491.02 596.846 494.36 599.462 495.36ZM692.02 424.485L648.69 424.384C647.04 424.822 643.23 426.04 641.21 427.414C638.69 429.131 635.96 431.354 634.65 432.768C633.33 434.182 629.19 440.142 627.27 443.273C625.35 446.405 617.98 458.63 616.46 461.46C614.95 464.28 613.94 468.22 614.85 470.75C615.57 472.77 617.91 473.41 618.99 473.48C633.3 473.51 662.32 473.56 663.94 473.48C665.96 473.38 669.19 472.26 672.73 469.64C676.26 467.01 682.32 459.23 688.69 448.223C695.05 437.213 696.77 432.768 696.57 428.828C696.41 425.677 693.47 424.62 692.02 424.485Z" fill="url(#paint3_radial_393_243)"/>
<path d="M520.896 423.14C523.101 419.722 528.602 412.061 532.967 408.754C538.424 404.62 545.203 404.785 549.006 404.62C552.81 404.455 593.817 403.959 596.793 403.959C599.77 403.959 606.549 404.124 611.179 407.1C615.81 410.077 615.97 415.699 615.15 420.659C614.32 425.62 607.541 438.352 597.124 447.116C586.707 455.88 573.975 459.35 557.605 459.68C541.235 460.01 526.684 459.02 523.542 459.68C520.4 460.34 514.117 462.99 510.645 468.94C507.867 473.7 508.054 474.78 508.495 474.73C532.802 474.62 581.68 474.43 582.738 474.56C584.048 474.73 583.348 476.06 582.597 477.5L582.573 477.54C581.356 479.86 575.04 487.21 571.825 489.78C568.898 492.12 563.227 495.07 555.124 495.23C547.022 495.4 477.905 495.56 476.416 495.23C474.928 494.9 475.259 493.91 475.59 492.75C475.92 491.6 493.613 464.81 496.755 460.67C499.897 456.54 505.584 451.349 512.434 447.091C516.649 444.471 524.7 440.832 532.14 440.006C539.581 439.179 576.786 440.502 580.589 439.179C584.392 437.856 590.014 433.888 591.502 431.077C592.99 428.266 593.311 426.907 591.822 425.253C590.334 423.6 583.234 423.801 575.132 423.801C567.03 423.801 525.526 423.966 523.377 423.966C521.657 423.966 521.007 423.415 520.896 423.14Z" fill="url(#paint4_radial_393_243)"/>
<mask id="mask0_393_243" style="mask-type:alpha" maskUnits="userSpaceOnUse" x="52" y="102" width="287" height="210">
<path d="M329.904 111.615C326.473 106.897 321.326 103.573 319.182 102.501C292.634 102.587 253.198 102.714 219.165 102.823L203.377 133.597H240.907C241.507 133.597 242.076 133.594 242.616 133.592C249.798 133.558 251.967 133.548 256.454 140.03C260.315 145.606 258.42 152.361 256.99 155.042C241.085 191.32 208.631 264.734 206.058 268.166C202.841 272.455 190.51 278.888 181.932 279.961C175.07 280.818 152.624 280.675 142.258 280.497C133.942 281.93 114.208 285.948 101.802 290.556C86.295 296.316 75.224 304.716 73.003 307.392C71.225 309.534 70.371 310.066 70.166 310.065L211.956 311.056L226.431 308.912L243.587 303.55C249.306 300.333 261.28 293.364 263.424 291.219C265.569 289.075 274.326 280.675 278.436 276.744C297.379 235.64 335.587 152.79 336.874 150.217C338.483 147 338.483 134.669 338.483 130.38C338.483 126.091 334.193 117.513 329.904 111.615Z" fill="#01304C"/>
<path d="M140.65 107.326C138.077 109.471 134.931 115.726 133.68 118.585C108.304 175.236 56.906 289.504 54.333 293.364C51.116 298.189 52.188 301.942 53.261 305.159C54.119 307.732 57.192 309.448 58.622 309.984L70.166 310.065C70.371 310.066 71.225 309.534 73.003 307.392C75.224 304.716 86.295 296.316 101.802 290.556C114.208 285.948 133.942 281.93 142.258 280.497L139.042 277.28L203.377 133.597L219.165 102.823C182.407 102.941 151.95 103.037 150.837 103.037C148.156 103.037 143.867 104.646 140.65 107.326Z" fill="#549DBE"/>
</mask>
<g mask="url(#mask0_393_243)">
<g filter="url(#filter0_f_393_243)">
<path d="M182.761 83.3019L112.14 146.661L175.48 175.904L205.33 178.119L260.662 144.446C258.963 130.415 252.508 98.366 240.277 82.416C228.045 66.465 208.485 61.5909 200.234 61.1479L182.761 83.3019Z" fill="#549DBE"/>
</g>
</g>
<mask id="mask1_393_243" style="mask-type:alpha" maskUnits="userSpaceOnUse" x="299" y="101" width="298" height="210">
<path d="M394.245 280.674C394.196 280.66 394.147 280.645 394.099 280.63C390.935 280.332 386.573 280.218 383.164 281.02C377.276 282.405 356.498 286.215 345.763 290.024C335.027 293.834 318.058 302.145 314.249 303.876C311.201 305.262 307.669 308.84 306.284 310.456C310.093 310.456 445.845 310.803 452.425 310.803C459.004 310.803 491.557 311.149 500.561 307.686C507.764 304.915 516.029 297.066 519.262 293.487C530.343 268.784 552.853 218.478 554.238 214.876C555.97 210.374 557.355 201.716 553.892 196.176C551.122 191.743 544.888 190.866 542.118 190.981L455.888 192.366C454.733 192.482 451.316 193.474 446.884 196.522C442.451 199.569 438.111 209.566 436.495 214.183C444.344 214.183 461.636 214.253 468.008 214.53C474.38 214.807 475.05 218.801 474.588 220.763C467.778 234.846 453.533 264.398 451.039 269.939C448.546 275.48 442.382 278.943 439.611 279.981C427.946 280.58 405.48 281.488 397.076 281.01C395.75 280.935 394.774 280.825 394.245 280.674Z" fill="#01304C"/>
<path d="M509.219 142.845C509.496 145.615 500.792 164.546 496.406 173.666C503.447 174.127 520.578 174.981 532.768 174.704C548.005 174.358 564.974 172.627 572.939 167.086C580.904 161.545 591.986 132.455 593.025 130.377C594.064 128.299 598.566 114.794 595.449 109.253C592.956 104.82 587.253 102.557 584.714 101.98H419.179C414.331 101.98 402.903 100.595 394.592 105.79C386.28 110.984 383.164 116.179 379.701 122.066C376.238 127.953 319.443 254.701 312.864 268.9C306.284 283.098 299.011 300.76 299.358 303.184C299.704 305.608 302.474 310.456 306.284 310.456C307.669 308.84 311.201 305.262 314.249 303.876C318.058 302.145 335.027 293.834 345.763 290.024C356.498 286.215 377.276 282.405 383.164 281.02C386.573 280.218 390.935 280.332 394.099 280.63C390.342 279.43 389.397 274.177 389.397 271.67C407.751 231.037 445.222 148.385 448.269 142.844C452.078 135.918 461.082 134.187 465.238 133.148C469.394 132.109 491.557 132.802 500.215 132.802C508.873 132.802 508.873 139.381 509.219 142.845Z" fill="#549DBE"/>
</mask>
<g mask="url(#mask1_393_243)">
<g filter="url(#filter1_f_393_243)">
<path d="M517.22 253.897C525.091 231.659 509.683 205.748 468.277 223.539L428.35 246.669L413.22 259.419C421.163 262.551 433.413 274.348 435.434 277.75C440.586 286.425 502.43 295.683 517.22 253.897Z" fill="#549DBE"/>
</g>
</g>
<defs>
<filter id="filter0_f_393_243" x="80.14" y="29.1479" width="212.522" height="180.971" filterUnits="userSpaceOnUse" color-interpolation-filters="sRGB">
<feFlood flood-opacity="0" result="BackgroundImageFix"/>
<feBlend mode="normal" in="SourceGraphic" in2="BackgroundImageFix" result="shape"/>
<feGaussianBlur stdDeviation="16" result="effect1_foregroundBlur_393_243"/>
</filter>
<filter id="filter1_f_393_243" x="389.22" y="193.621" width="153.983" height="115.543" filterUnits="userSpaceOnUse" color-interpolation-filters="sRGB">
<feFlood flood-opacity="0" result="BackgroundImageFix"/>
<feBlend mode="normal" in="SourceGraphic" in2="BackgroundImageFix" result="shape"/>
<feGaussianBlur stdDeviation="12" result="effect1_foregroundBlur_393_243"/>
</filter>
<radialGradient id="paint0_radial_393_243" cx="0" cy="0" r="1" gradientUnits="userSpaceOnUse" gradientTransform="translate(632.03 99.757) rotate(70.9715) scale(224.606 256.531)">
<stop stop-color="#549DBE"/>
<stop offset="0.834944" stop-color="#01304C"/>
</radialGradient>
<radialGradient id="paint1_radial_393_243" cx="0" cy="0" r="1" gradientUnits="userSpaceOnUse" gradientTransform="translate(524.249 419.081) rotate(10.9541) scale(306.823 61.1255)">
<stop offset="0.0714142" stop-color="#549DBE"/>
<stop offset="1" stop-color="#01304C"/>
</radialGradient>
<radialGradient id="paint2_radial_393_243" cx="0" cy="0" r="1" gradientUnits="userSpaceOnUse" gradientTransform="translate(524.249 419.081) rotate(10.9541) scale(306.823 61.1255)">
<stop offset="0.0714142" stop-color="#549DBE"/>
<stop offset="1" stop-color="#01304C"/>
</radialGradient>
<radialGradient id="paint3_radial_393_243" cx="0" cy="0" r="1" gradientUnits="userSpaceOnUse" gradientTransform="translate(524.249 419.081) rotate(10.9541) scale(306.823 61.1255)">
<stop offset="0.0714142" stop-color="#549DBE"/>
<stop offset="1" stop-color="#01304C"/>
</radialGradient>
<radialGradient id="paint4_radial_393_243" cx="0" cy="0" r="1" gradientUnits="userSpaceOnUse" gradientTransform="translate(524.249 419.081) rotate(10.9541) scale(306.823 61.1255)">
<stop offset="0.0714142" stop-color="#549DBE"/>
<stop offset="1" stop-color="#01304C"/>
</radialGradient>
</defs>
</svg>
