<svg width="635" height="182" viewBox="0 0 635 182" fill="none" xmlns="http://www.w3.org/2000/svg">
<g opacity="0.5">
<path fill-rule="evenodd" clip-rule="evenodd" d="M285.023 182C285.482 180.977 285.875 179.965 286.228 178.993C282.998 178.121 280.202 178.184 277.391 178.247C271.919 178.37 266.392 178.494 257.502 171.723C244.594 161.941 237.781 158.466 227.373 158.67C220.833 158.787 215.698 161.415 212.514 165.065C210.151 163.926 205.94 164.16 204.331 164.423C201.371 164.887 198.169 165.841 195.228 166.717C190.038 168.263 185.658 169.568 184.85 167.518C186.323 166.757 187.757 165.885 189.256 164.972C191.731 163.466 194.385 161.851 197.689 160.452C198.254 160.209 198.816 159.962 199.383 159.713C204.683 157.381 210.342 154.892 222.066 154.787C223.778 145.618 215.835 141.968 203.509 140.8C212.206 133.822 225.456 131.778 235.932 138.231C227.955 143.019 225.832 149.327 229.77 153.882C232.269 152.83 237.781 152.655 242.335 153.677C249.647 155.333 254.451 158.794 258.92 162.013C263.909 165.606 268.478 168.898 275.648 169.036C282.94 169.167 289.909 165.803 296.152 162.79C301.048 160.427 305.497 158.28 309.304 158.203C326.251 157.853 333.955 155.809 340.46 153.56C345.306 151.89 348.898 149.144 352.312 146.535C356.953 142.987 361.265 139.691 367.953 139.691C366.858 134.687 362.887 133.864 354.547 132.137C352.715 131.758 350.672 131.335 348.403 130.814C341.248 129.179 335.701 125.909 332.585 123.456C331.858 122.889 331.149 122.317 330.438 121.743C323.828 116.407 317.044 110.932 293.212 108.243C283.573 107.158 276.106 102.436 268.909 97.8846C256.729 90.1814 245.319 82.966 225.456 94.6943C207.754 105.139 198.087 103.815 189.1 102.583C186.354 102.207 183.672 101.839 180.844 101.819C172.079 101.79 161.842 105.089 143.867 121.996C133.698 131.544 127.33 132.391 121.099 132.42C107.164 132.478 93.9141 139.983 87.0323 148.947C92.4077 149.765 98.9128 151.02 104.322 153.59C115.142 158.729 119.216 160.51 123.804 160.656C126.398 160.738 128.68 160.367 130.871 160.011C134.926 159.353 138.667 158.745 143.49 161.152C153.111 165.97 160.404 168.511 166.19 169.649C165.675 174.359 166.401 178.489 168.074 182H176.196C173.927 178.974 172.795 175.098 173.346 170.379C174.955 170.379 176.564 170.263 178.139 169.971C179.235 172.248 181.392 173.533 183.651 173.942C187.347 174.598 191.607 173.278 196.025 171.91C198.483 171.148 200.99 170.371 203.475 169.912C204.947 169.649 207.652 169.62 209.672 169.971C209.33 171.022 209.124 172.102 209.056 173.183C208.875 176.493 209.881 179.516 211.71 182H223.611C218.739 180.839 216.362 176.454 216.896 172.423C217.41 168.657 222.032 165.182 227.852 164.89C233.707 164.569 240.76 167.43 252.572 176.278C255.303 178.334 259.015 180.461 263.064 182H285.023ZM173.209 141.705C181.871 140.713 186.219 146.202 185.021 151.02C183.925 155.283 179.645 158.67 173.346 159.021C163.759 159.605 156.775 153.093 155.85 146.757C150.509 144.917 145.579 145.472 140.477 147.078C140.409 142.114 145.921 138.026 156.603 140.421C158.863 134.26 165.368 129.675 174.373 129.412C179.577 121.383 184.952 119.163 191.047 118.404C193.26 118.125 195.605 118.107 198.148 118.089C205.165 118.037 213.698 117.975 225.182 112.36C237.53 106.306 242.381 109.291 249.342 113.573C255.003 117.057 262.06 121.399 275.682 122.434C279.791 121.149 284.413 120.828 287.871 121.091C298.04 121.908 304.237 129.15 304.716 136.304C310.879 134.201 321.903 134.99 320.671 143.428C315.364 140.975 308.996 140.129 303.141 143.428C300.573 148.363 294.89 152.509 286.33 152.947C274.552 153.59 269.074 145.764 270.547 140.07C271.916 134.785 279.209 130.814 286.159 135.311L285.543 137.53C281.64 136.42 278.969 138.581 278.524 141.063C278.045 143.72 280.099 146.728 285.885 146.465C291.843 146.202 296.088 141.53 296.191 137.442C296.328 133.15 292.322 129.15 288.076 128.274C281.759 126.984 277.548 128.927 271.082 131.911C269.348 132.711 267.451 133.586 265.308 134.493C260.808 136.386 256.598 137.215 253.205 137.883C250.893 138.339 248.961 138.719 247.573 139.311C243.841 140.859 239.904 143.516 236.994 147.224C239.288 147.224 241.616 147.399 243.773 147.808C252.094 149.335 257.706 153.227 262.635 156.646C267.318 159.893 271.385 162.713 276.573 162.671C281.962 162.627 287.335 160.021 292.746 157.397C298.129 154.787 303.55 152.159 309.064 152.013C325.053 151.575 331.593 149.648 337.516 147.545C343.219 145.543 346.154 143.197 348.893 141.008C350.068 140.069 351.207 139.16 352.512 138.318C340.871 136.158 332.106 131.836 327.176 127.953C327.041 127.846 326.906 127.74 326.772 127.633C326.562 127.467 326.354 127.301 326.145 127.135C319.726 122.036 313.086 116.76 292.288 114.404C280.335 113.034 272.158 107.721 264.856 102.977C254.253 96.0876 245.495 90.3968 229.701 99.7166C209.448 111.688 199.09 110.274 189.896 109.018C186.734 108.586 183.709 108.174 180.467 108.33C172.866 108.71 164.341 111.98 149.345 126.055C136.212 138.419 129.375 138.413 122.037 138.405H122.028C121.64 138.405 121.251 138.404 120.859 138.406C115.21 138.464 107.746 140.041 99.803 145.881C103.295 146.348 106.582 147.37 108.739 148.392C109.77 148.878 110.713 149.326 111.581 149.738L111.605 149.749L111.618 149.755C118.389 152.97 120.57 154.005 124.146 154.057C126.315 154.1 128.282 153.803 130.257 153.504C134.922 152.798 139.635 152.084 147.188 155.838C161.02 162.7 168.929 164.569 174.818 163.897C179.326 163.396 182.629 161.394 186.498 159.048C188.711 157.707 191.11 156.253 194.025 154.904C198.75 152.743 204.228 150.436 213.815 149.473C212.274 148.275 210.151 147.429 206.385 147.312C196.009 146.933 190.541 143.225 185.936 140.102C182.38 137.692 179.34 135.631 174.955 135.72C166.053 135.924 163.177 141.53 163.485 145.706C163.862 150.816 168.621 153.122 172.524 153.093C179.988 153.035 178.892 145.093 172.182 144.129C172.216 144.129 173.209 142.289 173.209 141.705ZM181.597 130.639C184.769 131.841 187.799 133.732 190.824 135.62C192.501 136.667 194.177 137.713 195.874 138.64C206.385 127.456 226.859 123.251 242.472 134.376C243.773 133.792 244.971 133.325 246.101 132.916C247.729 132.31 249.626 131.866 251.821 131.352C255.444 130.504 259.881 129.466 265.274 127.193C255.766 125.194 250.289 121.785 245.978 119.101C240.153 115.475 236.456 113.174 227.818 117.47C214.338 124.167 205.316 123.917 198.54 123.73C195.833 123.655 193.485 123.59 191.355 123.981C187.863 124.624 184.61 126.288 181.597 130.639Z" fill="#D9D9D9"/>
<path fill-rule="evenodd" clip-rule="evenodd" d="M456.102 182C455.58 178.141 458.282 173.808 464.127 170.321C457.382 166.145 449.507 165.532 442.42 167.459C438.483 168.51 434.785 170.379 431.67 172.891C435.812 173.27 439.476 173.942 442.42 175.022C446.509 176.49 449.262 178.714 450.166 182H438.461C439.57 181.834 440.738 181.688 441.975 181.563C440.469 180.366 438.346 179.519 434.58 179.373C424.214 178.994 418.745 175.293 414.143 172.177C410.582 169.767 407.54 167.708 403.149 167.81C394.248 167.985 391.337 173.621 391.646 177.767C391.773 179.49 392.398 180.895 393.322 182H384.974C384.492 180.958 384.166 179.886 384.011 178.818C378.669 177.008 373.773 177.562 368.638 179.168C368.604 174.204 374.082 170.087 384.764 172.511C387.023 166.35 393.529 161.766 402.533 161.474C407.737 153.473 413.113 151.254 419.241 150.465C421.464 150.183 423.818 150.166 426.374 150.149C430.946 150.118 436.162 150.082 442.42 148.509C445.741 147.662 449.37 146.377 453.342 144.421C465.706 138.368 470.566 141.359 477.528 145.643C483.194 149.13 490.251 153.473 503.877 154.494C507.985 153.21 512.573 152.918 516.066 153.18C526.234 153.998 532.397 161.24 532.911 168.393C539.073 166.291 550.098 167.079 548.865 175.518C543.558 173.065 537.19 172.219 531.336 175.489C530.042 177.99 527.957 180.284 525.111 182H502.891C499.325 179.33 497.901 175.393 498.741 172.16C500.111 166.875 507.403 162.904 514.354 167.401L513.737 169.62C509.834 168.51 507.164 170.671 506.719 173.153C506.239 175.81 508.294 178.818 514.08 178.555C520.037 178.292 524.283 173.62 524.385 169.532C524.522 165.211 520.516 161.24 516.271 160.364C509.953 159.074 505.744 161.017 499.277 164C497.543 164.8 495.646 165.675 493.503 166.583C488.968 168.491 484.729 169.318 481.322 169.982C479.045 170.427 477.14 170.798 475.768 171.372C472.036 172.949 468.098 175.606 465.188 179.314C467.482 179.285 469.81 179.489 471.967 179.869C474.65 180.366 477.051 181.108 479.238 182H456.102ZM470.666 166.466C461.901 160.218 451.63 158.787 442.42 160.744C435.196 162.233 428.657 165.795 424.069 170.701C422.357 169.776 420.668 168.724 418.975 167.669C415.961 165.791 412.936 163.907 409.757 162.729C412.77 158.378 416.023 156.685 419.549 156.042C421.647 155.669 423.962 155.734 426.628 155.81C430.837 155.929 435.923 156.072 442.42 154.553C446.392 153.648 450.877 152.1 455.978 149.56C464.64 145.262 468.344 147.566 474.177 151.195C478.49 153.878 483.966 157.285 493.469 159.283C488.029 161.575 483.562 162.612 479.923 163.457C477.767 163.957 475.9 164.39 474.296 164.977C473.166 165.386 471.967 165.882 470.666 166.466Z" fill="#D9D9D9"/>
<path d="M575.836 182C577.485 180.911 579.01 179.748 580.501 178.611C585.144 175.07 589.457 171.781 596.148 171.781C595.047 166.752 591.039 165.926 582.614 164.19C580.815 163.819 578.814 163.407 576.598 162.904C569.442 161.269 563.896 157.969 560.746 155.546C560.049 154.998 559.368 154.444 558.688 153.891L558.686 153.889L558.682 153.886C552.072 148.514 545.328 143.032 521.372 140.333C511.749 139.249 504.293 134.529 497.103 129.979C484.928 122.274 473.518 115.053 453.65 126.784C449.473 129.237 445.775 131.018 442.42 132.332C431.448 136.605 424.19 135.611 417.324 134.671C414.571 134.294 411.88 133.926 409.038 133.909C400.239 133.851 390.036 137.18 372.062 154.057C361.859 163.634 355.525 164.452 349.259 164.481C335.324 164.569 322.074 172.073 315.193 181.008C316.97 181.286 318.863 181.606 320.794 182H340.186C340.089 181.954 339.992 181.907 339.893 181.86L339.848 181.839C338.96 181.415 337.993 180.954 336.934 180.453C334.777 179.46 331.456 178.438 327.998 177.942C335.941 172.131 343.37 170.525 349.054 170.496C349.283 170.494 349.512 170.493 349.741 170.493C349.914 170.492 350.086 170.492 350.258 170.491L350.275 170.491C357.597 170.474 364.433 170.457 377.54 158.145C392.536 144.041 401.061 140.771 408.662 140.421C411.892 140.268 414.907 140.679 418.059 141.108C424.563 141.994 431.651 142.96 442.42 139.223C446.871 137.676 451.973 135.31 457.896 131.806C473.687 122.471 482.445 128.161 493.045 135.048C500.348 139.793 508.526 145.107 520.482 146.465C541.279 148.848 547.92 154.124 554.338 159.224L554.897 159.668C555.055 159.793 555.212 159.918 555.37 160.042C560.301 163.926 569.031 168.247 580.706 170.408C579.401 171.25 578.263 172.159 577.088 173.098C574.349 175.287 571.413 177.633 565.71 179.635C563.302 180.473 560.803 181.293 557.625 182H575.836Z" fill="#D9D9D9"/>
<path d="M637 165.314V158.377C635.321 157.62 633.542 156.775 631.652 155.838C624.1 152.084 619.386 152.797 614.721 153.503C612.746 153.802 610.78 154.1 608.61 154.056C605.034 154.005 602.853 152.969 596.082 149.755L596.061 149.745C595.189 149.331 594.239 148.88 593.203 148.392C591.046 147.37 587.759 146.348 584.267 145.881C592.21 140.041 599.674 138.464 605.323 138.406C605.718 138.404 606.11 138.404 606.501 138.405C613.84 138.412 620.676 138.419 633.809 126.054C634.907 125.024 635.97 124.052 637 123.134V114.388C634.32 116.552 631.442 119.07 628.331 121.995C618.163 131.544 611.794 132.39 605.563 132.42C591.628 132.478 578.378 139.982 571.496 148.947C576.872 149.764 583.377 151.02 588.786 153.589C599.606 158.728 603.68 160.51 608.268 160.656C610.862 160.738 613.144 160.367 615.335 160.011C619.39 159.352 623.131 158.744 627.955 161.152C631.228 162.792 634.233 164.167 637 165.314Z" fill="#D9D9D9"/>
<path d="M637 96.2277V89.9216C629.662 89.9174 623.764 86.0854 617.149 81.7873C609.845 77.0421 601.667 71.7287 589.711 70.3708C568.846 67.9796 562.199 62.6763 555.788 57.5615L555.782 57.5565C555.462 57.3014 555.143 57.0468 554.823 56.793C549.892 52.9095 541.128 48.5879 529.487 46.4272C530.793 45.5852 531.929 44.6748 533.101 43.7355C535.831 41.5474 538.758 39.2021 544.483 37.2001C550.406 35.127 556.945 33.1706 572.934 32.7326C578.427 32.5871 583.835 29.9626 589.209 27.3546C594.621 24.7283 599.998 22.1188 605.392 22.0748C610.605 22.0321 614.685 24.8618 619.383 28.12C624.064 31.3669 629.359 35.0393 637 36.7184V30.3694C631.129 28.5611 626.961 25.5559 623.049 22.7353C618.065 19.1418 613.497 15.8478 606.35 15.7093C599.042 15.5784 592.077 18.9398 585.836 21.952C580.938 24.3162 576.485 26.4653 572.661 26.5423C555.747 26.8927 548.044 28.9659 541.538 31.2142C536.692 32.8848 533.094 35.6252 529.676 38.2286C525.029 41.7683 520.714 45.0548 514.046 45.0548C515.146 50.0836 519.152 50.909 527.578 52.645L527.58 52.6453L527.581 52.6456L527.585 52.6463C529.382 53.0167 531.381 53.4285 533.595 53.9314C540.717 55.5666 546.297 58.8662 549.413 61.2897C550.125 61.8468 550.818 62.4084 551.513 62.9711C558.14 68.3366 564.895 73.8071 588.786 76.5027C598.425 77.5871 605.887 82.3088 613.08 86.8603C620.616 91.6295 627.858 96.2119 637 96.2277Z" fill="#D9D9D9"/>
<path d="M637 21.539V13.7551C634.707 12.3002 632.198 10.5504 629.427 8.46785C623.88 4.29232 614.259 -0.145997 606.042 0.58399C606.189 0.408834 606.361 0.233677 606.515 0.0768965L606.516 0.075612L606.59 0H598.373C597.243 1.92717 596.456 3.91273 595.771 5.7523C599.001 6.62427 601.793 6.56483 604.6 6.50507C610.065 6.38873 615.585 6.27122 624.496 13.023C629.349 16.7105 633.346 19.5017 637 21.539Z" fill="#D9D9D9"/>
<path d="M637 44.2044C636.139 44.6811 635.276 45.1009 634.425 45.4636C633.054 46.0369 631.149 46.4086 628.871 46.853C625.465 47.5176 621.225 48.3448 616.69 50.2523C614.531 51.1639 612.621 52.0425 610.877 52.8454C604.406 55.823 600.198 57.7596 593.888 56.4718C589.677 55.5958 585.637 51.6247 585.774 47.3032C585.911 43.2152 590.156 38.5433 596.113 38.2805C601.865 38.0177 603.954 41.0253 603.475 43.6824C603.029 46.1644 600.359 48.3251 596.422 47.2156L595.839 49.4347C602.79 53.9314 610.082 49.9603 611.452 44.6752C612.89 39.0105 607.446 31.1851 595.634 31.7982C587.109 32.2362 581.425 36.3826 578.823 41.3465C572.969 44.6168 566.635 43.77 561.328 41.3173C560.095 49.7559 571.086 50.5443 577.283 48.4419C577.762 55.5958 583.925 62.8373 594.128 63.6549C597.586 63.9177 602.208 63.6257 606.316 62.3409C619.925 63.3627 626.981 67.7048 632.646 71.1912C634.164 72.1252 635.583 72.9984 637 73.7292V66.2523C636.686 66.0587 636.367 65.8599 636.041 65.657L636.02 65.6443C631.709 62.9608 626.233 59.5515 616.725 57.5522C622.146 55.2586 626.622 54.2218 630.27 53.3767C632.427 52.8769 634.295 52.4442 635.898 51.8583C636.252 51.7262 636.62 51.585 637 51.4347V44.2044Z" fill="#D9D9D9"/>
<path d="M637 139.789C628.99 139.153 624.882 142.788 624.942 147.078C628.972 145.809 632.896 145.196 637 145.902V139.789Z" fill="#D9D9D9"/>
<path d="M413.366 182C413.725 177.493 409.403 172.879 401.369 173.796C401.403 174.35 400.41 176.219 400.376 176.19C404.228 176.763 406.234 179.649 405.801 182H413.366Z" fill="#D9D9D9"/>
<path d="M239.257 182C239.651 181.208 239.913 180.391 240.041 179.577C240.657 175.869 238.534 172.248 233.433 171.197C230.283 170.555 226.654 171.285 223.881 174.146L225.421 176.102C233.077 173.647 235.179 180.465 228.865 182H239.257Z" fill="#D9D9D9"/>
<path fill-rule="evenodd" clip-rule="evenodd" d="M442.42 56.1802C445.639 55.859 448.96 55.625 452.281 55.8878C460.282 56.4871 467.894 59.8127 475.384 63.0851C479.206 64.7551 482.998 66.4116 486.792 67.6844C493.357 69.8868 497.639 70.1059 500.9 70.2727C504.816 70.473 507.259 70.598 510.416 73.9915C501.96 76.8239 493.024 80.1818 487.443 86.6349C477.395 98.2389 469.724 99.353 455.646 101.398L455.63 101.4C455.083 101.479 454.526 101.56 453.958 101.643C449.713 102.257 446.289 105.439 442.42 109.352C442.134 109.639 441.846 109.929 441.556 110.223L441.431 110.349C434.424 117.418 425.747 126.171 408.491 126.171C399.794 126.171 393.221 123.31 388.872 119.017C374.455 124.387 365.36 119.755 354.196 114.068L354.191 114.066L354.181 114.06C352.783 113.348 351.353 112.62 349.876 111.893C340.211 107.135 332.54 106.046 325.488 105.044C322.671 104.645 319.954 104.259 317.247 103.659C313.618 102.87 306.257 100.125 298.553 95.2783C293.574 92.1591 290.75 89.5859 288.329 87.3803C284.54 83.9285 281.74 81.3772 273.217 79.0434C278.01 70.2543 296.91 70.3127 306.051 70.6631C310.776 70.8383 314.576 70.3711 319.13 68.3856C309.407 66.4876 299.615 62.9837 294.719 55.5378C298.631 55.846 303.812 52.8952 309.756 49.51C316.764 45.5184 324.834 40.9229 333.133 40.3541C343.815 39.6241 354.703 44.5296 357.819 50.2527C359.394 50.0483 360.969 49.9315 362.509 49.8731C367.44 49.7563 371.89 50.4279 375.759 51.6835C380.244 47.5079 387.092 45.8436 392.159 45.9896C398.673 46.1913 405.662 48.9663 412.507 51.6845C418.541 54.0809 424.465 56.4332 429.855 56.9394C432.89 57.227 436.341 56.8456 439.999 56.4413C440.797 56.3531 441.605 56.2638 442.42 56.1802ZM442.42 99.0742C439.743 101 437.151 103.425 434.481 105.923C427.556 112.402 420.111 119.368 409.312 119.368C398.459 119.368 390.892 113.324 390.892 104.33C390.892 96.3003 397.226 92.4459 403.629 91.9203C413.01 91.1612 416.708 96.0667 416.605 100.447C416.536 104.301 413.592 106.549 410.305 106.87C406.025 107.25 401.711 104.856 401.951 100.301L397.911 100.855C396.987 109.236 404.416 112.827 409.518 112.944C419.07 113.207 424.103 106.432 423.966 99.8918C423.966 98.9574 423.863 98.0814 423.692 97.2347C433.241 98.227 437.966 94.2594 442.415 90.5232L442.42 90.5188C443.413 89.6428 444.406 88.8248 445.433 88.0365C448.651 85.6421 457.108 82.3133 462.894 85.7881C465.668 75.1303 452.144 71.1008 442.42 70.4C439.921 70.1956 437.661 70.2251 436.018 70.4295C421.622 72.0974 413.279 68.6849 406.805 66.0368C401.038 63.678 396.753 61.9257 390.995 64.9108C389.386 60.9689 386.578 57.611 382.744 55.0414C385.517 53.085 389.694 52.2382 392.775 52.4426C397.409 52.7374 402.807 54.8761 408.639 57.1864C415.517 59.9117 422.998 62.8758 430.54 63.3341C433.547 63.5223 436.732 63.1796 440.023 62.8256C440.816 62.7402 441.616 62.6543 442.42 62.5749C445.604 62.2829 448.857 62.0781 452.109 62.4577C460.383 63.3795 467.095 66.4982 473.642 69.5402C479.123 72.0873 484.489 74.5806 490.558 75.6851C486.244 78.4006 483.026 81.379 480.766 84.0945C477.719 87.7737 472.755 92.9712 451.836 95.0735C448.446 95.4239 445.365 96.9427 442.42 99.0742ZM442.42 76.5319C445.878 76.9114 449.199 77.9626 452.281 79.4226C448.104 80.0066 445.022 81.4374 442.42 83.1309C440.948 84.0789 439.623 85.1097 438.333 86.1132L438.326 86.1187C433.618 89.7804 429.372 93.0829 420.131 90.7232C415.749 86.46 408.525 84.9417 402.67 85.4381C391.132 86.4016 383.908 93.4095 382.778 101.877C373.43 101.8 367.802 98.8212 361.728 95.6067C358.681 93.9943 355.521 92.3224 351.724 90.9276C351.312 90.7732 350.895 90.6153 350.472 90.4551L350.449 90.4467L350.439 90.4428C346.869 89.0909 342.875 87.5786 337.687 86.6936C342.309 84.2409 346.931 81.9049 351.827 83.1605C355.217 88.65 362.201 92.6795 369.494 92.6795C383.805 92.6795 393.46 82.9853 392.502 71.0427C396.183 68.5664 399.643 69.957 404.785 72.024C411.405 74.6854 420.815 78.4679 437.079 76.5614C438.894 76.357 440.674 76.3567 442.42 76.5319ZM334.777 46.486C339.262 46.4276 344.089 47.8875 349.841 51.9755C343.713 53.815 337.276 56.881 330.805 61.4361C329.744 62.1953 328.717 62.8961 327.758 63.5385C322.211 62.6917 314.268 60.6185 308.277 57.757C310.988 56.6397 313.68 55.0377 316.448 53.3906C321.999 50.0873 327.854 46.6029 334.777 46.486ZM363.228 68.6776C371.925 67.6556 373.637 75.8022 369.973 78.4594L372.438 80.2698C376.821 78.5762 378.841 74.1379 377.985 70.8675C376.855 66.4292 371.685 62.2829 363.639 62.8085C355.901 63.3341 349.807 67.8892 349.636 75.6854V76.6782C343.958 76.4131 339.187 78.7026 334.672 80.8688C329.742 83.235 325.117 85.4541 319.952 84.0365C319.268 89.1416 325.452 90.2247 333.112 91.5661L333.133 91.57C339.33 92.6211 344.397 94.7235 348.129 96.3295C350.764 97.4866 353.231 98.8383 355.725 100.205C362.984 104.183 370.471 108.285 382.983 108.068C383.36 110.024 384.045 111.951 385.003 113.791C374.443 117.337 364.232 112.066 355.077 107.34L354.053 106.812C343.108 101.208 336.454 100.326 330.299 99.5093C326.096 98.9518 322.125 98.4251 317.178 96.4463C316.836 96.3071 316.463 96.1581 316.063 95.9979C313.016 94.7801 308.356 92.9173 303.244 89.8472C300.122 87.9588 297.635 85.7997 295.218 83.7004C293.074 81.8394 290.985 80.0253 288.556 78.4886C293.554 77.1454 298.622 76.7074 304.613 77.233C319.32 78.4974 325.913 74.0021 333.108 69.0955L333.114 69.0916C334.225 68.3339 335.351 67.5664 336.523 66.8088C345.904 60.7353 354.6 56.7058 363.399 56.7058C377.129 56.7058 384.558 64.7064 384.558 71.7143C384.558 79.8026 378.738 86.2557 370.35 86.2557C363.091 86.2557 356.928 82.1385 356.928 75.5978C356.928 71.5099 359.668 69.1156 363.228 68.6776Z" fill="#D9D9D9"/>
<path fill-rule="evenodd" clip-rule="evenodd" d="M585.979 114.9C579.097 113.878 571.736 113.236 563.108 119.689C554.891 125.821 548.044 128.595 542.566 128.595C533.39 128.595 527.193 124.448 524.248 119.368C509.115 124.623 494.256 112.973 484.464 104.096C492.955 101.614 498.536 99.1031 508.396 93.088L509.472 92.4362C517.776 87.4009 526.889 81.8754 538.046 81.8754C544.175 81.8754 551.536 83.3937 557.87 87.2189C560.883 85.0873 564.512 84.2405 567.799 84.2697C573.45 84.2697 579.102 87.382 584.879 90.5636L584.885 90.5665C585.51 90.9111 586.138 91.2565 586.766 91.5988C594.538 95.8327 602.516 100.067 614.431 99.7162C612.685 113.352 598.852 116.798 585.979 114.9ZM522.331 113.44C522.297 113.06 522.297 112.681 522.297 112.272C522.297 103.133 531.644 97.3511 539.929 97.4971C546.606 97.5847 553.864 101.556 553.864 108.242C553.864 113.615 545.921 119.397 538.765 113.936L540.511 112.068C547.119 114.783 549.995 104.271 539.381 103.571C536.129 103.366 529.863 105.907 529.418 112.214C529.11 116.827 534.383 122.871 541.915 122.871C545.75 122.871 550.783 120.681 558.212 115.134C570.331 106.047 579.12 107.608 586.642 108.945C593.018 110.078 598.484 111.049 604.296 105.235C595.394 104.125 587.862 99.833 581.905 96.0955C577.077 93.088 571.154 90.5184 566.909 90.606C562.382 90.714 560.694 93.0688 558.868 95.616L558.665 95.8999C558.583 96.0136 558.501 96.1275 558.418 96.2415C553.145 91.7448 546.914 89.2336 537.738 88.7956C529.473 88.407 520.306 93.7041 511.829 98.6026L511.828 98.6032C506.294 101.801 501.053 104.829 496.55 105.994C503.432 111.338 513.943 116.944 522.331 113.44Z" fill="#D9D9D9"/>
<path fill-rule="evenodd" clip-rule="evenodd" d="M78.6441 119.689C87.272 113.236 94.6331 113.878 101.515 114.9C114.388 116.798 128.22 113.353 129.966 99.7166C118.052 100.067 110.074 95.8331 102.302 91.5992C101.674 91.2568 101.046 90.9114 100.421 90.5668L100.415 90.5639C94.638 87.3824 88.9863 84.2701 83.3347 84.2701C80.0478 84.2409 76.4186 85.0877 73.4057 87.2192C67.0717 83.3941 59.7106 81.8757 53.5821 81.8757C42.425 81.8757 33.3123 87.4012 25.008 92.4365L23.9322 93.0883C14.0717 99.1034 8.49096 101.615 0 104.097C9.79199 112.973 24.6512 124.624 39.7843 119.368C42.7287 124.449 48.9257 128.595 58.1015 128.595C63.5795 128.595 70.427 125.821 78.6441 119.689ZM37.8327 112.272C37.8327 112.681 37.8327 113.061 37.8669 113.44C29.4787 116.944 18.9677 111.338 12.0859 105.994C16.5894 104.83 21.8302 101.801 27.365 98.603C35.8421 93.7045 45.0092 88.4074 53.2739 88.796C62.4496 89.234 68.6809 91.7452 73.9535 96.2419C74.1058 96.0328 74.2555 95.824 74.4042 95.6164C76.2298 93.0692 77.9174 90.7144 82.4445 90.6064C86.69 90.5188 92.6131 93.0883 97.4406 96.0959C103.398 99.8334 110.93 104.126 119.832 105.235C114.02 111.049 108.554 110.078 102.178 108.945C94.6559 107.609 85.8668 106.047 73.7481 115.134C66.3185 120.682 61.2856 122.872 57.4509 122.872C49.9186 122.872 44.646 116.828 44.9542 112.214C45.3993 105.907 51.6648 103.367 54.9173 103.571C65.531 104.272 62.6551 114.784 56.0472 112.068L54.3011 113.937C61.4567 119.397 69.3999 113.616 69.3999 108.243C69.3999 101.556 62.1415 97.585 55.4651 97.4974C47.1796 97.3514 37.8327 103.133 37.8327 112.272Z" fill="#D9D9D9"/>
</g>
</svg>
